<svg xmlns="http://www.w3.org/2000/svg" xmlns:xlink="http://www.w3.org/1999/xlink" width="40" zoomAndPan="magnify" viewBox="0 0 30 30.000001" height="40" preserveAspectRatio="xMidYMid meet" version="1.0"><defs><g/><clipPath id="15550114e3"><path d="M 14 0 L 29.515625 0 L 29.515625 23.953125 L 14 23.953125 Z M 14 0 " clip-rule="nonzero"/></clipPath><clipPath id="6c47f125bc"><path d="M 8 0 L 24 0 L 24 23.953125 L 8 23.953125 Z M 8 0 " clip-rule="nonzero"/></clipPath><clipPath id="932a9f10f3"><path d="M 0.484375 0 L 17 0 L 17 23.953125 L 0.484375 23.953125 Z M 0.484375 0 " clip-rule="nonzero"/></clipPath><clipPath id="a7c3b96863"><path d="M 5 23 L 25 23 L 25 29.03125 L 5 29.03125 Z M 5 23 " clip-rule="nonzero"/></clipPath><clipPath id="6de51c0228"><path d="M 0.359375 1 L 19 1 L 19 5 L 0.359375 5 Z M 0.359375 1 " clip-rule="nonzero"/></clipPath><clipPath id="c1cf08efc8"><rect x="0" width="20" y="0" height="7"/></clipPath></defs><g clip-path="url(#15550114e3)"><path fill="#f24e89" d="M 29.378906 22.507812 C 29.25 22.269531 28.40625 22.433594 28.378906 22.425781 C 28.347656 22.417969 27.722656 22.339844 27.621094 22.210938 C 27.519531 22.085938 27.210938 21.898438 27.023438 21.882812 C 26.835938 21.867188 26.601562 18.082031 26.632812 17.671875 C 26.667969 17.265625 26.660156 16.28125 26.449219 15.707031 C 26.238281 15.132812 25.617188 13.386719 25.367188 12.78125 C 25.121094 12.175781 24.894531 11.632812 24.753906 11.558594 C 24.609375 11.480469 25.066406 11.007812 25.066406 10.855469 C 25.066406 10.703125 25.148438 10.507812 25.117188 10.28125 C 25.089844 10.054688 25.207031 9.804688 25.207031 9.804688 C 25.207031 9.804688 25.347656 10.132812 25.496094 10.074219 C 25.644531 10.019531 25.359375 9.691406 25.359375 9.691406 C 25.359375 9.691406 25.445312 9.691406 25.519531 9.601562 C 25.589844 9.507812 25.550781 9.414062 25.5 9.382812 C 25.449219 9.351562 25.617188 9.222656 25.691406 9.257812 C 25.765625 9.296875 25.800781 9.414062 25.9375 9.402344 C 26.078125 9.390625 26.652344 9.140625 26.859375 9 C 27.066406 8.855469 27.316406 8.578125 27.339844 8.578125 C 27.359375 8.578125 27.488281 8.457031 27.589844 8.484375 C 27.691406 8.515625 27.859375 8.347656 27.9375 8.246094 C 28.011719 8.140625 28.332031 8.089844 28.097656 7.90625 C 28.097656 7.90625 28.296875 7.628906 27.953125 7.558594 C 27.953125 7.558594 27.921875 7.226562 27.746094 7.269531 C 27.746094 7.269531 27.816406 6.996094 27.5 6.976562 C 27.40625 6.972656 27.566406 7.171875 27.527344 7.242188 C 27.492188 7.308594 27.316406 7.496094 27.238281 7.46875 C 27.160156 7.4375 27.335938 7.140625 27.253906 7.109375 C 27.171875 7.078125 27.050781 7.097656 27.003906 7.257812 C 26.953125 7.414062 26.902344 7.914062 26.917969 8.015625 C 26.816406 8.140625 26.390625 8.285156 26.222656 8.234375 C 26.050781 8.1875 26.027344 7.644531 26.097656 7.527344 C 26.167969 7.410156 26.335938 7.335938 26.425781 7.109375 C 26.515625 6.882812 26.5625 6.613281 26.375 6.25 C 26.1875 5.886719 25.511719 4.742188 25.242188 4.632812 C 25.128906 4.554688 25.40625 3.828125 25.519531 3.742188 C 25.632812 3.65625 26.078125 3.671875 26.160156 3.523438 C 26.242188 3.371094 26.121094 3.175781 26.121094 3.175781 C 26.121094 3.175781 26.171875 3.140625 26.171875 3.097656 C 26.175781 3.050781 26.125 3.015625 26.125 3.015625 C 26.125 3.015625 26.167969 2.941406 26.15625 2.898438 C 26.140625 2.859375 26.113281 2.789062 26.113281 2.789062 C 26.113281 2.789062 26.390625 2.667969 26.328125 2.578125 C 26.269531 2.488281 25.941406 2.140625 25.972656 2.085938 C 26.003906 2.035156 26.027344 1.804688 25.957031 1.71875 C 25.882812 1.628906 25.761719 1.203125 25.644531 1.140625 C 25.644531 1.140625 25.722656 0.679688 25.167969 0.640625 C 24.703125 0.609375 23.691406 0.867188 23.582031 1.195312 C 23.574219 1.214844 23.566406 1.230469 23.5625 1.25 C 23.375 1.191406 23.128906 1.152344 22.988281 1.285156 C 22.730469 1.519531 22.511719 2.847656 22.183594 3.039062 C 21.851562 3.226562 21.625 3.386719 21.265625 3.273438 C 20.90625 3.160156 20.859375 3.152344 20.859375 3.152344 L 21.574219 3.589844 C 21.574219 3.589844 21.046875 3.640625 20.84375 3.507812 C 20.84375 3.507812 21.003906 3.847656 21.429688 3.808594 C 21.429688 3.808594 21.191406 4.058594 20.914062 3.960938 C 20.914062 3.960938 21.582031 4.308594 22.296875 3.921875 C 23.007812 3.535156 23.03125 1.5625 23.1875 1.582031 C 23.246094 1.589844 23.34375 1.5625 23.445312 1.523438 C 23.34375 1.753906 23.246094 1.984375 23.277344 2.183594 C 23.320312 2.476562 23.128906 3.488281 23.636719 3.53125 C 24.144531 3.578125 24.070312 3.628906 24.070312 3.628906 C 24.070312 3.628906 23.59375 4.488281 23.269531 4.609375 C 22.796875 4.789062 20.621094 7.46875 20.890625 7.921875 C 21.085938 8.25 22.925781 8.84375 22.925781 8.84375 C 22.925781 8.84375 22.152344 9.933594 21.957031 10.484375 C 21.761719 11.035156 21.660156 12.058594 21.878906 12.320312 C 21.878906 12.320312 21.867188 13.011719 21.753906 13.160156 C 21.640625 13.308594 21.292969 14.339844 21.226562 14.792969 C 21.15625 15.246094 20.976562 16.4375 20.640625 16.535156 C 20.300781 16.628906 19.191406 16.773438 18.277344 17.347656 C 17.359375 17.921875 16.332031 18.261719 16.128906 18.261719 C 15.925781 18.261719 14.855469 18.035156 14.808594 18.089844 C 14.761719 18.140625 14.632812 18.574219 14.65625 18.730469 C 14.675781 18.890625 14.773438 19.34375 14.789062 19.488281 C 14.804688 19.632812 14.699219 20.179688 14.738281 20.390625 C 14.777344 20.597656 14.921875 21.535156 15.171875 21.535156 C 15.425781 21.535156 15.484375 21.394531 15.507812 21.160156 C 15.53125 20.925781 15.578125 20.53125 15.667969 20.414062 C 15.757812 20.296875 16.023438 19.832031 16.0625 19.8125 C 16.105469 19.792969 16.351562 19.851562 16.363281 19.730469 C 16.375 19.609375 16.441406 19.347656 16.308594 19.261719 C 16.308594 19.261719 17.363281 18.710938 17.578125 18.703125 C 17.792969 18.699219 19.578125 18.3125 19.828125 18.175781 C 20.074219 18.042969 20.820312 17.804688 21.074219 17.796875 C 21.328125 17.792969 21.589844 17.78125 21.820312 17.484375 C 22.054688 17.191406 22.539062 16.300781 22.667969 16.175781 C 22.796875 16.050781 23.582031 14.503906 23.582031 14.503906 C 23.582031 14.503906 24.285156 15.511719 24.46875 15.734375 C 24.65625 15.957031 25.203125 16.523438 25.214844 16.828125 C 25.226562 17.132812 25.203125 18.707031 25.265625 19.042969 C 25.332031 19.375 25.632812 20.105469 25.675781 20.296875 C 25.722656 20.484375 26.125 22.332031 26.082031 22.539062 C 26.035156 22.742188 25.980469 22.703125 25.996094 22.839844 C 26.007812 22.972656 25.925781 23.824219 26.042969 23.886719 C 26.164062 23.953125 26.8125 23.925781 27.160156 23.734375 C 27.507812 23.546875 28.085938 23.316406 28.261719 23.296875 C 28.433594 23.277344 29.511719 22.746094 29.378906 22.507812 Z M 22.972656 7.796875 L 22.453125 7.285156 L 22.914062 7.03125 C 23.152344 7.257812 22.972656 7.796875 22.972656 7.796875 Z M 22.972656 7.796875 " fill-opacity="1" fill-rule="nonzero"/></g><g clip-path="url(#6c47f125bc)"><path fill="#ff9b57" d="M 22.921875 7.390625 C 22.921875 7.390625 23.042969 7.28125 22.960938 7.242188 C 22.878906 7.199219 22.722656 6.964844 22.753906 6.9375 C 22.785156 6.90625 22.585938 6.796875 22.449219 6.839844 C 22.316406 6.878906 21.945312 7.042969 21.789062 7.339844 C 21.636719 7.640625 19.539062 7.960938 19.445312 8.015625 C 19.445312 8.015625 19.503906 7.527344 19.355469 7.40625 C 19.355469 7.40625 19.742188 6.769531 19.625 6.347656 C 19.503906 5.925781 18.953125 5.058594 18.953125 5.058594 C 18.953125 5.058594 18.386719 4.296875 18.394531 4.09375 C 18.402344 3.890625 18.589844 3.171875 18.589844 3.171875 C 18.65625 3.140625 18.890625 3.050781 19.023438 3.0625 C 19.160156 3.070312 19.386719 2.96875 19.382812 2.890625 C 19.375 2.8125 19.328125 2.613281 19.359375 2.605469 C 19.386719 2.597656 19.402344 2.472656 19.359375 2.46875 C 19.3125 2.46875 19.4375 2.289062 19.390625 2.273438 C 19.34375 2.257812 19.308594 2.160156 19.351562 2.15625 C 19.390625 2.15625 19.480469 2.09375 19.449219 1.996094 C 19.421875 1.898438 19.035156 1.613281 19.042969 1.5625 C 19.054688 1.511719 19.113281 1.230469 19.070312 1.136719 C 19.03125 1.046875 18.832031 0.632812 18.753906 0.578125 C 18.753906 0.578125 18.761719 0.261719 18.339844 0.128906 C 17.921875 0 16.953125 0.175781 16.664062 0.417969 C 16.488281 0.578125 16.261719 0.699219 16.261719 0.699219 C 16.261719 0.699219 15.722656 0.6875 15.578125 0.878906 C 15.433594 1.074219 15.304688 1.546875 15.34375 1.816406 C 15.386719 2.089844 15.609375 2.726562 15.824219 2.890625 C 16.042969 3.050781 16.492188 3.722656 16.546875 4.03125 C 16.546875 4.03125 16.5625 4.214844 16.324219 4.375 C 16.085938 4.535156 15.660156 4.84375 15.386719 5.304688 C 15.179688 5.644531 14.378906 6.480469 14.277344 6.667969 C 14.171875 6.855469 13.960938 7.113281 13.972656 7.3125 C 13.988281 7.515625 14.0625 8.070312 14.160156 8.285156 C 14.257812 8.5 14.464844 9.007812 14.539062 9.1875 C 14.613281 9.367188 14.890625 9.949219 14.957031 10.039062 C 15.023438 10.128906 15.136719 10.613281 15.136719 10.613281 C 15.136719 10.613281 14.878906 11.070312 14.988281 11.53125 C 15.097656 11.996094 15.472656 12.773438 15.472656 12.773438 C 15.472656 12.773438 14.792969 15.664062 14.628906 15.769531 C 14.464844 15.875 14.179688 16.027344 13.972656 16.0625 C 13.765625 16.097656 12.957031 16.132812 12.640625 16.394531 C 12.324219 16.660156 11.003906 17.234375 11.003906 17.234375 L 10.96875 17.335938 C 10.96875 17.335938 10.632812 17.53125 10.566406 17.546875 C 10.5 17.566406 10.28125 17.539062 10.28125 17.539062 C 10.28125 17.539062 9.578125 17.117188 9.105469 17.140625 C 9.105469 17.140625 8.921875 17.832031 8.917969 18.046875 C 8.910156 18.261719 8.933594 18.6875 8.917969 18.855469 C 8.902344 19.019531 8.773438 19.621094 8.765625 19.832031 C 8.761719 20.046875 8.902344 20.847656 9.0625 20.910156 C 9.222656 20.972656 9.425781 20.8125 9.414062 20.746094 C 9.402344 20.675781 9.585938 20.125 9.558594 20.03125 C 9.53125 19.9375 9.6875 19.84375 9.785156 19.734375 C 9.886719 19.625 9.953125 19.542969 10.09375 19.433594 C 10.230469 19.324219 10.582031 18.800781 10.660156 18.75 C 10.738281 18.699219 11.433594 18.34375 11.433594 18.34375 C 11.433594 18.34375 12.746094 17.839844 13.050781 17.804688 C 13.351562 17.769531 14.195312 17.546875 14.347656 17.484375 C 14.496094 17.421875 15.023438 17.5 15.296875 17.429688 C 15.574219 17.359375 15.863281 17.132812 16.019531 16.820312 C 16.171875 16.507812 16.847656 15.359375 16.847656 15.359375 C 16.847656 15.359375 17.398438 16.121094 17.542969 16.523438 C 17.6875 16.921875 17.609375 18.164062 17.742188 18.59375 C 17.871094 19.027344 18.113281 19.839844 18.191406 19.992188 C 18.265625 20.144531 18.53125 21.261719 18.53125 21.261719 L 18.625 21.300781 C 18.625 21.300781 18.808594 22.027344 18.753906 22.320312 L 18.679688 22.351562 C 18.679688 22.351562 18.632812 23.484375 18.78125 23.542969 C 18.929688 23.601562 20.433594 23.324219 20.6875 23.179688 C 20.941406 23.039062 22.019531 22.394531 22.089844 22.0625 C 22.15625 21.730469 21.980469 21.71875 21.75 21.769531 C 21.523438 21.824219 21.140625 21.925781 21.039062 21.957031 C 20.933594 21.988281 20.519531 21.9375 20.378906 21.90625 C 20.242188 21.875 19.929688 21.703125 19.804688 21.53125 C 19.679688 21.359375 19.625 21.066406 19.625 21.066406 C 19.625 21.066406 19.75 20.996094 19.722656 20.917969 C 19.695312 20.839844 19.140625 18.1875 19.148438 17.75 C 19.15625 17.3125 19.175781 16.660156 19.238281 16.519531 C 19.300781 16.382812 19.167969 15.824219 18.976562 15.464844 C 18.78125 15.105469 18.039062 11.953125 18.039062 11.953125 L 18.21875 11.5 L 18.257812 11.277344 L 18.429688 10.910156 C 18.371094 10.886719 18.507812 10.175781 18.609375 10.054688 C 18.707031 9.945312 18.777344 8.953125 18.777344 8.953125 C 18.777344 8.953125 18.9375 9.117188 19.054688 9.101562 C 19.175781 9.085938 19.5 8.988281 19.671875 8.941406 C 19.839844 8.894531 20.371094 8.738281 20.503906 8.695312 C 20.640625 8.652344 21.542969 8.238281 21.617188 8.144531 C 21.691406 8.050781 22.101562 7.941406 22.101562 7.941406 C 22.101562 7.941406 22.289062 7.988281 22.449219 7.925781 C 22.609375 7.863281 22.945312 7.648438 22.992188 7.566406 C 23.039062 7.484375 22.921875 7.390625 22.921875 7.390625 Z M 16.003906 1.796875 C 16.003906 1.796875 15.941406 1.734375 15.902344 1.542969 C 15.859375 1.355469 15.960938 1.089844 16.046875 1.050781 C 16.121094 1.015625 16.242188 1.082031 16.265625 1.097656 Z M 16.527344 8.066406 C 16.511719 8.296875 16.335938 9.027344 16.207031 9.054688 C 16.082031 9.082031 15.871094 9.683594 15.707031 9.714844 C 15.546875 9.746094 15.4375 9.503906 15.328125 9.417969 C 15.21875 9.332031 15.125 8.722656 15.09375 8.609375 C 15.0625 8.496094 14.9375 7.585938 14.933594 7.371094 C 14.925781 7.152344 15.242188 6.980469 15.429688 6.855469 C 15.613281 6.730469 16.183594 6.261719 16.203125 6.28125 C 16.371094 6.472656 16.546875 7.839844 16.53125 8.066406 Z M 16.527344 8.066406 " fill-opacity="1" fill-rule="nonzero"/></g><g clip-path="url(#932a9f10f3)"><path fill="#5098d3" d="M 16.769531 22.542969 C 16.6875 22.410156 16.054688 22.304688 15.824219 22.296875 C 15.597656 22.292969 15.007812 22.15625 14.867188 22.089844 C 14.730469 22.023438 14.480469 21.683594 14.382812 21.617188 C 14.289062 21.550781 14.015625 21.460938 13.992188 21.296875 C 13.972656 21.136719 13.574219 18.78125 13.636719 18.636719 C 13.695312 18.492188 13.542969 17.871094 13.492188 17.789062 C 13.441406 17.703125 13.382812 17.011719 13.382812 16.574219 C 13.382812 16.136719 12.984375 14.757812 12.519531 14.269531 L 12.515625 13.898438 C 12.515625 13.898438 12.371094 13.804688 12.320312 13.65625 C 12.265625 13.507812 12.25 13.097656 12.132812 13.027344 C 12.019531 12.957031 12.121094 12.6875 12.078125 12.601562 C 12.039062 12.511719 11.820312 12.257812 11.84375 12.152344 C 11.871094 12.042969 11.652344 11.472656 11.761719 11.351562 C 11.875 11.234375 11.902344 10.839844 11.941406 10.78125 C 11.976562 10.722656 11.925781 10.457031 11.910156 10.351562 C 11.894531 10.25 12.019531 10.167969 12.035156 10.078125 C 12.050781 9.988281 12.039062 9.789062 12.074219 9.722656 C 12.105469 9.65625 12.0625 9.480469 12.128906 9.472656 C 12.195312 9.46875 12.292969 9.589844 12.4375 9.539062 C 12.582031 9.488281 12.675781 9.5 12.664062 9.40625 C 12.652344 9.3125 12.824219 9.15625 12.742188 9.089844 C 12.742188 9.089844 12.953125 9.0625 13.046875 9.007812 C 13.140625 8.949219 13.277344 8.84375 13.378906 8.8125 C 13.476562 8.78125 13.738281 8.554688 13.859375 8.566406 C 13.980469 8.578125 14.289062 8.554688 14.425781 8.523438 C 14.566406 8.488281 14.667969 8.402344 14.671875 8.273438 C 14.671875 8.273438 14.796875 8.039062 14.71875 7.96875 C 14.71875 7.96875 14.804688 7.761719 14.707031 7.644531 C 14.707031 7.644531 14.804688 7.476562 14.632812 7.378906 L 14.414062 7.355469 C 14.414062 7.355469 14.398438 7.207031 14.296875 7.21875 L 14.167969 7.253906 C 14.167969 7.253906 14.296875 7.089844 14.242188 7.015625 C 14.191406 6.941406 14 6.847656 13.847656 7.195312 C 13.691406 7.539062 13.636719 7.863281 13.636719 7.863281 C 13.636719 7.863281 12.875 8.128906 12.714844 8.117188 C 12.714844 8.117188 12.597656 7.988281 12.625 7.921875 C 12.648438 7.859375 12.660156 7.398438 12.734375 7.300781 C 12.808594 7.207031 13.128906 6.28125 13.039062 5.890625 C 12.953125 5.5 12.894531 5.15625 12.695312 4.898438 C 12.496094 4.640625 12.285156 4.511719 12.292969 4.378906 C 12.300781 4.246094 12.332031 3.949219 12.402344 3.925781 C 12.472656 3.898438 12.519531 3.789062 12.5625 3.683594 C 12.605469 3.578125 12.675781 3.5 12.773438 3.515625 C 12.867188 3.535156 13.1875 3.597656 13.238281 3.464844 C 13.289062 3.332031 13.320312 3.21875 13.273438 3.179688 C 13.222656 3.140625 13.332031 3.121094 13.351562 3.078125 C 13.375 3.039062 13.367188 2.949219 13.347656 2.929688 C 13.332031 2.90625 13.449219 2.847656 13.457031 2.789062 C 13.464844 2.726562 13.40625 2.652344 13.460938 2.625 C 13.515625 2.59375 13.621094 2.574219 13.660156 2.488281 C 13.695312 2.402344 13.394531 2.15625 13.363281 2.015625 C 13.335938 1.875 13.523438 1.789062 13.519531 1.691406 C 13.515625 1.59375 13.414062 1.164062 13.300781 1.109375 C 13.300781 1.109375 13.417969 1.066406 13.472656 0.917969 C 13.523438 0.769531 13.367188 0.503906 13.117188 0.398438 C 12.867188 0.296875 12.824219 0.230469 12.648438 0.207031 C 12.472656 0.1875 11.664062 0.0820312 11.25 0.335938 C 10.835938 0.589844 10.789062 1.234375 10.792969 1.4375 C 10.800781 1.636719 10.835938 2.0625 10.921875 2.230469 C 11.003906 2.398438 11.160156 2.730469 11.128906 2.972656 C 11.097656 3.25 11.042969 3.472656 11.042969 3.472656 C 11.042969 3.472656 10.449219 3.914062 10.25 4.019531 C 10.046875 4.125 9.53125 4.425781 9.367188 4.691406 C 9.203125 4.957031 9.074219 5.003906 9.105469 5.101562 C 9.140625 5.199219 9.070312 5.269531 9.011719 5.347656 C 8.953125 5.421875 8.832031 5.605469 8.8125 5.691406 C 8.789062 5.777344 8.46875 6.167969 8.476562 6.265625 C 8.484375 6.359375 7.546875 7.492188 7.628906 8.050781 C 7.710938 8.414062 7.875 8.53125 7.992188 8.53125 C 8.109375 8.53125 8.191406 8.554688 8.339844 8.609375 C 8.492188 8.660156 8.988281 8.945312 9.125 8.898438 C 9.125 8.898438 8.75 10.105469 8.585938 10.34375 C 8.417969 10.582031 8.175781 11.765625 8.335938 12.195312 C 8.398438 12.390625 8.402344 12.984375 8.320312 13.140625 C 8.238281 13.292969 8.027344 14.265625 8.003906 14.476562 C 7.984375 14.6875 8 15.050781 7.960938 15.175781 C 7.921875 15.304688 7.652344 16.066406 7.332031 16.121094 C 7.011719 16.175781 6.410156 15.859375 5.890625 15.9375 C 5.371094 16.015625 2.949219 15.953125 2.949219 15.953125 L 2.710938 15.921875 L 2.710938 15.734375 C 2.710938 15.734375 1.796875 15.304688 1.453125 15.355469 C 1.453125 15.355469 0.664062 17.542969 0.613281 17.796875 C 0.558594 18.046875 0.488281 19.011719 0.640625 19.171875 C 0.796875 19.335938 1.046875 18.996094 1.070312 18.90625 C 1.089844 18.816406 1.523438 18.136719 1.640625 18.085938 C 1.761719 18.03125 2.511719 17.269531 2.597656 17.246094 C 2.6875 17.226562 3.078125 17.023438 3.328125 17.039062 C 3.578125 17.054688 4.902344 17.152344 5.25 17.292969 C 5.59375 17.433594 6.316406 17.492188 6.523438 17.507812 C 6.730469 17.523438 7.089844 17.558594 7.339844 17.609375 C 7.589844 17.664062 8.335938 17.699219 8.480469 17.492188 C 8.625 17.289062 8.921875 16.753906 9.027344 16.632812 C 9.132812 16.511719 9.914062 15.445312 9.964844 15.167969 L 10.226562 15.292969 L 10.429688 14.890625 C 10.429688 14.890625 11.628906 16.027344 11.777344 16.367188 C 11.925781 16.707031 11.945312 18.054688 12.113281 18.621094 C 12.277344 19.1875 13.007812 21.738281 13.007812 21.738281 L 12.992188 21.941406 L 12.90625 21.976562 C 12.90625 21.976562 12.84375 22.941406 12.652344 23.109375 C 12.652344 23.109375 14.066406 23.535156 14.757812 23.460938 C 15.449219 23.386719 16.097656 23.355469 16.394531 23.105469 C 16.6875 22.855469 16.847656 22.675781 16.769531 22.542969 Z M 9.359375 7.839844 L 8.890625 7.519531 L 9.394531 7.234375 Z M 9.359375 7.839844 " fill-opacity="1" fill-rule="nonzero"/></g><g clip-path="url(#a7c3b96863)"><g transform="matrix(1, 0, 0, 1, 5, 23)"><g clip-path="url(#c1cf08efc8)"><g clip-path="url(#6de51c0228)"><g fill="#000000" fill-opacity="1"><g transform="translate(0.991853, 4.902653)"><g><path d="M 0 0 L 1.328125 -3.46875 L 1.8125 -3.46875 L 3.234375 0 L 2.71875 0 L 2.3125 -1.046875 L 0.859375 -1.046875 L 0.484375 0 Z M 1 -1.421875 L 2.171875 -1.421875 L 1.8125 -2.390625 C 1.695312 -2.679688 1.613281 -2.921875 1.5625 -3.109375 C 1.519531 -2.878906 1.457031 -2.65625 1.375 -2.4375 Z M 1 -1.421875 "/></g></g><g transform="translate(4.219235, 4.902653)"><g><path d="M 1.953125 -0.921875 L 2.375 -0.859375 C 2.332031 -0.578125 2.21875 -0.351562 2.03125 -0.1875 C 1.84375 -0.0195312 1.609375 0.0625 1.328125 0.0625 C 0.984375 0.0625 0.707031 -0.0507812 0.5 -0.28125 C 0.289062 -0.507812 0.1875 -0.832031 0.1875 -1.25 C 0.1875 -1.519531 0.226562 -1.753906 0.3125 -1.953125 C 0.40625 -2.160156 0.546875 -2.3125 0.734375 -2.40625 C 0.921875 -2.507812 1.117188 -2.5625 1.328125 -2.5625 C 1.609375 -2.5625 1.832031 -2.492188 2 -2.359375 C 2.175781 -2.222656 2.289062 -2.03125 2.34375 -1.78125 L 1.921875 -1.703125 C 1.878906 -1.878906 1.804688 -2.007812 1.703125 -2.09375 C 1.609375 -2.175781 1.488281 -2.21875 1.34375 -2.21875 C 1.132812 -2.21875 0.960938 -2.140625 0.828125 -1.984375 C 0.691406 -1.828125 0.625 -1.585938 0.625 -1.265625 C 0.625 -0.921875 0.6875 -0.671875 0.8125 -0.515625 C 0.945312 -0.367188 1.117188 -0.296875 1.328125 -0.296875 C 1.492188 -0.296875 1.628906 -0.34375 1.734375 -0.4375 C 1.847656 -0.539062 1.921875 -0.703125 1.953125 -0.921875 Z M 1.953125 -0.921875 "/></g></g><g transform="translate(6.638591, 4.902653)"><g><path d="M 1.25 -0.375 L 1.3125 0 C 1.1875 0.0195312 1.078125 0.03125 0.984375 0.03125 C 0.828125 0.03125 0.707031 0.0078125 0.625 -0.03125 C 0.539062 -0.0820312 0.476562 -0.148438 0.4375 -0.234375 C 0.40625 -0.316406 0.390625 -0.484375 0.390625 -0.734375 L 0.390625 -2.1875 L 0.078125 -2.1875 L 0.078125 -2.515625 L 0.390625 -2.515625 L 0.390625 -3.140625 L 0.828125 -3.390625 L 0.828125 -2.515625 L 1.25 -2.515625 L 1.25 -2.1875 L 0.828125 -2.1875 L 0.828125 -0.71875 C 0.828125 -0.59375 0.832031 -0.507812 0.84375 -0.46875 C 0.851562 -0.4375 0.875 -0.410156 0.90625 -0.390625 C 0.945312 -0.367188 1 -0.359375 1.0625 -0.359375 C 1.113281 -0.359375 1.175781 -0.363281 1.25 -0.375 Z M 1.25 -0.375 "/></g></g><g transform="translate(7.98294, 4.902653)"><g><path d="M 0.328125 -2.984375 L 0.328125 -3.46875 L 0.75 -3.46875 L 0.75 -2.984375 Z M 0.328125 0 L 0.328125 -2.515625 L 0.75 -2.515625 L 0.75 0 Z M 0.328125 0 "/></g></g><g transform="translate(9.057946, 4.902653)"><g><path d="M 1.015625 0 L 0.0625 -2.515625 L 0.515625 -2.515625 L 1.046875 -1 C 1.109375 -0.84375 1.164062 -0.675781 1.21875 -0.5 C 1.25 -0.632812 1.300781 -0.796875 1.375 -0.984375 L 1.921875 -2.515625 L 2.359375 -2.515625 L 1.421875 0 Z M 1.015625 0 "/></g></g><g transform="translate(11.477302, 4.902653)"><g><path d="M 0.328125 -2.984375 L 0.328125 -3.46875 L 0.75 -3.46875 L 0.75 -2.984375 Z M 0.328125 0 L 0.328125 -2.515625 L 0.75 -2.515625 L 0.75 0 Z M 0.328125 0 "/></g></g><g transform="translate(12.552308, 4.902653)"><g><path d="M 1.25 -0.375 L 1.3125 0 C 1.1875 0.0195312 1.078125 0.03125 0.984375 0.03125 C 0.828125 0.03125 0.707031 0.0078125 0.625 -0.03125 C 0.539062 -0.0820312 0.476562 -0.148438 0.4375 -0.234375 C 0.40625 -0.316406 0.390625 -0.484375 0.390625 -0.734375 L 0.390625 -2.1875 L 0.078125 -2.1875 L 0.078125 -2.515625 L 0.390625 -2.515625 L 0.390625 -3.140625 L 0.828125 -3.390625 L 0.828125 -2.515625 L 1.25 -2.515625 L 1.25 -2.1875 L 0.828125 -2.1875 L 0.828125 -0.71875 C 0.828125 -0.59375 0.832031 -0.507812 0.84375 -0.46875 C 0.851562 -0.4375 0.875 -0.410156 0.90625 -0.390625 C 0.945312 -0.367188 1 -0.359375 1.0625 -0.359375 C 1.113281 -0.359375 1.175781 -0.363281 1.25 -0.375 Z M 1.25 -0.375 "/></g></g><g transform="translate(13.896657, 4.902653)"><g><path d="M 2.03125 -0.8125 L 2.484375 -0.75 C 2.410156 -0.5 2.28125 -0.300781 2.09375 -0.15625 C 1.90625 -0.0078125 1.664062 0.0625 1.375 0.0625 C 1.007812 0.0625 0.71875 -0.0507812 0.5 -0.28125 C 0.28125 -0.507812 0.171875 -0.828125 0.171875 -1.234375 C 0.171875 -1.660156 0.28125 -1.988281 0.5 -2.21875 C 0.71875 -2.445312 1 -2.5625 1.34375 -2.5625 C 1.6875 -2.5625 1.960938 -2.445312 2.171875 -2.21875 C 2.390625 -1.988281 2.5 -1.671875 2.5 -1.265625 C 2.5 -1.234375 2.492188 -1.191406 2.484375 -1.140625 L 0.625 -1.140625 C 0.632812 -0.867188 0.707031 -0.660156 0.84375 -0.515625 C 0.988281 -0.367188 1.164062 -0.296875 1.375 -0.296875 C 1.53125 -0.296875 1.660156 -0.335938 1.765625 -0.421875 C 1.878906 -0.503906 1.96875 -0.632812 2.03125 -0.8125 Z M 0.640625 -1.5 L 2.046875 -1.5 C 2.023438 -1.707031 1.96875 -1.863281 1.875 -1.96875 C 1.738281 -2.132812 1.566406 -2.21875 1.359375 -2.21875 C 1.160156 -2.21875 0.992188 -2.148438 0.859375 -2.015625 C 0.722656 -1.890625 0.648438 -1.71875 0.640625 -1.5 Z M 1.109375 -2.828125 L 1.421875 -3.484375 L 1.96875 -3.484375 L 1.453125 -2.828125 Z M 1.109375 -2.828125 "/></g></g><g transform="translate(16.587717, 4.902653)"><g><path d="M 0.15625 -0.75 L 0.5625 -0.8125 C 0.59375 -0.644531 0.660156 -0.515625 0.765625 -0.421875 C 0.867188 -0.335938 1.019531 -0.296875 1.21875 -0.296875 C 1.414062 -0.296875 1.5625 -0.332031 1.65625 -0.40625 C 1.75 -0.488281 1.796875 -0.582031 1.796875 -0.6875 C 1.796875 -0.789062 1.753906 -0.867188 1.671875 -0.921875 C 1.609375 -0.960938 1.460938 -1.007812 1.234375 -1.0625 C 0.921875 -1.144531 0.703125 -1.210938 0.578125 -1.265625 C 0.460938 -1.328125 0.375 -1.40625 0.3125 -1.5 C 0.25 -1.601562 0.21875 -1.71875 0.21875 -1.84375 C 0.21875 -1.957031 0.242188 -2.0625 0.296875 -2.15625 C 0.347656 -2.25 0.414062 -2.328125 0.5 -2.390625 C 0.570312 -2.441406 0.664062 -2.484375 0.78125 -2.515625 C 0.894531 -2.546875 1.015625 -2.5625 1.140625 -2.5625 C 1.335938 -2.5625 1.507812 -2.53125 1.65625 -2.46875 C 1.8125 -2.414062 1.921875 -2.34375 1.984375 -2.25 C 2.054688 -2.15625 2.109375 -2.023438 2.140625 -1.859375 L 1.71875 -1.8125 C 1.707031 -1.9375 1.65625 -2.035156 1.5625 -2.109375 C 1.46875 -2.179688 1.335938 -2.21875 1.171875 -2.21875 C 0.972656 -2.21875 0.832031 -2.1875 0.75 -2.125 C 0.664062 -2.0625 0.625 -1.984375 0.625 -1.890625 C 0.625 -1.835938 0.644531 -1.789062 0.6875 -1.75 C 0.71875 -1.695312 0.769531 -1.65625 0.84375 -1.625 C 0.882812 -1.613281 1.007812 -1.578125 1.21875 -1.515625 C 1.519531 -1.441406 1.726562 -1.378906 1.84375 -1.328125 C 1.96875 -1.273438 2.0625 -1.195312 2.125 -1.09375 C 2.195312 -1 2.234375 -0.878906 2.234375 -0.734375 C 2.234375 -0.597656 2.191406 -0.46875 2.109375 -0.34375 C 2.023438 -0.21875 1.90625 -0.117188 1.75 -0.046875 C 1.59375 0.0234375 1.414062 0.0625 1.21875 0.0625 C 0.894531 0.0625 0.644531 -0.00390625 0.46875 -0.140625 C 0.300781 -0.273438 0.195312 -0.476562 0.15625 -0.75 Z M 0.15625 -0.75 "/></g></g></g></g></g></g></g></svg>