<svg xmlns="http://www.w3.org/2000/svg" xmlns:xlink="http://www.w3.org/1999/xlink" width="40" zoomAndPan="magnify" viewBox="0 0 30 30.000001" height="40" preserveAspectRatio="xMidYMid meet" version="1.0"><defs><g/><clipPath id="f30481e730"><path d="M 14 0 L 28 0 L 28 21.773438 L 14 21.773438 Z M 14 0 " clip-rule="nonzero"/></clipPath><clipPath id="e8dfc95c37"><path d="M 9 0 L 23 0 L 23 21.773438 L 9 21.773438 Z M 9 0 " clip-rule="nonzero"/></clipPath><clipPath id="60289a123c"><path d="M 1.933594 0 L 17 0 L 17 21 L 1.933594 21 Z M 1.933594 0 " clip-rule="nonzero"/></clipPath><clipPath id="572524d5e3"><path d="M 1 22 L 29.515625 22 L 29.515625 29.03125 L 1 29.03125 Z M 1 22 " clip-rule="nonzero"/></clipPath><clipPath id="de466e2dfe"><path d="M 0.414062 1 L 6 1 L 6 6 L 0.414062 6 Z M 0.414062 1 " clip-rule="nonzero"/></clipPath><clipPath id="f77360a7d0"><rect x="0" width="29" y="0" height="8"/></clipPath></defs><g clip-path="url(#f30481e730)"><path fill="#000000" d="M 27.941406 20.132812 C 27.824219 19.917969 27.066406 20.0625 27.039062 20.058594 C 27.011719 20.050781 26.449219 19.980469 26.359375 19.867188 C 26.269531 19.753906 25.992188 19.585938 25.820312 19.574219 C 25.652344 19.558594 25.441406 16.171875 25.46875 15.808594 C 25.5 15.441406 25.492188 14.5625 25.304688 14.050781 C 25.117188 13.535156 24.554688 11.972656 24.332031 11.433594 C 24.109375 10.890625 23.90625 10.40625 23.777344 10.335938 C 23.648438 10.269531 24.0625 9.84375 24.0625 9.707031 C 24.0625 9.574219 24.132812 9.398438 24.105469 9.195312 C 24.082031 8.992188 24.1875 8.769531 24.1875 8.769531 C 24.1875 8.769531 24.3125 9.0625 24.445312 9.011719 C 24.578125 8.960938 24.324219 8.667969 24.324219 8.667969 C 24.324219 8.667969 24.398438 8.667969 24.464844 8.585938 C 24.53125 8.503906 24.492188 8.417969 24.449219 8.390625 C 24.402344 8.363281 24.554688 8.25 24.621094 8.28125 C 24.6875 8.316406 24.71875 8.421875 24.84375 8.410156 C 24.96875 8.398438 25.484375 8.175781 25.671875 8.046875 C 25.859375 7.921875 26.082031 7.671875 26.105469 7.671875 C 26.125 7.671875 26.238281 7.5625 26.328125 7.589844 C 26.421875 7.613281 26.574219 7.464844 26.640625 7.375 C 26.710938 7.28125 26.996094 7.234375 26.785156 7.074219 C 26.785156 7.074219 26.96875 6.824219 26.65625 6.761719 C 26.65625 6.761719 26.628906 6.464844 26.472656 6.503906 C 26.472656 6.503906 26.535156 6.257812 26.246094 6.238281 C 26.167969 6.238281 26.308594 6.414062 26.273438 6.476562 C 26.242188 6.539062 26.085938 6.707031 26.015625 6.679688 C 25.945312 6.652344 26.101562 6.386719 26.027344 6.359375 C 25.953125 6.332031 25.84375 6.347656 25.800781 6.488281 C 25.757812 6.632812 25.710938 7.078125 25.726562 7.167969 C 25.632812 7.28125 25.25 7.410156 25.097656 7.367188 C 24.945312 7.320312 24.925781 6.839844 24.988281 6.734375 C 25.050781 6.625 25.203125 6.5625 25.28125 6.359375 C 25.363281 6.15625 25.402344 5.914062 25.238281 5.589844 C 25.070312 5.265625 24.460938 4.238281 24.21875 4.144531 C 24.117188 4.074219 24.363281 3.421875 24.464844 3.347656 C 24.566406 3.273438 24.96875 3.285156 25.042969 3.148438 C 25.117188 3.015625 25.007812 2.839844 25.007812 2.839844 C 25.007812 2.839844 25.050781 2.808594 25.054688 2.769531 C 25.054688 2.730469 25.011719 2.699219 25.011719 2.699219 C 25.011719 2.699219 25.050781 2.628906 25.039062 2.59375 C 25.027344 2.558594 25 2.492188 25 2.492188 C 25 2.492188 25.25 2.386719 25.195312 2.304688 C 25.144531 2.222656 24.847656 1.914062 24.875 1.867188 C 24.902344 1.820312 24.925781 1.617188 24.859375 1.539062 C 24.792969 1.457031 24.683594 1.074219 24.578125 1.019531 C 24.578125 1.019531 24.648438 0.609375 24.152344 0.574219 C 23.734375 0.542969 22.824219 0.777344 22.722656 1.070312 C 22.714844 1.085938 22.710938 1.101562 22.707031 1.117188 C 22.535156 1.0625 22.316406 1.03125 22.1875 1.148438 C 21.957031 1.359375 21.761719 2.546875 21.464844 2.71875 C 21.167969 2.886719 20.964844 3.027344 20.640625 2.925781 C 20.316406 2.824219 20.273438 2.820312 20.273438 2.820312 L 20.917969 3.210938 C 20.917969 3.210938 20.441406 3.257812 20.261719 3.136719 C 20.261719 3.136719 20.402344 3.441406 20.789062 3.40625 C 20.789062 3.40625 20.570312 3.628906 20.320312 3.542969 C 20.320312 3.542969 20.921875 3.851562 21.566406 3.507812 C 22.207031 3.164062 22.226562 1.394531 22.371094 1.414062 C 22.421875 1.421875 22.507812 1.394531 22.601562 1.363281 C 22.507812 1.566406 22.421875 1.773438 22.449219 1.953125 C 22.488281 2.21875 22.316406 3.121094 22.773438 3.160156 C 23.230469 3.199219 23.160156 3.246094 23.160156 3.246094 C 23.160156 3.246094 22.734375 4.015625 22.441406 4.125 C 22.015625 4.28125 20.058594 6.679688 20.300781 7.085938 C 20.476562 7.378906 22.132812 7.910156 22.132812 7.910156 C 22.132812 7.910156 21.4375 8.882812 21.261719 9.378906 C 21.085938 9.871094 20.992188 10.785156 21.191406 11.019531 C 21.191406 11.019531 21.179688 11.640625 21.078125 11.769531 C 20.976562 11.902344 20.664062 12.824219 20.601562 13.230469 C 20.542969 13.636719 20.378906 14.703125 20.074219 14.789062 C 19.769531 14.875 18.773438 15.003906 17.949219 15.515625 C 17.125 16.03125 16.195312 16.335938 16.015625 16.335938 C 15.832031 16.335938 14.867188 16.132812 14.828125 16.179688 C 14.789062 16.226562 14.667969 16.613281 14.6875 16.753906 C 14.710938 16.894531 14.796875 17.300781 14.8125 17.429688 C 14.824219 17.558594 14.730469 18.046875 14.765625 18.234375 C 14.800781 18.421875 14.929688 19.261719 15.15625 19.261719 C 15.382812 19.261719 15.4375 19.136719 15.457031 18.925781 C 15.476562 18.71875 15.519531 18.363281 15.601562 18.257812 C 15.683594 18.152344 15.917969 17.738281 15.957031 17.71875 C 15.996094 17.703125 16.21875 17.753906 16.226562 17.644531 C 16.238281 17.539062 16.296875 17.304688 16.175781 17.226562 C 16.175781 17.226562 17.128906 16.734375 17.320312 16.730469 C 17.515625 16.726562 19.121094 16.378906 19.34375 16.257812 C 19.566406 16.136719 20.238281 15.921875 20.464844 15.917969 C 20.695312 15.914062 20.933594 15.902344 21.140625 15.640625 C 21.347656 15.375 21.785156 14.578125 21.898438 14.46875 C 22.015625 14.355469 22.722656 12.972656 22.722656 12.972656 C 22.722656 12.972656 23.355469 13.875 23.523438 14.074219 C 23.691406 14.269531 24.183594 14.777344 24.191406 15.050781 C 24.203125 15.324219 24.183594 16.734375 24.238281 17.03125 C 24.296875 17.328125 24.566406 17.984375 24.609375 18.152344 C 24.648438 18.320312 25.015625 19.976562 24.972656 20.15625 C 24.933594 20.339844 24.882812 20.308594 24.894531 20.425781 C 24.90625 20.546875 24.832031 21.308594 24.9375 21.363281 C 25.046875 21.421875 25.628906 21.398438 25.945312 21.230469 C 26.257812 21.058594 26.777344 20.855469 26.933594 20.835938 C 27.089844 20.820312 28.058594 20.34375 27.941406 20.128906 Z M 22.175781 6.972656 L 21.707031 6.515625 L 22.125 6.289062 C 22.335938 6.492188 22.175781 6.972656 22.175781 6.972656 Z M 22.175781 6.972656 " fill-opacity="1" fill-rule="nonzero"/></g><g clip-path="url(#e8dfc95c37)"><path fill="#000000" d="M 22.128906 6.609375 C 22.128906 6.609375 22.238281 6.515625 22.164062 6.476562 C 22.09375 6.4375 21.949219 6.226562 21.976562 6.203125 C 22.003906 6.179688 21.824219 6.078125 21.703125 6.117188 C 21.582031 6.152344 21.25 6.300781 21.113281 6.566406 C 20.972656 6.832031 19.082031 7.121094 19 7.167969 C 19 7.167969 19.054688 6.734375 18.917969 6.625 C 18.917969 6.625 19.269531 6.054688 19.160156 5.675781 C 19.054688 5.300781 18.558594 4.523438 18.558594 4.523438 C 18.558594 4.523438 18.046875 3.84375 18.054688 3.664062 C 18.058594 3.480469 18.230469 2.835938 18.230469 2.835938 C 18.289062 2.808594 18.5 2.730469 18.621094 2.738281 C 18.742188 2.746094 18.949219 2.652344 18.941406 2.585938 C 18.9375 2.515625 18.894531 2.335938 18.921875 2.332031 C 18.949219 2.324219 18.960938 2.210938 18.921875 2.210938 C 18.882812 2.207031 18.992188 2.050781 18.953125 2.035156 C 18.910156 2.019531 18.878906 1.933594 18.914062 1.929688 C 18.953125 1.929688 19.03125 1.875 19.003906 1.785156 C 18.980469 1.699219 18.628906 1.441406 18.640625 1.398438 C 18.648438 1.351562 18.703125 1.097656 18.664062 1.019531 C 18.628906 0.9375 18.449219 0.566406 18.378906 0.515625 C 18.378906 0.515625 18.382812 0.234375 18.007812 0.117188 C 17.628906 0 16.757812 0.160156 16.5 0.371094 C 16.339844 0.515625 16.132812 0.625 16.132812 0.625 C 16.132812 0.625 15.648438 0.613281 15.519531 0.785156 C 15.390625 0.960938 15.273438 1.382812 15.308594 1.625 C 15.347656 1.867188 15.546875 2.441406 15.742188 2.585938 C 15.9375 2.730469 16.34375 3.328125 16.390625 3.605469 C 16.390625 3.605469 16.40625 3.769531 16.191406 3.910156 C 15.976562 4.054688 15.59375 4.332031 15.347656 4.746094 C 15.160156 5.046875 14.441406 5.796875 14.347656 5.964844 C 14.257812 6.132812 14.0625 6.363281 14.074219 6.542969 C 14.089844 6.722656 14.15625 7.21875 14.242188 7.410156 C 14.332031 7.601562 14.515625 8.058594 14.585938 8.21875 C 14.652344 8.378906 14.902344 8.898438 14.960938 8.980469 C 15.019531 9.058594 15.125 9.492188 15.125 9.492188 C 15.125 9.492188 14.890625 9.902344 14.988281 10.316406 C 15.085938 10.730469 15.425781 11.425781 15.425781 11.425781 C 15.425781 11.425781 14.816406 14.011719 14.667969 14.105469 C 14.515625 14.199219 14.261719 14.335938 14.074219 14.367188 C 13.890625 14.398438 13.164062 14.429688 12.878906 14.664062 C 12.589844 14.898438 11.402344 15.414062 11.402344 15.414062 L 11.375 15.503906 C 11.375 15.503906 11.070312 15.679688 11.011719 15.695312 C 10.953125 15.710938 10.753906 15.683594 10.753906 15.683594 C 10.753906 15.683594 10.121094 15.308594 9.695312 15.332031 C 9.695312 15.332031 9.53125 15.949219 9.527344 16.140625 C 9.519531 16.332031 9.539062 16.714844 9.527344 16.863281 C 9.511719 17.011719 9.394531 17.546875 9.390625 17.738281 C 9.386719 17.929688 9.511719 18.648438 9.65625 18.703125 C 9.800781 18.757812 9.980469 18.613281 9.972656 18.554688 C 9.964844 18.492188 10.125 18 10.101562 17.917969 C 10.078125 17.832031 10.21875 17.75 10.308594 17.652344 C 10.398438 17.554688 10.457031 17.476562 10.582031 17.378906 C 10.707031 17.28125 11.027344 16.816406 11.09375 16.769531 C 11.164062 16.722656 11.789062 16.40625 11.789062 16.40625 C 11.789062 16.40625 12.972656 15.957031 13.246094 15.925781 C 13.515625 15.894531 14.273438 15.695312 14.410156 15.640625 C 14.546875 15.582031 15.019531 15.652344 15.269531 15.589844 C 15.515625 15.527344 15.777344 15.320312 15.914062 15.042969 C 16.054688 14.761719 16.660156 13.738281 16.660156 13.738281 C 16.660156 13.738281 17.160156 14.417969 17.289062 14.777344 C 17.421875 15.136719 17.347656 16.246094 17.464844 16.632812 C 17.585938 17.015625 17.800781 17.742188 17.871094 17.878906 C 17.9375 18.015625 18.175781 19.015625 18.175781 19.015625 L 18.261719 19.050781 C 18.261719 19.050781 18.429688 19.703125 18.378906 19.964844 L 18.3125 19.992188 C 18.3125 19.992188 18.269531 21.003906 18.402344 21.058594 C 18.539062 21.109375 19.886719 20.859375 20.117188 20.734375 C 20.347656 20.605469 21.320312 20.03125 21.378906 19.734375 C 21.4375 19.433594 21.28125 19.425781 21.074219 19.472656 C 20.871094 19.519531 20.527344 19.613281 20.433594 19.640625 C 20.339844 19.667969 19.96875 19.621094 19.84375 19.59375 C 19.714844 19.566406 19.4375 19.410156 19.324219 19.257812 C 19.214844 19.105469 19.160156 18.84375 19.160156 18.84375 C 19.160156 18.84375 19.273438 18.777344 19.25 18.707031 C 19.226562 18.636719 18.726562 16.265625 18.734375 15.875 C 18.738281 15.484375 18.757812 14.898438 18.8125 14.777344 C 18.871094 14.652344 18.753906 14.15625 18.578125 13.832031 C 18.402344 13.507812 17.734375 10.691406 17.734375 10.691406 L 17.894531 10.285156 L 17.933594 10.085938 L 18.085938 9.757812 C 18.035156 9.738281 18.15625 9.101562 18.25 8.996094 C 18.335938 8.894531 18.398438 8.007812 18.398438 8.007812 C 18.398438 8.007812 18.542969 8.15625 18.648438 8.140625 C 18.757812 8.125 19.050781 8.039062 19.203125 7.996094 C 19.355469 7.953125 19.832031 7.816406 19.953125 7.777344 C 20.074219 7.742188 20.890625 7.367188 20.953125 7.285156 C 21.019531 7.199219 21.390625 7.101562 21.390625 7.101562 C 21.390625 7.101562 21.558594 7.144531 21.703125 7.089844 C 21.847656 7.03125 22.152344 6.839844 22.195312 6.765625 C 22.234375 6.691406 22.128906 6.609375 22.128906 6.609375 Z M 15.902344 1.609375 C 15.902344 1.609375 15.847656 1.550781 15.808594 1.378906 C 15.773438 1.210938 15.867188 0.972656 15.941406 0.9375 C 16.007812 0.90625 16.117188 0.96875 16.136719 0.980469 Z M 16.375 7.214844 C 16.359375 7.421875 16.203125 8.074219 16.085938 8.097656 C 15.972656 8.121094 15.78125 8.664062 15.636719 8.691406 C 15.492188 8.71875 15.394531 8.5 15.296875 8.421875 C 15.195312 8.34375 15.113281 7.800781 15.085938 7.699219 C 15.058594 7.597656 14.945312 6.785156 14.9375 6.589844 C 14.933594 6.398438 15.21875 6.242188 15.386719 6.132812 C 15.554688 6.019531 16.0625 5.601562 16.082031 5.621094 C 16.234375 5.789062 16.390625 7.011719 16.375 7.214844 Z M 16.375 7.214844 " fill-opacity="1" fill-rule="nonzero"/></g><g clip-path="url(#60289a123c)"><path fill="#000000" d="M 16.589844 20.164062 C 16.519531 20.042969 15.949219 19.949219 15.742188 19.945312 C 15.539062 19.9375 15.007812 19.816406 14.882812 19.757812 C 14.757812 19.699219 14.53125 19.394531 14.445312 19.335938 C 14.359375 19.273438 14.113281 19.195312 14.09375 19.050781 C 14.074219 18.902344 13.71875 16.800781 13.773438 16.671875 C 13.828125 16.539062 13.6875 15.984375 13.644531 15.910156 C 13.597656 15.835938 13.542969 15.214844 13.542969 14.824219 C 13.542969 14.433594 13.1875 13.199219 12.769531 12.761719 L 12.761719 12.433594 C 12.761719 12.433594 12.632812 12.347656 12.585938 12.214844 C 12.539062 12.082031 12.523438 11.714844 12.421875 11.652344 C 12.320312 11.589844 12.40625 11.347656 12.371094 11.269531 C 12.335938 11.191406 12.136719 10.964844 12.160156 10.867188 C 12.183594 10.769531 11.988281 10.257812 12.085938 10.152344 C 12.1875 10.046875 12.210938 9.695312 12.246094 9.644531 C 12.277344 9.589844 12.234375 9.351562 12.21875 9.257812 C 12.207031 9.167969 12.320312 9.09375 12.332031 9.015625 C 12.34375 8.933594 12.335938 8.757812 12.367188 8.695312 C 12.398438 8.636719 12.355469 8.476562 12.417969 8.472656 C 12.476562 8.46875 12.566406 8.578125 12.695312 8.53125 C 12.824219 8.488281 12.90625 8.496094 12.898438 8.414062 C 12.886719 8.328125 13.042969 8.191406 12.96875 8.128906 C 12.96875 8.128906 13.15625 8.105469 13.242188 8.054688 C 13.324219 8.007812 13.453125 7.910156 13.539062 7.882812 C 13.628906 7.855469 13.867188 7.652344 13.976562 7.664062 C 14.082031 7.671875 14.359375 7.652344 14.484375 7.625 C 14.609375 7.59375 14.699219 7.515625 14.703125 7.402344 C 14.703125 7.402344 14.816406 7.191406 14.746094 7.125 C 14.746094 7.125 14.824219 6.941406 14.738281 6.839844 C 14.738281 6.839844 14.824219 6.6875 14.671875 6.601562 L 14.472656 6.582031 C 14.472656 6.582031 14.457031 6.445312 14.367188 6.457031 L 14.253906 6.488281 C 14.253906 6.488281 14.367188 6.339844 14.320312 6.277344 C 14.273438 6.210938 14.101562 6.125 13.960938 6.433594 C 13.820312 6.742188 13.773438 7.035156 13.773438 7.035156 C 13.773438 7.035156 13.085938 7.269531 12.945312 7.257812 C 12.945312 7.257812 12.839844 7.144531 12.863281 7.085938 C 12.886719 7.03125 12.894531 6.617188 12.960938 6.53125 C 13.027344 6.445312 13.316406 5.617188 13.234375 5.269531 C 13.15625 4.921875 13.105469 4.613281 12.925781 4.382812 C 12.746094 4.148438 12.558594 4.035156 12.5625 3.917969 C 12.570312 3.796875 12.601562 3.53125 12.664062 3.511719 C 12.726562 3.488281 12.765625 3.386719 12.804688 3.292969 C 12.84375 3.203125 12.910156 3.128906 12.996094 3.144531 C 13.082031 3.164062 13.367188 3.21875 13.414062 3.097656 C 13.460938 2.980469 13.488281 2.878906 13.445312 2.84375 C 13.402344 2.808594 13.496094 2.792969 13.519531 2.753906 C 13.539062 2.71875 13.53125 2.640625 13.515625 2.617188 C 13.496094 2.597656 13.605469 2.546875 13.609375 2.492188 C 13.617188 2.441406 13.5625 2.375 13.613281 2.347656 C 13.664062 2.320312 13.757812 2.300781 13.792969 2.226562 C 13.824219 2.148438 13.554688 1.929688 13.527344 1.804688 C 13.5 1.679688 13.671875 1.597656 13.667969 1.511719 C 13.664062 1.425781 13.574219 1.042969 13.472656 0.992188 C 13.472656 0.992188 13.578125 0.953125 13.625 0.820312 C 13.671875 0.6875 13.53125 0.449219 13.304688 0.355469 C 13.082031 0.265625 13.042969 0.207031 12.882812 0.1875 C 12.726562 0.167969 12 0.0703125 11.625 0.300781 C 11.253906 0.527344 11.210938 1.105469 11.214844 1.285156 C 11.21875 1.464844 11.253906 1.84375 11.328125 1.996094 C 11.402344 2.144531 11.542969 2.441406 11.515625 2.660156 C 11.488281 2.90625 11.4375 3.109375 11.4375 3.109375 C 11.4375 3.109375 10.90625 3.5 10.726562 3.59375 C 10.542969 3.6875 10.078125 3.957031 9.929688 4.195312 C 9.78125 4.433594 9.664062 4.476562 9.695312 4.5625 C 9.726562 4.648438 9.664062 4.710938 9.609375 4.78125 C 9.554688 4.851562 9.449219 5.011719 9.429688 5.089844 C 9.410156 5.164062 9.121094 5.515625 9.128906 5.601562 C 9.136719 5.6875 8.292969 6.703125 8.367188 7.199219 C 8.441406 7.523438 8.585938 7.628906 8.691406 7.628906 C 8.796875 7.628906 8.871094 7.652344 9.007812 7.699219 C 9.144531 7.746094 9.589844 8 9.710938 7.957031 C 9.710938 7.957031 9.375 9.039062 9.226562 9.253906 C 9.078125 9.464844 8.859375 10.523438 9.003906 10.90625 C 9.058594 11.082031 9.0625 11.613281 8.988281 11.75 C 8.914062 11.890625 8.726562 12.761719 8.707031 12.949219 C 8.6875 13.136719 8.699219 13.460938 8.664062 13.574219 C 8.632812 13.6875 8.386719 14.371094 8.097656 14.417969 C 7.8125 14.46875 7.269531 14.1875 6.800781 14.253906 C 6.335938 14.324219 4.15625 14.269531 4.15625 14.269531 L 3.941406 14.242188 L 3.941406 14.070312 C 3.941406 14.070312 3.117188 13.6875 2.808594 13.734375 C 2.808594 13.734375 2.097656 15.691406 2.050781 15.917969 C 2.003906 16.140625 1.9375 17.003906 2.078125 17.148438 C 2.21875 17.292969 2.441406 16.988281 2.460938 16.910156 C 2.480469 16.832031 2.871094 16.222656 2.980469 16.175781 C 3.085938 16.128906 3.761719 15.445312 3.839844 15.425781 C 3.917969 15.40625 4.269531 15.226562 4.496094 15.242188 C 4.722656 15.253906 5.914062 15.339844 6.226562 15.464844 C 6.535156 15.59375 7.183594 15.644531 7.371094 15.660156 C 7.554688 15.671875 7.878906 15.703125 8.105469 15.75 C 8.332031 15.796875 9.003906 15.832031 9.132812 15.648438 C 9.261719 15.464844 9.53125 14.984375 9.625 14.875 C 9.71875 14.765625 10.425781 13.8125 10.46875 13.566406 L 10.703125 13.679688 L 10.886719 13.316406 C 10.886719 13.316406 11.96875 14.332031 12.101562 14.636719 C 12.234375 14.941406 12.253906 16.148438 12.402344 16.65625 C 12.550781 17.160156 13.207031 19.441406 13.207031 19.441406 L 13.191406 19.625 L 13.117188 19.65625 C 13.117188 19.65625 13.0625 20.519531 12.886719 20.667969 C 12.886719 20.667969 14.160156 21.050781 14.78125 20.984375 C 15.40625 20.917969 15.988281 20.890625 16.253906 20.667969 C 16.519531 20.441406 16.664062 20.28125 16.589844 20.164062 Z M 9.921875 7.011719 L 9.5 6.726562 L 9.953125 6.46875 Z M 9.921875 7.011719 " fill-opacity="1" fill-rule="nonzero"/></g><g clip-path="url(#572524d5e3)"><g transform="matrix(1, 0, 0, 1, 1, 22)"><g clip-path="url(#f77360a7d0)"><g clip-path="url(#de466e2dfe)"><g fill="#000000" fill-opacity="1"><g transform="translate(0.641997, 5.975464)"><g><path d="M 3.484375 -1.171875 L 1.03125 -1.171875 L 0.5 0 L 0.015625 0 L 2.03125 -4.40625 L 2.484375 -4.40625 L 4.5 0 L 4.015625 0 Z M 3.3125 -1.5625 L 2.25 -3.921875 L 1.203125 -1.5625 Z M 3.3125 -1.5625 "/></g></g></g></g><g fill="#000000" fill-opacity="1"><g transform="translate(5.120742, 5.975464)"><g><path d="M 2 0.03125 C 1.664062 0.03125 1.367188 -0.0351562 1.109375 -0.171875 C 0.859375 -0.316406 0.660156 -0.519531 0.515625 -0.78125 C 0.367188 -1.039062 0.296875 -1.332031 0.296875 -1.65625 C 0.296875 -1.976562 0.367188 -2.265625 0.515625 -2.515625 C 0.660156 -2.773438 0.859375 -2.976562 1.109375 -3.125 C 1.367188 -3.269531 1.664062 -3.34375 2 -3.34375 C 2.28125 -3.34375 2.53125 -3.285156 2.75 -3.171875 C 2.976562 -3.054688 3.160156 -2.894531 3.296875 -2.6875 L 2.953125 -2.453125 C 2.847656 -2.617188 2.710938 -2.742188 2.546875 -2.828125 C 2.378906 -2.910156 2.195312 -2.953125 2 -2.953125 C 1.757812 -2.953125 1.539062 -2.894531 1.34375 -2.78125 C 1.15625 -2.675781 1.007812 -2.523438 0.90625 -2.328125 C 0.800781 -2.128906 0.75 -1.90625 0.75 -1.65625 C 0.75 -1.394531 0.800781 -1.164062 0.90625 -0.96875 C 1.007812 -0.78125 1.15625 -0.628906 1.34375 -0.515625 C 1.539062 -0.410156 1.757812 -0.359375 2 -0.359375 C 2.195312 -0.359375 2.378906 -0.398438 2.546875 -0.484375 C 2.710938 -0.566406 2.847656 -0.6875 2.953125 -0.84375 L 3.296875 -0.625 C 3.160156 -0.40625 2.976562 -0.238281 2.75 -0.125 C 2.53125 -0.0195312 2.28125 0.03125 2 0.03125 Z M 2 0.03125 "/></g></g></g><g fill="#000000" fill-opacity="1"><g transform="translate(8.699962, 5.975464)"><g><path d="M 2.375 -0.203125 C 2.28125 -0.128906 2.171875 -0.0703125 2.046875 -0.03125 C 1.929688 0.0078125 1.804688 0.03125 1.671875 0.03125 C 1.359375 0.03125 1.117188 -0.0507812 0.953125 -0.21875 C 0.785156 -0.382812 0.703125 -0.625 0.703125 -0.9375 L 0.703125 -2.9375 L 0.109375 -2.9375 L 0.109375 -3.3125 L 0.703125 -3.3125 L 0.703125 -4.03125 L 1.140625 -4.03125 L 1.140625 -3.3125 L 2.15625 -3.3125 L 2.15625 -2.9375 L 1.140625 -2.9375 L 1.140625 -0.953125 C 1.140625 -0.753906 1.1875 -0.601562 1.28125 -0.5 C 1.382812 -0.40625 1.53125 -0.359375 1.71875 -0.359375 C 1.8125 -0.359375 1.898438 -0.367188 1.984375 -0.390625 C 2.066406 -0.421875 2.140625 -0.460938 2.203125 -0.515625 Z M 2.375 -0.203125 "/></g></g></g><g fill="#000000" fill-opacity="1"><g transform="translate(11.253855, 5.975464)"><g><path d="M 0.625 -3.3125 L 1.078125 -3.3125 L 1.078125 0 L 0.625 0 Z M 0.84375 -4.03125 C 0.75 -4.03125 0.671875 -4.0625 0.609375 -4.125 C 0.546875 -4.1875 0.515625 -4.265625 0.515625 -4.359375 C 0.515625 -4.441406 0.546875 -4.515625 0.609375 -4.578125 C 0.671875 -4.640625 0.75 -4.671875 0.84375 -4.671875 C 0.9375 -4.671875 1.015625 -4.640625 1.078125 -4.578125 C 1.140625 -4.515625 1.171875 -4.441406 1.171875 -4.359375 C 1.171875 -4.265625 1.140625 -4.1875 1.078125 -4.125 C 1.015625 -4.0625 0.9375 -4.03125 0.84375 -4.03125 Z M 0.84375 -4.03125 "/></g></g></g><g fill="#000000" fill-opacity="1"><g transform="translate(12.945966, 5.975464)"><g><path d="M 3.40625 -3.3125 L 1.9375 0 L 1.46875 0 L 0 -3.3125 L 0.46875 -3.3125 L 1.71875 -0.484375 L 2.96875 -3.3125 Z M 3.40625 -3.3125 "/></g></g></g><g fill="#000000" fill-opacity="1"><g transform="translate(16.355344, 5.975464)"><g><path d="M 0.625 -3.3125 L 1.078125 -3.3125 L 1.078125 0 L 0.625 0 Z M 0.84375 -4.03125 C 0.75 -4.03125 0.671875 -4.0625 0.609375 -4.125 C 0.546875 -4.1875 0.515625 -4.265625 0.515625 -4.359375 C 0.515625 -4.441406 0.546875 -4.515625 0.609375 -4.578125 C 0.671875 -4.640625 0.75 -4.671875 0.84375 -4.671875 C 0.9375 -4.671875 1.015625 -4.640625 1.078125 -4.578125 C 1.140625 -4.515625 1.171875 -4.441406 1.171875 -4.359375 C 1.171875 -4.265625 1.140625 -4.1875 1.078125 -4.125 C 1.015625 -4.0625 0.9375 -4.03125 0.84375 -4.03125 Z M 0.84375 -4.03125 "/></g></g></g><g fill="#000000" fill-opacity="1"><g transform="translate(18.047456, 5.975464)"><g><path d="M 2.375 -0.203125 C 2.28125 -0.128906 2.171875 -0.0703125 2.046875 -0.03125 C 1.929688 0.0078125 1.804688 0.03125 1.671875 0.03125 C 1.359375 0.03125 1.117188 -0.0507812 0.953125 -0.21875 C 0.785156 -0.382812 0.703125 -0.625 0.703125 -0.9375 L 0.703125 -2.9375 L 0.109375 -2.9375 L 0.109375 -3.3125 L 0.703125 -3.3125 L 0.703125 -4.03125 L 1.140625 -4.03125 L 1.140625 -3.3125 L 2.15625 -3.3125 L 2.15625 -2.9375 L 1.140625 -2.9375 L 1.140625 -0.953125 C 1.140625 -0.753906 1.1875 -0.601562 1.28125 -0.5 C 1.382812 -0.40625 1.53125 -0.359375 1.71875 -0.359375 C 1.8125 -0.359375 1.898438 -0.367188 1.984375 -0.390625 C 2.066406 -0.421875 2.140625 -0.460938 2.203125 -0.515625 Z M 2.375 -0.203125 "/></g></g></g><g fill="#000000" fill-opacity="1"><g transform="translate(20.481834, 5.975464)"><g><path d="M 3.5 -1.515625 L 0.734375 -1.515625 C 0.765625 -1.171875 0.898438 -0.890625 1.140625 -0.671875 C 1.378906 -0.460938 1.679688 -0.359375 2.046875 -0.359375 C 2.242188 -0.359375 2.425781 -0.394531 2.59375 -0.46875 C 2.769531 -0.539062 2.921875 -0.648438 3.046875 -0.796875 L 3.3125 -0.515625 C 3.15625 -0.335938 2.96875 -0.203125 2.75 -0.109375 C 2.53125 -0.015625 2.289062 0.03125 2.03125 0.03125 C 1.6875 0.03125 1.382812 -0.0390625 1.125 -0.1875 C 0.863281 -0.332031 0.660156 -0.53125 0.515625 -0.78125 C 0.367188 -1.039062 0.296875 -1.332031 0.296875 -1.65625 C 0.296875 -1.976562 0.363281 -2.265625 0.5 -2.515625 C 0.644531 -2.773438 0.835938 -2.976562 1.078125 -3.125 C 1.328125 -3.269531 1.601562 -3.34375 1.90625 -3.34375 C 2.21875 -3.34375 2.492188 -3.269531 2.734375 -3.125 C 2.972656 -2.976562 3.160156 -2.773438 3.296875 -2.515625 C 3.441406 -2.265625 3.515625 -1.976562 3.515625 -1.65625 Z M 1.90625 -2.953125 C 1.582031 -2.953125 1.3125 -2.847656 1.09375 -2.640625 C 0.882812 -2.441406 0.765625 -2.175781 0.734375 -1.84375 L 3.078125 -1.84375 C 3.054688 -2.175781 2.9375 -2.441406 2.71875 -2.640625 C 2.5 -2.847656 2.226562 -2.953125 1.90625 -2.953125 Z M 2.359375 -4.609375 L 2.953125 -4.609375 L 1.9375 -3.828125 L 1.5 -3.828125 Z M 2.359375 -4.609375 "/></g></g></g><g fill="#000000" fill-opacity="1"><g transform="translate(24.281214, 5.975464)"><g><path d="M 1.515625 0.03125 C 1.242188 0.03125 0.984375 -0.00390625 0.734375 -0.078125 C 0.492188 -0.160156 0.300781 -0.257812 0.15625 -0.375 L 0.359375 -0.734375 C 0.503906 -0.617188 0.679688 -0.523438 0.890625 -0.453125 C 1.097656 -0.390625 1.316406 -0.359375 1.546875 -0.359375 C 1.847656 -0.359375 2.070312 -0.40625 2.21875 -0.5 C 2.363281 -0.59375 2.4375 -0.726562 2.4375 -0.90625 C 2.4375 -1.019531 2.394531 -1.113281 2.3125 -1.1875 C 2.226562 -1.257812 2.125 -1.3125 2 -1.34375 C 1.882812 -1.375 1.726562 -1.410156 1.53125 -1.453125 C 1.257812 -1.503906 1.039062 -1.554688 0.875 -1.609375 C 0.707031 -1.660156 0.566406 -1.75 0.453125 -1.875 C 0.335938 -2 0.28125 -2.171875 0.28125 -2.390625 C 0.28125 -2.671875 0.394531 -2.898438 0.625 -3.078125 C 0.851562 -3.253906 1.175781 -3.34375 1.59375 -3.34375 C 1.8125 -3.34375 2.023438 -3.3125 2.234375 -3.25 C 2.453125 -3.195312 2.628906 -3.125 2.765625 -3.03125 L 2.5625 -2.671875 C 2.289062 -2.859375 1.96875 -2.953125 1.59375 -2.953125 C 1.3125 -2.953125 1.097656 -2.898438 0.953125 -2.796875 C 0.804688 -2.703125 0.734375 -2.570312 0.734375 -2.40625 C 0.734375 -2.28125 0.769531 -2.175781 0.84375 -2.09375 C 0.925781 -2.019531 1.03125 -1.960938 1.15625 -1.921875 C 1.28125 -1.890625 1.445312 -1.859375 1.65625 -1.828125 C 1.925781 -1.773438 2.140625 -1.722656 2.296875 -1.671875 C 2.453125 -1.617188 2.585938 -1.53125 2.703125 -1.40625 C 2.816406 -1.289062 2.875 -1.125 2.875 -0.90625 C 2.875 -0.625 2.753906 -0.394531 2.515625 -0.21875 C 2.273438 -0.0507812 1.941406 0.03125 1.515625 0.03125 Z M 1.515625 0.03125 "/></g></g></g></g></g></g></svg>