<svg xmlns="http://www.w3.org/2000/svg" xmlns:xlink="http://www.w3.org/1999/xlink" width="40" zoomAndPan="magnify" viewBox="0 0 30 30.000001" height="40" preserveAspectRatio="xMidYMid meet" version="1.0"><defs><g/><clipPath id="0dd45c0e33"><path d="M 0.484375 0 L 23 0 L 23 21.046875 L 0.484375 21.046875 Z M 0.484375 0 " clip-rule="nonzero"/></clipPath><clipPath id="c6cd74935f"><path d="M 0.484375 6 L 29 6 L 29 21.046875 L 0.484375 21.046875 Z M 0.484375 6 " clip-rule="nonzero"/></clipPath><clipPath id="87b3074db2"><path d="M 5 22 L 25 22 L 25 29.03125 L 5 29.03125 Z M 5 22 " clip-rule="nonzero"/></clipPath><clipPath id="f91546edde"><rect x="0" width="20" y="0" height="8"/></clipPath></defs><g clip-path="url(#0dd45c0e33)"><path fill="#f24e89" d="M 0.65625 21.101562 L 0.65625 3.25 C 0.65625 3.25 0.535156 2.066406 3.660156 2.167969 L 3.660156 0.00390625 C 3.660156 0.00390625 7.140625 0.136719 9.035156 0.00390625 L 10.523438 2.03125 L 20.429688 2.4375 C 20.429688 2.4375 23.035156 2.546875 22.867188 4.332031 C 22.695312 6.113281 22.839844 21.101562 22.839844 21.101562 Z M 0.65625 21.101562 " fill-opacity="1" fill-rule="nonzero"/></g><path fill="#5098d3" d="M 2.53125 3.203125 L 19.753906 3.203125 L 19.753906 19.886719 L 2.53125 19.886719 Z M 2.53125 3.203125 " fill-opacity="1" fill-rule="nonzero"/><g clip-path="url(#c6cd74935f)"><path fill="#ff9b57" d="M 0.65625 21.101562 C 0.65625 21.101562 5.390625 7.710938 7.417969 6.902344 C 9.449219 6.089844 26.894531 5.820312 28.382812 6.902344 C 28.382812 6.902344 29.464844 8.117188 22.839844 21.101562 Z M 0.65625 21.101562 " fill-opacity="1" fill-rule="nonzero"/></g><g clip-path="url(#87b3074db2)"><g transform="matrix(1, 0, 0, 1, 5, 22)"><g clip-path="url(#f91546edde)"><g fill="#000000" fill-opacity="1"><g transform="translate(1.083774, 6.065209)"><g><path d="M -0.015625 0 L 1.71875 -4.5 L 2.359375 -4.5 L 4.203125 0 L 3.53125 0 L 3 -1.359375 L 1.125 -1.359375 L 0.625 0 Z M 1.296875 -1.84375 L 2.8125 -1.84375 L 2.34375 -3.09375 C 2.207031 -3.476562 2.101562 -3.789062 2.03125 -4.03125 C 1.96875 -3.738281 1.882812 -3.453125 1.78125 -3.171875 Z M 1.296875 -1.84375 "/></g></g><g transform="translate(5.279374, 6.065209)"><g><path d="M 2.53125 0 L 2.53125 -0.40625 C 2.320312 -0.0820312 2.019531 0.078125 1.625 0.078125 C 1.363281 0.078125 1.125 0.00390625 0.90625 -0.140625 C 0.6875 -0.285156 0.515625 -0.484375 0.390625 -0.734375 C 0.273438 -0.992188 0.21875 -1.289062 0.21875 -1.625 C 0.21875 -1.957031 0.269531 -2.253906 0.375 -2.515625 C 0.488281 -2.785156 0.648438 -2.988281 0.859375 -3.125 C 1.078125 -3.269531 1.320312 -3.34375 1.59375 -3.34375 C 1.789062 -3.34375 1.96875 -3.300781 2.125 -3.21875 C 2.28125 -3.132812 2.40625 -3.023438 2.5 -2.890625 L 2.5 -4.5 L 3.046875 -4.5 L 3.046875 0 Z M 0.78125 -1.625 C 0.78125 -1.207031 0.867188 -0.894531 1.046875 -0.6875 C 1.222656 -0.476562 1.429688 -0.375 1.671875 -0.375 C 1.910156 -0.375 2.113281 -0.472656 2.28125 -0.671875 C 2.457031 -0.867188 2.546875 -1.171875 2.546875 -1.578125 C 2.546875 -2.023438 2.457031 -2.351562 2.28125 -2.5625 C 2.113281 -2.769531 1.898438 -2.875 1.640625 -2.875 C 1.398438 -2.875 1.195312 -2.773438 1.03125 -2.578125 C 0.863281 -2.378906 0.78125 -2.0625 0.78125 -1.625 Z M 0.78125 -1.625 "/></g></g><g transform="translate(8.777756, 6.065209)"><g><path d="M 0.421875 0 L 0.421875 -3.265625 L 0.90625 -3.265625 L 0.90625 -2.8125 C 1.007812 -2.96875 1.144531 -3.09375 1.3125 -3.1875 C 1.488281 -3.289062 1.6875 -3.34375 1.90625 -3.34375 C 2.144531 -3.34375 2.34375 -3.289062 2.5 -3.1875 C 2.65625 -3.082031 2.765625 -2.941406 2.828125 -2.765625 C 3.078125 -3.148438 3.410156 -3.34375 3.828125 -3.34375 C 4.148438 -3.34375 4.398438 -3.25 4.578125 -3.0625 C 4.753906 -2.882812 4.84375 -2.609375 4.84375 -2.234375 L 4.84375 0 L 4.296875 0 L 4.296875 -2.0625 C 4.296875 -2.28125 4.273438 -2.4375 4.234375 -2.53125 C 4.203125 -2.632812 4.140625 -2.710938 4.046875 -2.765625 C 3.953125 -2.828125 3.835938 -2.859375 3.703125 -2.859375 C 3.472656 -2.859375 3.28125 -2.78125 3.125 -2.625 C 2.976562 -2.476562 2.90625 -2.234375 2.90625 -1.890625 L 2.90625 0 L 2.359375 0 L 2.359375 -2.125 C 2.359375 -2.363281 2.3125 -2.546875 2.21875 -2.671875 C 2.125 -2.796875 1.976562 -2.859375 1.78125 -2.859375 C 1.625 -2.859375 1.476562 -2.816406 1.34375 -2.734375 C 1.207031 -2.648438 1.109375 -2.53125 1.046875 -2.375 C 0.992188 -2.21875 0.96875 -1.988281 0.96875 -1.6875 L 0.96875 0 Z M 0.421875 0 "/></g></g><g transform="translate(14.017649, 6.065209)"><g><path d="M 0.421875 -3.875 L 0.421875 -4.5 L 0.96875 -4.5 L 0.96875 -3.875 Z M 0.421875 0 L 0.421875 -3.265625 L 0.96875 -3.265625 L 0.96875 0 Z M 0.421875 0 "/></g></g><g transform="translate(15.415159, 6.065209)"><g><path d="M 0.421875 0 L 0.421875 -3.265625 L 0.90625 -3.265625 L 0.90625 -2.796875 C 1.144531 -3.160156 1.492188 -3.34375 1.953125 -3.34375 C 2.148438 -3.34375 2.332031 -3.304688 2.5 -3.234375 C 2.664062 -3.160156 2.785156 -3.066406 2.859375 -2.953125 C 2.941406 -2.835938 3 -2.703125 3.03125 -2.546875 C 3.050781 -2.441406 3.0625 -2.257812 3.0625 -2 L 3.0625 0 L 2.515625 0 L 2.515625 -1.984375 C 2.515625 -2.210938 2.492188 -2.378906 2.453125 -2.484375 C 2.410156 -2.597656 2.332031 -2.6875 2.21875 -2.75 C 2.113281 -2.820312 1.984375 -2.859375 1.828125 -2.859375 C 1.597656 -2.859375 1.394531 -2.78125 1.21875 -2.625 C 1.050781 -2.476562 0.96875 -2.195312 0.96875 -1.78125 L 0.96875 0 Z M 0.421875 0 "/></g></g></g></g></g></g></svg>