<svg xmlns="http://www.w3.org/2000/svg" xmlns:xlink="http://www.w3.org/1999/xlink" width="40" zoomAndPan="magnify" viewBox="0 0 30 30.000001" height="40" preserveAspectRatio="xMidYMid meet" version="1.0"><defs><g/><clipPath id="77cb90d965"><path d="M 0.484375 0 L 23 0 L 23 21.046875 L 0.484375 21.046875 Z M 0.484375 0 " clip-rule="nonzero"/></clipPath><clipPath id="a92a49d0c5"><path d="M 0.484375 6 L 29 6 L 29 21.046875 L 0.484375 21.046875 Z M 0.484375 6 " clip-rule="nonzero"/></clipPath><clipPath id="4c05d1698e"><path d="M 7 22 L 23 22 L 23 29.03125 L 7 29.03125 Z M 7 22 " clip-rule="nonzero"/></clipPath><clipPath id="8a4d3a6fcd"><rect x="0" width="16" y="0" height="8"/></clipPath></defs><g clip-path="url(#77cb90d965)"><path fill="#f24e89" d="M 0.65625 21.101562 L 0.65625 3.25 C 0.65625 3.25 0.535156 2.066406 3.660156 2.167969 L 3.660156 0.00390625 C 3.660156 0.00390625 7.140625 0.136719 9.035156 0.00390625 L 10.523438 2.03125 L 20.429688 2.4375 C 20.429688 2.4375 23.035156 2.546875 22.867188 4.332031 C 22.695312 6.113281 22.839844 21.101562 22.839844 21.101562 Z M 0.65625 21.101562 " fill-opacity="1" fill-rule="nonzero"/></g><path fill="#5098d3" d="M 2.53125 3.203125 L 19.753906 3.203125 L 19.753906 19.886719 L 2.53125 19.886719 Z M 2.53125 3.203125 " fill-opacity="1" fill-rule="nonzero"/><g clip-path="url(#a92a49d0c5)"><path fill="#ff9b57" d="M 0.65625 21.101562 C 0.65625 21.101562 5.390625 7.710938 7.417969 6.902344 C 9.449219 6.089844 26.894531 5.820312 28.382812 6.902344 C 28.382812 6.902344 29.464844 8.117188 22.839844 21.101562 Z M 0.65625 21.101562 " fill-opacity="1" fill-rule="nonzero"/></g><g clip-path="url(#4c05d1698e)"><g transform="matrix(1, 0, 0, 1, 7, 22)"><g clip-path="url(#8a4d3a6fcd)"><g fill="#000000" fill-opacity="1"><g transform="translate(1.141144, 5.902656)"><g><path d="M 0 0 L 1.328125 -3.46875 L 1.8125 -3.46875 L 3.234375 0 L 2.71875 0 L 2.3125 -1.046875 L 0.859375 -1.046875 L 0.484375 0 Z M 1 -1.421875 L 2.171875 -1.421875 L 1.8125 -2.390625 C 1.695312 -2.679688 1.613281 -2.921875 1.5625 -3.109375 C 1.519531 -2.878906 1.457031 -2.65625 1.375 -2.4375 Z M 1 -1.421875 "/></g></g><g transform="translate(4.368529, 5.902656)"><g><path d="M 1.953125 0 L 1.953125 -0.3125 C 1.785156 -0.0625 1.550781 0.0625 1.25 0.0625 C 1.050781 0.0625 0.863281 0.00390625 0.6875 -0.109375 C 0.519531 -0.222656 0.390625 -0.378906 0.296875 -0.578125 C 0.210938 -0.773438 0.171875 -1 0.171875 -1.25 C 0.171875 -1.5 0.210938 -1.722656 0.296875 -1.921875 C 0.378906 -2.128906 0.503906 -2.285156 0.671875 -2.390625 C 0.835938 -2.503906 1.023438 -2.5625 1.234375 -2.5625 C 1.378906 -2.5625 1.507812 -2.53125 1.625 -2.46875 C 1.75 -2.40625 1.847656 -2.320312 1.921875 -2.21875 L 1.921875 -3.46875 L 2.34375 -3.46875 L 2.34375 0 Z M 0.609375 -1.25 C 0.609375 -0.925781 0.675781 -0.6875 0.8125 -0.53125 C 0.945312 -0.375 1.101562 -0.296875 1.28125 -0.296875 C 1.46875 -0.296875 1.625 -0.367188 1.75 -0.515625 C 1.882812 -0.671875 1.953125 -0.90625 1.953125 -1.21875 C 1.953125 -1.5625 1.882812 -1.8125 1.75 -1.96875 C 1.625 -2.132812 1.460938 -2.21875 1.265625 -2.21875 C 1.078125 -2.21875 0.921875 -2.140625 0.796875 -1.984375 C 0.671875 -1.828125 0.609375 -1.582031 0.609375 -1.25 Z M 0.609375 -1.25 "/></g></g><g transform="translate(7.059592, 5.902656)"><g><path d="M 0.3125 0 L 0.3125 -2.515625 L 0.703125 -2.515625 L 0.703125 -2.15625 C 0.773438 -2.28125 0.878906 -2.378906 1.015625 -2.453125 C 1.148438 -2.523438 1.300781 -2.5625 1.46875 -2.5625 C 1.644531 -2.5625 1.789062 -2.523438 1.90625 -2.453125 C 2.03125 -2.378906 2.117188 -2.269531 2.171875 -2.125 C 2.367188 -2.414062 2.628906 -2.5625 2.953125 -2.5625 C 3.203125 -2.5625 3.390625 -2.492188 3.515625 -2.359375 C 3.648438 -2.222656 3.71875 -2.007812 3.71875 -1.71875 L 3.71875 0 L 3.296875 0 L 3.296875 -1.578125 C 3.296875 -1.753906 3.28125 -1.878906 3.25 -1.953125 C 3.226562 -2.023438 3.179688 -2.082031 3.109375 -2.125 C 3.035156 -2.175781 2.953125 -2.203125 2.859375 -2.203125 C 2.679688 -2.203125 2.53125 -2.140625 2.40625 -2.015625 C 2.289062 -1.898438 2.234375 -1.710938 2.234375 -1.453125 L 2.234375 0 L 1.8125 0 L 1.8125 -1.625 C 1.8125 -1.820312 1.773438 -1.96875 1.703125 -2.0625 C 1.640625 -2.15625 1.523438 -2.203125 1.359375 -2.203125 C 1.242188 -2.203125 1.132812 -2.171875 1.03125 -2.109375 C 0.925781 -2.046875 0.851562 -1.953125 0.8125 -1.828125 C 0.769531 -1.703125 0.75 -1.523438 0.75 -1.296875 L 0.75 0 Z M 0.3125 0 "/></g></g><g transform="translate(11.090279, 5.902656)"><g><path d="M 0.328125 -2.984375 L 0.328125 -3.46875 L 0.75 -3.46875 L 0.75 -2.984375 Z M 0.328125 0 L 0.328125 -2.515625 L 0.75 -2.515625 L 0.75 0 Z M 0.328125 0 "/></g></g><g transform="translate(12.165287, 5.902656)"><g><path d="M 0.3125 0 L 0.3125 -2.515625 L 0.703125 -2.515625 L 0.703125 -2.15625 C 0.890625 -2.425781 1.15625 -2.5625 1.5 -2.5625 C 1.65625 -2.5625 1.796875 -2.535156 1.921875 -2.484375 C 2.046875 -2.429688 2.140625 -2.359375 2.203125 -2.265625 C 2.265625 -2.179688 2.3125 -2.078125 2.34375 -1.953125 C 2.351562 -1.878906 2.359375 -1.742188 2.359375 -1.546875 L 2.359375 0 L 1.9375 0 L 1.9375 -1.53125 C 1.9375 -1.695312 1.914062 -1.820312 1.875 -1.90625 C 1.84375 -2 1.785156 -2.070312 1.703125 -2.125 C 1.617188 -2.175781 1.519531 -2.203125 1.40625 -2.203125 C 1.226562 -2.203125 1.070312 -2.144531 0.9375 -2.03125 C 0.8125 -1.914062 0.75 -1.695312 0.75 -1.375 L 0.75 0 Z M 0.3125 0 "/></g></g></g></g></g></g></svg>