<svg xmlns="http://www.w3.org/2000/svg" xmlns:xlink="http://www.w3.org/1999/xlink" width="40" zoomAndPan="magnify" viewBox="0 0 30 30.000001" height="40" preserveAspectRatio="xMidYMid meet" version="1.0"><defs><g/><clipPath id="7b730b2bd6"><path d="M 2 0 L 23 0 L 23 18.871094 L 2 18.871094 Z M 2 0 " clip-rule="nonzero"/></clipPath><clipPath id="96b4891295"><path d="M 2 5 L 28 5 L 28 18.871094 L 2 18.871094 Z M 2 5 " clip-rule="nonzero"/></clipPath><clipPath id="158f82f9f2"><path d="M 4 21 L 27 21 L 27 29.03125 L 4 29.03125 Z M 4 21 " clip-rule="nonzero"/></clipPath><clipPath id="04f07ddf7d"><path d="M 0.199219 2 L 5 2 L 5 7 L 0.199219 7 Z M 0.199219 2 " clip-rule="nonzero"/></clipPath><clipPath id="5720afb04e"><rect x="0" width="23" y="0" height="9"/></clipPath></defs><g clip-path="url(#7b730b2bd6)"><path fill="#000000" d="M 2.089844 18.992188 L 2.089844 2.925781 C 2.089844 2.925781 1.980469 1.859375 4.792969 1.949219 L 4.792969 0.00390625 C 4.792969 0.00390625 7.925781 0.125 9.632812 0.00390625 L 10.972656 1.828125 L 19.886719 2.195312 C 19.886719 2.195312 22.230469 2.292969 22.078125 3.898438 C 21.925781 5.5 22.054688 18.992188 22.054688 18.992188 Z M 2.089844 18.992188 " fill-opacity="1" fill-rule="nonzero"/></g><path fill="#a6a6a6" d="M 3.777344 2.882812 L 19.28125 2.882812 L 19.28125 17.898438 L 3.777344 17.898438 Z M 3.777344 2.882812 " fill-opacity="1" fill-rule="nonzero"/><g clip-path="url(#96b4891295)"><path fill="#000000" d="M 2.089844 18.992188 C 2.089844 18.992188 6.351562 6.941406 8.175781 6.210938 C 10.003906 5.480469 25.707031 5.238281 27.046875 6.210938 C 27.046875 6.210938 28.019531 7.304688 22.054688 18.992188 Z M 2.089844 18.992188 " fill-opacity="1" fill-rule="nonzero"/></g><g clip-path="url(#158f82f9f2)"><g transform="matrix(1, 0, 0, 1, 4, 21)"><g clip-path="url(#5720afb04e)"><g clip-path="url(#04f07ddf7d)"><g fill="#000000" fill-opacity="1"><g transform="translate(0.315077, 6.541015)"><g><path d="M 3.484375 -1.171875 L 1.03125 -1.171875 L 0.5 0 L 0.015625 0 L 2.03125 -4.40625 L 2.484375 -4.40625 L 4.5 0 L 4.015625 0 Z M 3.3125 -1.5625 L 2.25 -3.921875 L 1.203125 -1.5625 Z M 3.3125 -1.5625 "/></g></g></g></g><g fill="#000000" fill-opacity="1"><g transform="translate(4.793827, 6.541015)"><g><path d="M 3.640625 -4.671875 L 3.640625 0 L 3.21875 0 L 3.21875 -0.65625 C 3.082031 -0.4375 2.90625 -0.265625 2.6875 -0.140625 C 2.46875 -0.0234375 2.21875 0.03125 1.9375 0.03125 C 1.625 0.03125 1.34375 -0.0351562 1.09375 -0.171875 C 0.84375 -0.316406 0.644531 -0.519531 0.5 -0.78125 C 0.363281 -1.039062 0.296875 -1.332031 0.296875 -1.65625 C 0.296875 -1.976562 0.363281 -2.269531 0.5 -2.53125 C 0.644531 -2.789062 0.84375 -2.988281 1.09375 -3.125 C 1.34375 -3.269531 1.625 -3.34375 1.9375 -3.34375 C 2.207031 -3.34375 2.445312 -3.285156 2.65625 -3.171875 C 2.875 -3.054688 3.054688 -2.894531 3.203125 -2.6875 L 3.203125 -4.671875 Z M 1.984375 -0.359375 C 2.210938 -0.359375 2.421875 -0.410156 2.609375 -0.515625 C 2.796875 -0.628906 2.941406 -0.785156 3.046875 -0.984375 C 3.148438 -1.179688 3.203125 -1.40625 3.203125 -1.65625 C 3.203125 -1.90625 3.148438 -2.128906 3.046875 -2.328125 C 2.941406 -2.523438 2.796875 -2.675781 2.609375 -2.78125 C 2.421875 -2.894531 2.210938 -2.953125 1.984375 -2.953125 C 1.742188 -2.953125 1.53125 -2.894531 1.34375 -2.78125 C 1.15625 -2.675781 1.007812 -2.523438 0.90625 -2.328125 C 0.800781 -2.128906 0.75 -1.90625 0.75 -1.65625 C 0.75 -1.40625 0.800781 -1.179688 0.90625 -0.984375 C 1.007812 -0.785156 1.15625 -0.628906 1.34375 -0.515625 C 1.53125 -0.410156 1.742188 -0.359375 1.984375 -0.359375 Z M 1.984375 -0.359375 "/></g></g></g><g fill="#000000" fill-opacity="1"><g transform="translate(9.058703, 6.541015)"><g><path d="M 4.75 -3.34375 C 5.164062 -3.34375 5.492188 -3.222656 5.734375 -2.984375 C 5.972656 -2.742188 6.09375 -2.390625 6.09375 -1.921875 L 6.09375 0 L 5.640625 0 L 5.640625 -1.875 C 5.640625 -2.21875 5.554688 -2.476562 5.390625 -2.65625 C 5.222656 -2.84375 4.988281 -2.9375 4.6875 -2.9375 C 4.34375 -2.9375 4.070312 -2.828125 3.875 -2.609375 C 3.675781 -2.398438 3.578125 -2.109375 3.578125 -1.734375 L 3.578125 0 L 3.140625 0 L 3.140625 -1.875 C 3.140625 -2.21875 3.054688 -2.476562 2.890625 -2.65625 C 2.722656 -2.84375 2.484375 -2.9375 2.171875 -2.9375 C 1.835938 -2.9375 1.570312 -2.828125 1.375 -2.609375 C 1.175781 -2.398438 1.078125 -2.109375 1.078125 -1.734375 L 1.078125 0 L 0.625 0 L 0.625 -3.3125 L 1.046875 -3.3125 L 1.046875 -2.703125 C 1.171875 -2.910156 1.335938 -3.066406 1.546875 -3.171875 C 1.753906 -3.285156 1.992188 -3.34375 2.265625 -3.34375 C 2.546875 -3.34375 2.785156 -3.28125 2.984375 -3.15625 C 3.191406 -3.039062 3.34375 -2.867188 3.4375 -2.640625 C 3.5625 -2.859375 3.738281 -3.03125 3.96875 -3.15625 C 4.195312 -3.28125 4.457031 -3.34375 4.75 -3.34375 Z M 4.75 -3.34375 "/></g></g></g><g fill="#000000" fill-opacity="1"><g transform="translate(15.732788, 6.541015)"><g><path d="M 0.625 -3.3125 L 1.078125 -3.3125 L 1.078125 0 L 0.625 0 Z M 0.84375 -4.03125 C 0.75 -4.03125 0.671875 -4.0625 0.609375 -4.125 C 0.546875 -4.1875 0.515625 -4.265625 0.515625 -4.359375 C 0.515625 -4.441406 0.546875 -4.515625 0.609375 -4.578125 C 0.671875 -4.640625 0.75 -4.671875 0.84375 -4.671875 C 0.9375 -4.671875 1.015625 -4.640625 1.078125 -4.578125 C 1.140625 -4.515625 1.171875 -4.441406 1.171875 -4.359375 C 1.171875 -4.265625 1.140625 -4.1875 1.078125 -4.125 C 1.015625 -4.0625 0.9375 -4.03125 0.84375 -4.03125 Z M 0.84375 -4.03125 "/></g></g></g><g fill="#000000" fill-opacity="1"><g transform="translate(17.424901, 6.541015)"><g><path d="M 2.3125 -3.34375 C 2.726562 -3.34375 3.054688 -3.21875 3.296875 -2.96875 C 3.546875 -2.726562 3.671875 -2.378906 3.671875 -1.921875 L 3.671875 0 L 3.21875 0 L 3.21875 -1.875 C 3.21875 -2.21875 3.128906 -2.476562 2.953125 -2.65625 C 2.785156 -2.84375 2.546875 -2.9375 2.234375 -2.9375 C 1.867188 -2.9375 1.582031 -2.828125 1.375 -2.609375 C 1.175781 -2.398438 1.078125 -2.109375 1.078125 -1.734375 L 1.078125 0 L 0.625 0 L 0.625 -3.3125 L 1.046875 -3.3125 L 1.046875 -2.703125 C 1.171875 -2.898438 1.335938 -3.054688 1.546875 -3.171875 C 1.765625 -3.285156 2.019531 -3.34375 2.3125 -3.34375 Z M 2.3125 -3.34375 "/></g></g></g></g></g></g></svg>