<svg xmlns="http://www.w3.org/2000/svg" xmlns:xlink="http://www.w3.org/1999/xlink" width="40" zoomAndPan="magnify" viewBox="0 0 30 30.000001" height="40" preserveAspectRatio="xMidYMid meet" version="1.0"><defs><g/><clipPath id="becafdbd21"><path d="M 9 22 L 21 22 L 21 29.03125 L 9 29.03125 Z M 9 22 " clip-rule="nonzero"/></clipPath><clipPath id="ac7204b6b1"><path d="M 0.308594 1 L 11 1 L 11 7 L 0.308594 7 Z M 0.308594 1 " clip-rule="nonzero"/></clipPath><clipPath id="89e2eb8306"><rect x="0" width="12" y="0" height="8"/></clipPath><clipPath id="ac7ba74fdf"><path d="M 4.964844 0 L 26.738281 0 L 26.738281 22.5 L 4.964844 22.5 Z M 4.964844 0 " clip-rule="nonzero"/></clipPath></defs><g clip-path="url(#becafdbd21)"><g transform="matrix(1, 0, 0, 1, 9, 22)"><g clip-path="url(#89e2eb8306)"><g clip-path="url(#ac7204b6b1)"><g fill="#000000" fill-opacity="1"><g transform="translate(0.929315, 6.065207)"><g><path d="M -0.015625 0 L 1.71875 -4.5 L 2.359375 -4.5 L 4.203125 0 L 3.53125 0 L 3 -1.359375 L 1.125 -1.359375 L 0.625 0 Z M 1.296875 -1.84375 L 2.8125 -1.84375 L 2.34375 -3.09375 C 2.207031 -3.476562 2.101562 -3.789062 2.03125 -4.03125 C 1.96875 -3.738281 1.882812 -3.453125 1.78125 -3.171875 Z M 1.296875 -1.84375 "/></g></g><g transform="translate(5.124915, 6.065207)"><g><path d="M 0.484375 0 L 0.484375 -4.5 L 2.1875 -4.5 C 2.488281 -4.5 2.71875 -4.488281 2.875 -4.46875 C 3.09375 -4.425781 3.273438 -4.351562 3.421875 -4.25 C 3.578125 -4.144531 3.695312 -4 3.78125 -3.8125 C 3.875 -3.625 3.921875 -3.421875 3.921875 -3.203125 C 3.921875 -2.816406 3.796875 -2.488281 3.546875 -2.21875 C 3.304688 -1.957031 2.867188 -1.828125 2.234375 -1.828125 L 1.078125 -1.828125 L 1.078125 0 Z M 1.078125 -2.359375 L 2.25 -2.359375 C 2.632812 -2.359375 2.90625 -2.429688 3.0625 -2.578125 C 3.226562 -2.722656 3.3125 -2.925781 3.3125 -3.1875 C 3.3125 -3.375 3.265625 -3.535156 3.171875 -3.671875 C 3.078125 -3.804688 2.953125 -3.894531 2.796875 -3.9375 C 2.691406 -3.957031 2.503906 -3.96875 2.234375 -3.96875 L 1.078125 -3.96875 Z M 1.078125 -2.359375 "/></g></g><g transform="translate(9.320516, 6.065207)"><g><path d="M 0.59375 0 L 0.59375 -4.5 L 1.1875 -4.5 L 1.1875 0 Z M 0.59375 0 "/></g></g></g></g></g></g></g><path fill="#f24e89" d="M 15.785156 13.0625 C 15.988281 13.0625 16.15625 12.894531 16.15625 12.691406 L 16.15625 11.570312 L 16.53125 11.570312 C 17.144531 11.570312 17.648438 11.070312 17.648438 10.453125 C 17.648438 9.835938 17.144531 9.332031 16.53125 9.332031 L 15.785156 9.332031 C 15.578125 9.332031 15.410156 9.5 15.410156 9.707031 L 15.410156 12.691406 C 15.410156 12.894531 15.578125 13.0625 15.785156 13.0625 Z M 16.15625 10.078125 L 16.53125 10.078125 C 16.734375 10.078125 16.902344 10.246094 16.902344 10.453125 C 16.902344 10.65625 16.734375 10.824219 16.53125 10.824219 L 16.15625 10.824219 Z M 16.15625 10.078125 " fill-opacity="1" fill-rule="nonzero"/><path fill="#f24e89" d="M 18.769531 13.0625 C 18.972656 13.0625 19.140625 12.894531 19.140625 12.691406 L 19.140625 9.707031 C 19.140625 9.5 18.972656 9.332031 18.769531 9.332031 C 18.5625 9.332031 18.394531 9.5 18.394531 9.707031 L 18.394531 12.691406 C 18.394531 12.894531 18.5625 13.0625 18.769531 13.0625 Z M 18.769531 13.0625 " fill-opacity="1" fill-rule="nonzero"/><path fill="#f24e89" d="M 12.800781 13.0625 C 13.003906 13.0625 13.171875 12.894531 13.171875 12.691406 L 13.171875 11.570312 L 13.917969 11.570312 L 13.917969 12.691406 C 13.917969 12.894531 14.085938 13.0625 14.292969 13.0625 C 14.496094 13.0625 14.664062 12.894531 14.664062 12.691406 L 14.664062 10.453125 C 14.664062 9.835938 14.160156 9.332031 13.546875 9.332031 C 12.929688 9.332031 12.425781 9.835938 12.425781 10.453125 L 12.425781 12.691406 C 12.425781 12.894531 12.59375 13.0625 12.800781 13.0625 Z M 13.171875 10.453125 C 13.171875 10.246094 13.339844 10.078125 13.546875 10.078125 C 13.75 10.078125 13.917969 10.246094 13.917969 10.453125 L 13.917969 10.824219 L 13.171875 10.824219 Z M 13.171875 10.453125 " fill-opacity="1" fill-rule="nonzero"/><path fill="#f24e89" d="M 15.785156 16.796875 C 18.871094 16.796875 21.378906 14.285156 21.378906 11.199219 C 21.378906 8.113281 18.871094 5.601562 15.785156 5.601562 C 12.695312 5.601562 10.1875 8.113281 10.1875 11.199219 C 10.1875 14.285156 12.695312 16.796875 15.785156 16.796875 Z M 15.785156 6.347656 C 18.457031 6.347656 20.632812 8.527344 20.632812 11.199219 C 20.632812 13.871094 18.457031 16.050781 15.785156 16.050781 C 13.113281 16.050781 10.933594 13.871094 10.933594 11.199219 C 10.933594 8.527344 13.113281 6.347656 15.785156 6.347656 Z M 15.785156 6.347656 " fill-opacity="1" fill-rule="nonzero"/><g clip-path="url(#ac7ba74fdf)"><path fill="#f24e89" d="M 6.085938 19.40625 C 6.699219 19.40625 7.203125 18.902344 7.203125 18.289062 C 7.203125 17.800781 6.890625 17.386719 6.457031 17.234375 L 6.457031 16.230469 L 9.265625 13.984375 C 9.433594 14.371094 9.632812 14.746094 9.867188 15.097656 L 9.179688 15.78125 C 9.035156 15.925781 9.035156 16.164062 9.179688 16.308594 L 10.671875 17.800781 C 10.816406 17.945312 11.054688 17.945312 11.199219 17.800781 L 11.886719 17.117188 C 12.617188 17.597656 13.4375 17.941406 14.292969 18.128906 L 14.292969 19.40625 C 14.292969 19.613281 14.460938 19.78125 14.664062 19.78125 L 16.902344 19.78125 C 17.109375 19.78125 17.277344 19.613281 17.277344 19.40625 L 17.277344 18.128906 C 17.589844 18.0625 17.898438 17.976562 18.195312 17.863281 L 18.773438 21.332031 C 18.800781 21.515625 18.960938 21.644531 19.140625 21.644531 L 20.328125 21.644531 C 20.480469 22.078125 20.894531 22.390625 21.378906 22.390625 C 21.996094 22.390625 22.5 21.886719 22.5 21.273438 C 22.5 20.65625 21.996094 20.152344 21.378906 20.152344 C 20.894531 20.152344 20.480469 20.464844 20.328125 20.898438 L 19.457031 20.898438 L 18.902344 17.566406 C 19.175781 17.433594 19.4375 17.285156 19.6875 17.117188 L 20.371094 17.800781 C 20.515625 17.945312 20.753906 17.945312 20.898438 17.800781 L 22.390625 16.308594 C 22.535156 16.164062 22.535156 15.925781 22.390625 15.78125 L 21.707031 15.097656 C 21.742188 15.042969 21.78125 14.984375 21.8125 14.929688 L 24.429688 14.929688 C 24.582031 15.363281 25 15.675781 25.484375 15.675781 C 26.097656 15.675781 26.601562 15.171875 26.601562 14.554688 C 26.601562 13.941406 26.097656 13.4375 25.484375 13.4375 C 25 13.4375 24.582031 13.75 24.429688 14.183594 L 22.214844 14.183594 C 22.4375 13.707031 22.605469 13.203125 22.71875 12.691406 L 23.992188 12.691406 C 24.195312 12.691406 24.363281 12.523438 24.363281 12.316406 L 24.363281 10.078125 C 24.363281 9.875 24.195312 9.707031 23.992188 9.707031 L 22.714844 9.707031 C 22.53125 8.851562 22.1875 8.03125 21.703125 7.300781 L 22.386719 6.613281 C 22.53125 6.46875 22.53125 6.234375 22.386719 6.089844 L 20.894531 4.59375 C 20.75 4.449219 20.511719 4.449219 20.367188 4.59375 L 19.683594 5.28125 C 19.429688 5.117188 19.167969 4.96875 18.902344 4.832031 L 20.847656 1.5 L 22.191406 1.5 C 22.34375 1.933594 22.761719 2.246094 23.246094 2.246094 C 23.859375 2.246094 24.363281 1.742188 24.363281 1.125 C 24.363281 0.511719 23.859375 0.0078125 23.246094 0.0078125 C 22.761719 0.0078125 22.34375 0.320312 22.191406 0.753906 L 20.632812 0.753906 C 20.503906 0.753906 20.378906 0.824219 20.3125 0.941406 L 18.214844 4.539062 C 17.910156 4.425781 17.597656 4.339844 17.28125 4.269531 L 17.28125 2.992188 C 17.28125 2.785156 17.113281 2.617188 16.90625 2.617188 L 14.667969 2.617188 C 14.464844 2.617188 14.296875 2.785156 14.296875 2.992188 L 14.296875 4.269531 C 13.441406 4.449219 12.621094 4.796875 11.890625 5.28125 L 11.203125 4.59375 C 11.058594 4.449219 10.824219 4.449219 10.679688 4.59375 L 10.140625 5.121094 L 8.324219 3.910156 L 8.324219 2.179688 C 8.757812 2.027344 9.070312 1.609375 9.070312 1.125 C 9.070312 0.511719 8.566406 0.0078125 7.949219 0.0078125 C 7.335938 0.0078125 6.832031 0.511719 6.832031 1.125 C 6.832031 1.609375 7.144531 2.027344 7.578125 2.179688 L 7.578125 4.109375 C 7.578125 4.238281 7.636719 4.351562 7.746094 4.421875 L 9.605469 5.664062 L 9.179688 6.089844 C 9.035156 6.234375 9.035156 6.46875 9.179688 6.613281 L 9.867188 7.300781 C 9.386719 8.03125 9.039062 8.851562 8.855469 9.707031 L 7.578125 9.707031 C 7.371094 9.707031 7.203125 9.875 7.203125 10.078125 L 7.203125 12.316406 C 7.203125 12.523438 7.371094 12.691406 7.578125 12.691406 L 8.855469 12.691406 C 8.894531 12.878906 8.941406 13.058594 9 13.242188 L 5.855469 15.757812 C 5.765625 15.828125 5.714844 15.9375 5.714844 16.050781 L 5.714844 17.234375 C 5.28125 17.386719 4.96875 17.800781 4.96875 18.289062 C 4.964844 18.902344 5.46875 19.40625 6.085938 19.40625 Z M 21.378906 20.898438 C 21.585938 20.898438 21.753906 21.066406 21.753906 21.273438 C 21.753906 21.476562 21.585938 21.644531 21.378906 21.644531 C 21.175781 21.644531 21.007812 21.476562 21.007812 21.273438 C 21.007812 21.066406 21.175781 20.898438 21.378906 20.898438 Z M 25.484375 14.183594 C 25.6875 14.183594 25.855469 14.351562 25.855469 14.554688 C 25.855469 14.761719 25.6875 14.929688 25.484375 14.929688 C 25.277344 14.929688 25.109375 14.761719 25.109375 14.554688 C 25.109375 14.351562 25.277344 14.183594 25.484375 14.183594 Z M 23.246094 0.753906 C 23.449219 0.753906 23.617188 0.921875 23.617188 1.125 C 23.617188 1.332031 23.449219 1.5 23.246094 1.5 C 23.039062 1.5 22.871094 1.332031 22.871094 1.125 C 22.871094 0.921875 23.039062 0.753906 23.246094 0.753906 Z M 7.949219 1.5 C 7.746094 1.5 7.578125 1.332031 7.578125 1.125 C 7.578125 0.921875 7.746094 0.753906 7.949219 0.753906 C 8.15625 0.753906 8.324219 0.921875 8.324219 1.125 C 8.324219 1.332031 8.15625 1.5 7.949219 1.5 Z M 7.949219 11.945312 L 7.949219 10.453125 L 9.164062 10.453125 C 9.34375 10.453125 9.496094 10.320312 9.53125 10.140625 C 9.6875 9.183594 10.082031 8.261719 10.648438 7.472656 C 10.757812 7.324219 10.742188 7.117188 10.613281 6.988281 L 9.96875 6.347656 L 10.933594 5.382812 L 11.578125 6.027344 C 11.707031 6.15625 11.914062 6.171875 12.0625 6.066406 C 12.851562 5.492188 13.773438 5.105469 14.730469 4.945312 C 14.914062 4.917969 15.042969 4.757812 15.042969 4.578125 L 15.042969 3.363281 L 16.535156 3.363281 L 16.535156 4.578125 C 16.535156 4.757812 16.664062 4.914062 16.847656 4.945312 C 17.804688 5.105469 18.726562 5.496094 19.515625 6.066406 C 19.664062 6.171875 19.871094 6.15625 20 6.027344 L 20.644531 5.382812 L 21.609375 6.347656 L 20.964844 6.992188 C 20.835938 7.125 20.820312 7.328125 20.929688 7.476562 C 21.5 8.265625 21.886719 9.1875 22.046875 10.144531 C 22.074219 10.328125 22.234375 10.457031 22.414062 10.457031 L 23.628906 10.457031 L 23.628906 11.949219 L 22.414062 11.949219 C 22.234375 11.949219 22.078125 12.082031 22.046875 12.261719 C 21.886719 13.21875 21.496094 14.140625 20.929688 14.929688 C 20.820312 15.078125 20.835938 15.285156 20.964844 15.414062 L 21.609375 16.058594 L 20.632812 17.015625 L 19.992188 16.371094 C 19.859375 16.238281 19.65625 16.226562 19.503906 16.332031 C 18.71875 16.90625 17.792969 17.292969 16.839844 17.453125 C 16.65625 17.480469 16.527344 17.640625 16.527344 17.820312 L 16.527344 19.035156 L 15.035156 19.035156 L 15.035156 17.820312 C 15.035156 17.640625 14.902344 17.484375 14.722656 17.453125 C 13.765625 17.292969 12.839844 16.90625 12.054688 16.332031 C 11.902344 16.226562 11.699219 16.238281 11.570312 16.371094 L 10.933594 17.015625 L 9.96875 16.050781 L 10.613281 15.40625 C 10.742188 15.273438 10.757812 15.070312 10.648438 14.921875 C 10.078125 14.132812 9.6875 13.207031 9.53125 12.253906 C 9.503906 12.070312 9.34375 11.941406 9.164062 11.941406 L 7.949219 11.941406 Z M 6.085938 17.914062 C 6.289062 17.914062 6.457031 18.082031 6.457031 18.289062 C 6.457031 18.492188 6.289062 18.660156 6.085938 18.660156 C 5.878906 18.660156 5.710938 18.492188 5.710938 18.289062 C 5.710938 18.082031 5.878906 17.914062 6.085938 17.914062 Z M 6.085938 17.914062 " fill-opacity="1" fill-rule="nonzero"/></g></svg>