<svg xmlns="http://www.w3.org/2000/svg" xmlns:xlink="http://www.w3.org/1999/xlink" width="40" zoomAndPan="magnify" viewBox="0 0 30 30.000001" height="40" preserveAspectRatio="xMidYMid meet" version="1.0"><defs><g/><clipPath id="93b7fde4df"><path d="M 9 21 L 21 21 L 21 29.03125 L 9 29.03125 Z M 9 21 " clip-rule="nonzero"/></clipPath><clipPath id="7421c1d5a4"><path d="M 0.542969 2 L 6 2 L 6 7 L 0.542969 7 Z M 0.542969 2 " clip-rule="nonzero"/></clipPath><clipPath id="023d179ce7"><rect x="0" width="12" y="0" height="9"/></clipPath><clipPath id="7fbfb27ce8"><path d="M 4.925781 0 L 25.25 0 L 25.25 21.046875 L 4.925781 21.046875 Z M 4.925781 0 " clip-rule="nonzero"/></clipPath></defs><g clip-path="url(#93b7fde4df)"><g transform="matrix(1, 0, 0, 1, 9, 21)"><g clip-path="url(#023d179ce7)"><g clip-path="url(#7421c1d5a4)"><g fill="#000000" fill-opacity="1"><g transform="translate(0.568186, 6.541013)"><g><path d="M 3.484375 -1.171875 L 1.03125 -1.171875 L 0.5 0 L 0.015625 0 L 2.03125 -4.40625 L 2.484375 -4.40625 L 4.5 0 L 4.015625 0 Z M 3.3125 -1.5625 L 2.25 -3.921875 L 1.203125 -1.5625 Z M 3.3125 -1.5625 "/></g></g></g></g><g fill="#000000" fill-opacity="1"><g transform="translate(5.078386, 6.541013)"><g><path d="M 2.375 -4.40625 C 2.9375 -4.40625 3.375 -4.269531 3.6875 -4 C 4.007812 -3.738281 4.171875 -3.367188 4.171875 -2.890625 C 4.171875 -2.421875 4.007812 -2.050781 3.6875 -1.78125 C 3.375 -1.519531 2.9375 -1.390625 2.375 -1.390625 L 1.1875 -1.390625 L 1.1875 0 L 0.71875 0 L 0.71875 -4.40625 Z M 2.359375 -1.796875 C 2.796875 -1.796875 3.128906 -1.890625 3.359375 -2.078125 C 3.585938 -2.273438 3.703125 -2.546875 3.703125 -2.890625 C 3.703125 -3.253906 3.585938 -3.53125 3.359375 -3.71875 C 3.128906 -3.90625 2.796875 -4 2.359375 -4 L 1.1875 -4 L 1.1875 -1.796875 Z M 2.359375 -1.796875 "/></g></g></g><g fill="#000000" fill-opacity="1"><g transform="translate(9.531973, 6.541013)"><g><path d="M 0.71875 -4.40625 L 1.1875 -4.40625 L 1.1875 0 L 0.71875 0 Z M 0.71875 -4.40625 "/></g></g></g></g></g></g><path fill="#000000" d="M 15.089844 12.277344 C 15.28125 12.277344 15.4375 12.121094 15.4375 11.925781 L 15.4375 10.875 L 15.789062 10.875 C 16.367188 10.875 16.839844 10.402344 16.839844 9.824219 C 16.839844 9.246094 16.367188 8.769531 15.789062 8.769531 L 15.089844 8.769531 C 14.894531 8.769531 14.738281 8.929688 14.738281 9.121094 L 14.738281 11.925781 C 14.738281 12.121094 14.894531 12.277344 15.089844 12.277344 Z M 15.4375 9.472656 L 15.789062 9.472656 C 15.980469 9.472656 16.140625 9.628906 16.140625 9.824219 C 16.140625 10.015625 15.980469 10.171875 15.789062 10.171875 L 15.4375 10.171875 Z M 15.4375 9.472656 " fill-opacity="1" fill-rule="nonzero"/><path fill="#000000" d="M 17.890625 12.277344 C 18.082031 12.277344 18.242188 12.121094 18.242188 11.925781 L 18.242188 9.121094 C 18.242188 8.929688 18.082031 8.769531 17.890625 8.769531 C 17.699219 8.769531 17.539062 8.929688 17.539062 9.121094 L 17.539062 11.925781 C 17.539062 12.121094 17.699219 12.277344 17.890625 12.277344 Z M 17.890625 12.277344 " fill-opacity="1" fill-rule="nonzero"/><path fill="#000000" d="M 12.285156 12.277344 C 12.476562 12.277344 12.636719 12.121094 12.636719 11.925781 L 12.636719 10.875 L 13.335938 10.875 L 13.335938 11.925781 C 13.335938 12.121094 13.492188 12.277344 13.6875 12.277344 C 13.878906 12.277344 14.035156 12.121094 14.035156 11.925781 L 14.035156 9.824219 C 14.035156 9.246094 13.5625 8.769531 12.984375 8.769531 C 12.40625 8.769531 11.933594 9.246094 11.933594 9.824219 L 11.933594 11.925781 C 11.933594 12.121094 12.09375 12.277344 12.285156 12.277344 Z M 12.636719 9.824219 C 12.636719 9.628906 12.792969 9.472656 12.984375 9.472656 C 13.179688 9.472656 13.335938 9.628906 13.335938 9.824219 L 13.335938 10.171875 L 12.636719 10.171875 Z M 12.636719 9.824219 " fill-opacity="1" fill-rule="nonzero"/><path fill="#000000" d="M 15.089844 15.785156 C 17.988281 15.785156 20.34375 13.425781 20.34375 10.523438 C 20.34375 7.621094 17.988281 5.265625 15.089844 5.265625 C 12.1875 5.265625 9.832031 7.621094 9.832031 10.523438 C 9.832031 13.425781 12.1875 15.785156 15.089844 15.785156 Z M 15.089844 5.964844 C 17.597656 5.964844 19.644531 8.011719 19.644531 10.523438 C 19.644531 13.035156 17.597656 15.082031 15.089844 15.082031 C 12.578125 15.082031 10.53125 13.035156 10.53125 10.523438 C 10.53125 8.011719 12.578125 5.964844 15.089844 5.964844 Z M 15.089844 5.964844 " fill-opacity="1" fill-rule="nonzero"/><g clip-path="url(#7fbfb27ce8)"><path fill="#000000" d="M 5.976562 18.238281 C 6.554688 18.238281 7.027344 17.765625 7.027344 17.1875 C 7.027344 16.730469 6.734375 16.339844 6.328125 16.195312 L 6.328125 15.253906 L 8.964844 13.140625 C 9.121094 13.503906 9.3125 13.859375 9.53125 14.1875 L 8.886719 14.832031 C 8.75 14.96875 8.75 15.191406 8.886719 15.328125 L 10.289062 16.730469 C 10.421875 16.867188 10.648438 16.867188 10.78125 16.730469 L 11.425781 16.085938 C 12.113281 16.539062 12.886719 16.863281 13.6875 17.039062 L 13.6875 18.238281 C 13.6875 18.429688 13.84375 18.589844 14.035156 18.589844 L 16.140625 18.589844 C 16.332031 18.589844 16.488281 18.429688 16.488281 18.238281 L 16.488281 17.039062 C 16.78125 16.976562 17.070312 16.894531 17.351562 16.789062 L 17.894531 20.050781 C 17.921875 20.21875 18.070312 20.34375 18.242188 20.34375 L 19.355469 20.34375 C 19.5 20.75 19.886719 21.042969 20.34375 21.042969 C 20.921875 21.042969 21.394531 20.570312 21.394531 19.992188 C 21.394531 19.414062 20.921875 18.941406 20.34375 18.941406 C 19.886719 18.941406 19.5 19.234375 19.355469 19.640625 L 18.539062 19.640625 L 18.019531 16.507812 C 18.273438 16.382812 18.515625 16.246094 18.753906 16.085938 L 19.398438 16.730469 C 19.535156 16.867188 19.757812 16.867188 19.894531 16.730469 L 21.292969 15.328125 C 21.429688 15.191406 21.429688 14.96875 21.292969 14.832031 L 20.652344 14.1875 C 20.683594 14.136719 20.71875 14.082031 20.75 14.03125 L 23.207031 14.03125 C 23.351562 14.4375 23.742188 14.730469 24.199219 14.730469 C 24.777344 14.730469 25.25 14.257812 25.25 13.679688 C 25.25 13.101562 24.777344 12.628906 24.199219 12.628906 C 23.742188 12.628906 23.351562 12.921875 23.207031 13.328125 L 21.128906 13.328125 C 21.339844 12.882812 21.496094 12.410156 21.601562 11.925781 L 22.796875 11.925781 C 22.988281 11.925781 23.148438 11.769531 23.148438 11.578125 L 23.148438 9.472656 C 23.148438 9.28125 22.988281 9.121094 22.796875 9.121094 L 21.597656 9.121094 C 21.425781 8.320312 21.101562 7.546875 20.644531 6.859375 L 21.289062 6.214844 C 21.425781 6.078125 21.425781 5.855469 21.289062 5.71875 L 19.886719 4.316406 C 19.753906 4.179688 19.527344 4.179688 19.394531 4.316406 L 18.75 4.960938 C 18.511719 4.808594 18.269531 4.667969 18.019531 4.542969 L 19.84375 1.40625 L 21.105469 1.40625 C 21.25 1.816406 21.640625 2.109375 22.097656 2.109375 C 22.675781 2.109375 23.148438 1.636719 23.148438 1.054688 C 23.148438 0.476562 22.675781 0.00390625 22.097656 0.00390625 C 21.640625 0.00390625 21.25 0.296875 21.105469 0.707031 L 19.644531 0.707031 C 19.519531 0.707031 19.402344 0.769531 19.339844 0.882812 L 17.371094 4.265625 C 17.085938 4.160156 16.792969 4.078125 16.492188 4.011719 L 16.492188 2.808594 C 16.492188 2.617188 16.335938 2.457031 16.144531 2.457031 L 14.042969 2.457031 C 13.847656 2.457031 13.691406 2.617188 13.691406 2.808594 L 13.691406 4.011719 C 12.890625 4.179688 12.117188 4.507812 11.429688 4.960938 L 10.785156 4.316406 C 10.652344 4.179688 10.429688 4.179688 10.292969 4.316406 L 9.789062 4.8125 L 8.082031 3.671875 L 8.082031 2.046875 C 8.488281 1.902344 8.78125 1.511719 8.78125 1.054688 C 8.78125 0.476562 8.308594 0.00390625 7.730469 0.00390625 C 7.152344 0.00390625 6.679688 0.476562 6.679688 1.054688 C 6.679688 1.511719 6.972656 1.902344 7.378906 2.046875 L 7.378906 3.863281 C 7.378906 3.980469 7.4375 4.089844 7.539062 4.15625 L 9.285156 5.320312 L 8.886719 5.71875 C 8.75 5.855469 8.75 6.078125 8.886719 6.214844 L 9.53125 6.859375 C 9.078125 7.546875 8.753906 8.320312 8.578125 9.121094 L 7.378906 9.121094 C 7.1875 9.121094 7.027344 9.28125 7.027344 9.472656 L 7.027344 11.578125 C 7.027344 11.769531 7.1875 11.925781 7.378906 11.925781 L 8.578125 11.925781 C 8.617188 12.101562 8.664062 12.273438 8.714844 12.445312 L 5.761719 14.8125 C 5.679688 14.875 5.632812 14.976562 5.632812 15.082031 L 5.632812 16.195312 C 5.222656 16.339844 4.929688 16.730469 4.929688 17.1875 C 4.925781 17.765625 5.398438 18.238281 5.976562 18.238281 Z M 20.34375 19.640625 C 20.535156 19.640625 20.695312 19.800781 20.695312 19.992188 C 20.695312 20.183594 20.535156 20.34375 20.34375 20.34375 C 20.152344 20.34375 19.992188 20.183594 19.992188 19.992188 C 19.992188 19.800781 20.152344 19.640625 20.34375 19.640625 Z M 24.199219 13.328125 C 24.390625 13.328125 24.546875 13.488281 24.546875 13.679688 C 24.546875 13.871094 24.390625 14.03125 24.199219 14.03125 C 24.003906 14.03125 23.847656 13.871094 23.847656 13.679688 C 23.847656 13.488281 24.003906 13.328125 24.199219 13.328125 Z M 22.097656 0.707031 C 22.289062 0.707031 22.445312 0.863281 22.445312 1.054688 C 22.445312 1.25 22.289062 1.40625 22.097656 1.40625 C 21.902344 1.40625 21.746094 1.25 21.746094 1.054688 C 21.746094 0.863281 21.902344 0.707031 22.097656 0.707031 Z M 7.730469 1.40625 C 7.539062 1.40625 7.378906 1.25 7.378906 1.054688 C 7.378906 0.863281 7.539062 0.707031 7.730469 0.707031 C 7.921875 0.707031 8.082031 0.863281 8.082031 1.054688 C 8.082031 1.25 7.921875 1.40625 7.730469 1.40625 Z M 7.730469 11.226562 L 7.730469 9.824219 L 8.867188 9.824219 C 9.039062 9.824219 9.183594 9.699219 9.214844 9.527344 C 9.363281 8.628906 9.730469 7.761719 10.265625 7.023438 C 10.367188 6.882812 10.351562 6.6875 10.230469 6.566406 L 9.625 5.964844 L 10.53125 5.058594 L 11.136719 5.664062 C 11.261719 5.785156 11.453125 5.800781 11.59375 5.699219 C 12.332031 5.160156 13.199219 4.796875 14.097656 4.644531 C 14.269531 4.621094 14.390625 4.472656 14.390625 4.300781 L 14.390625 3.160156 L 15.792969 3.160156 L 15.792969 4.300781 C 15.792969 4.472656 15.914062 4.617188 16.085938 4.644531 C 16.984375 4.796875 17.851562 5.164062 18.59375 5.699219 C 18.730469 5.800781 18.925781 5.785156 19.046875 5.664062 L 19.652344 5.058594 L 20.558594 5.964844 L 19.953125 6.570312 C 19.832031 6.691406 19.816406 6.886719 19.917969 7.027344 C 20.457031 7.765625 20.820312 8.636719 20.96875 9.535156 C 20.996094 9.703125 21.144531 9.828125 21.316406 9.828125 L 22.453125 9.828125 L 22.453125 11.230469 L 21.316406 11.230469 C 21.144531 11.230469 21 11.351562 20.96875 11.523438 C 20.820312 12.421875 20.453125 13.289062 19.917969 14.03125 C 19.816406 14.171875 19.832031 14.363281 19.953125 14.488281 L 20.558594 15.089844 L 19.644531 15.988281 L 19.039062 15.386719 C 18.917969 15.261719 18.722656 15.25 18.582031 15.351562 C 17.84375 15.890625 16.976562 16.253906 16.078125 16.402344 C 15.90625 16.429688 15.785156 16.578125 15.785156 16.75 L 15.785156 17.886719 L 14.382812 17.886719 L 14.382812 16.75 C 14.382812 16.578125 14.261719 16.433594 14.089844 16.402344 C 13.191406 16.253906 12.324219 15.890625 11.585938 15.351562 C 11.445312 15.25 11.25 15.261719 11.128906 15.386719 L 10.53125 15.988281 L 9.625 15.082031 L 10.230469 14.476562 C 10.351562 14.355469 10.367188 14.164062 10.265625 14.023438 C 9.726562 13.28125 9.363281 12.414062 9.214844 11.515625 C 9.1875 11.34375 9.039062 11.222656 8.867188 11.222656 L 7.730469 11.222656 Z M 5.976562 16.835938 C 6.171875 16.835938 6.328125 16.992188 6.328125 17.1875 C 6.328125 17.378906 6.171875 17.539062 5.976562 17.539062 C 5.785156 17.539062 5.628906 17.378906 5.628906 17.1875 C 5.628906 16.992188 5.785156 16.835938 5.976562 16.835938 Z M 5.976562 16.835938 " fill-opacity="1" fill-rule="nonzero"/></g></svg>