<svg xmlns="http://www.w3.org/2000/svg" xmlns:xlink="http://www.w3.org/1999/xlink" width="40" zoomAndPan="magnify" viewBox="0 0 30 30.000001" height="40" preserveAspectRatio="xMidYMid meet" version="1.0"><defs><g/><clipPath id="102228db32"><path d="M 6 4 L 24 4 L 24 23.953125 L 6 23.953125 Z M 6 4 " clip-rule="nonzero"/></clipPath><clipPath id="057c954c22"><path d="M 2.414062 0 L 27.816406 0 L 27.816406 13 L 2.414062 13 Z M 2.414062 0 " clip-rule="nonzero"/></clipPath><clipPath id="2eb8bc7212"><path d="M 8 23 L 23 23 L 23 29.03125 L 8 29.03125 Z M 8 23 " clip-rule="nonzero"/></clipPath><clipPath id="a2d9563d06"><path d="M 0.378906 1 L 14 1 L 14 5 L 0.378906 5 Z M 0.378906 1 " clip-rule="nonzero"/></clipPath><clipPath id="ca5af439aa"><rect x="0" width="15" y="0" height="7"/></clipPath></defs><g clip-path="url(#102228db32)"><path fill="#ff9b57" d="M 23.832031 12.105469 Z M 23.832031 12.105469 L 15 4.285156 L 6.160156 12.109375 L 6.160156 23.289062 C 6.160156 23.578125 6.394531 23.8125 6.683594 23.8125 L 12.207031 23.8125 L 12.207031 18.910156 C 12.207031 18.621094 12.4375 18.386719 12.726562 18.386719 L 17.265625 18.386719 C 17.554688 18.386719 17.785156 18.621094 17.785156 18.910156 L 17.785156 23.8125 L 23.308594 23.8125 C 23.597656 23.8125 23.828125 23.578125 23.828125 23.289062 L 23.828125 12.105469 Z M 6.160156 12.109375 Z M 6.160156 12.109375 " fill-opacity="1" fill-rule="nonzero"/></g><g clip-path="url(#057c954c22)"><path fill="#ff9b57" d="M 14.945312 0.00390625 L 2.414062 11.101562 L 3.734375 12.589844 L 15 2.617188 L 26.261719 12.589844 L 27.578125 11.101562 L 15.046875 0.00390625 L 15 0.0585938 Z M 14.945312 0.00390625 " fill-opacity="1" fill-rule="nonzero"/></g><path fill="#ff9b57" d="M 6.160156 1.601562 L 9.339844 1.601562 L 9.3125 3.484375 L 6.160156 6.328125 Z M 6.160156 1.601562 " fill-opacity="1" fill-rule="nonzero"/><g clip-path="url(#2eb8bc7212)"><g transform="matrix(1, 0, 0, 1, 8, 23)"><g clip-path="url(#ca5af439aa)"><g clip-path="url(#a2d9563d06)"><g fill="#000000" fill-opacity="1"><g transform="translate(0.546384, 4.902651)"><g><path d="M 0.390625 0 L 0.390625 -3.46875 L 0.84375 -3.46875 L 0.84375 -2.046875 L 2.65625 -2.046875 L 2.65625 -3.46875 L 3.109375 -3.46875 L 3.109375 0 L 2.65625 0 L 2.65625 -1.640625 L 0.84375 -1.640625 L 0.84375 0 Z M 0.390625 0 "/></g></g><g transform="translate(4.040744, 4.902651)"><g><path d="M 0.15625 -1.25 C 0.15625 -1.71875 0.285156 -2.066406 0.546875 -2.296875 C 0.765625 -2.472656 1.03125 -2.5625 1.34375 -2.5625 C 1.6875 -2.5625 1.96875 -2.445312 2.1875 -2.21875 C 2.40625 -2 2.515625 -1.691406 2.515625 -1.296875 C 2.515625 -0.972656 2.460938 -0.71875 2.359375 -0.53125 C 2.265625 -0.34375 2.125 -0.195312 1.9375 -0.09375 C 1.757812 0.0078125 1.5625 0.0625 1.34375 0.0625 C 0.988281 0.0625 0.703125 -0.0507812 0.484375 -0.28125 C 0.265625 -0.507812 0.15625 -0.832031 0.15625 -1.25 Z M 0.59375 -1.25 C 0.59375 -0.925781 0.660156 -0.6875 0.796875 -0.53125 C 0.941406 -0.375 1.125 -0.296875 1.34375 -0.296875 C 1.550781 -0.296875 1.722656 -0.375 1.859375 -0.53125 C 2.003906 -0.695312 2.078125 -0.941406 2.078125 -1.265625 C 2.078125 -1.578125 2.003906 -1.8125 1.859375 -1.96875 C 1.722656 -2.132812 1.550781 -2.21875 1.34375 -2.21875 C 1.125 -2.21875 0.941406 -2.132812 0.796875 -1.96875 C 0.660156 -1.8125 0.59375 -1.570312 0.59375 -1.25 Z M 0.59375 -1.25 "/></g></g><g transform="translate(6.731803, 4.902651)"><g><path d="M 0.3125 0 L 0.3125 -2.515625 L 0.703125 -2.515625 L 0.703125 -2.15625 C 0.773438 -2.28125 0.878906 -2.378906 1.015625 -2.453125 C 1.148438 -2.523438 1.300781 -2.5625 1.46875 -2.5625 C 1.644531 -2.5625 1.789062 -2.523438 1.90625 -2.453125 C 2.03125 -2.378906 2.117188 -2.269531 2.171875 -2.125 C 2.367188 -2.414062 2.628906 -2.5625 2.953125 -2.5625 C 3.203125 -2.5625 3.390625 -2.492188 3.515625 -2.359375 C 3.648438 -2.222656 3.71875 -2.007812 3.71875 -1.71875 L 3.71875 0 L 3.296875 0 L 3.296875 -1.578125 C 3.296875 -1.753906 3.28125 -1.878906 3.25 -1.953125 C 3.226562 -2.023438 3.179688 -2.082031 3.109375 -2.125 C 3.035156 -2.175781 2.953125 -2.203125 2.859375 -2.203125 C 2.679688 -2.203125 2.53125 -2.140625 2.40625 -2.015625 C 2.289062 -1.898438 2.234375 -1.710938 2.234375 -1.453125 L 2.234375 0 L 1.8125 0 L 1.8125 -1.625 C 1.8125 -1.820312 1.773438 -1.96875 1.703125 -2.0625 C 1.640625 -2.15625 1.523438 -2.203125 1.359375 -2.203125 C 1.242188 -2.203125 1.132812 -2.171875 1.03125 -2.109375 C 0.925781 -2.046875 0.851562 -1.953125 0.8125 -1.828125 C 0.769531 -1.703125 0.75 -1.523438 0.75 -1.296875 L 0.75 0 Z M 0.3125 0 "/></g></g><g transform="translate(10.762485, 4.902651)"><g><path d="M 2.03125 -0.8125 L 2.484375 -0.75 C 2.410156 -0.5 2.28125 -0.300781 2.09375 -0.15625 C 1.90625 -0.0078125 1.664062 0.0625 1.375 0.0625 C 1.007812 0.0625 0.71875 -0.0507812 0.5 -0.28125 C 0.28125 -0.507812 0.171875 -0.828125 0.171875 -1.234375 C 0.171875 -1.660156 0.28125 -1.988281 0.5 -2.21875 C 0.71875 -2.445312 1 -2.5625 1.34375 -2.5625 C 1.6875 -2.5625 1.960938 -2.445312 2.171875 -2.21875 C 2.390625 -1.988281 2.5 -1.671875 2.5 -1.265625 C 2.5 -1.234375 2.492188 -1.191406 2.484375 -1.140625 L 0.625 -1.140625 C 0.632812 -0.867188 0.707031 -0.660156 0.84375 -0.515625 C 0.988281 -0.367188 1.164062 -0.296875 1.375 -0.296875 C 1.53125 -0.296875 1.660156 -0.335938 1.765625 -0.421875 C 1.878906 -0.503906 1.96875 -0.632812 2.03125 -0.8125 Z M 0.640625 -1.5 L 2.046875 -1.5 C 2.023438 -1.707031 1.96875 -1.863281 1.875 -1.96875 C 1.738281 -2.132812 1.566406 -2.21875 1.359375 -2.21875 C 1.160156 -2.21875 0.992188 -2.148438 0.859375 -2.015625 C 0.722656 -1.890625 0.648438 -1.71875 0.640625 -1.5 Z M 0.640625 -1.5 "/></g></g></g></g></g></g></g></svg>