<svg xmlns="http://www.w3.org/2000/svg" xmlns:xlink="http://www.w3.org/1999/xlink" width="40" zoomAndPan="magnify" viewBox="0 0 30 30.000001" height="40" preserveAspectRatio="xMidYMid meet" version="1.0"><defs><g/><clipPath id="2113cb1239"><path d="M 6 3 L 24 3 L 24 21.773438 L 6 21.773438 Z M 6 3 " clip-rule="nonzero"/></clipPath><clipPath id="62df218846"><path d="M 3.386719 0 L 26.613281 0 L 26.613281 12 L 3.386719 12 Z M 3.386719 0 " clip-rule="nonzero"/></clipPath><clipPath id="056e6c48c3"><path d="M 5 21 L 26 21 L 26 29.03125 L 5 29.03125 Z M 5 21 " clip-rule="nonzero"/></clipPath><clipPath id="ca91399829"><path d="M 0.128906 2 L 5 2 L 5 7 L 0.128906 7 Z M 0.128906 2 " clip-rule="nonzero"/></clipPath><clipPath id="c67ee75c8d"><rect x="0" width="21" y="0" height="9"/></clipPath></defs><g clip-path="url(#2113cb1239)"><path fill="#000000" d="M 23.152344 11.066406 Z M 23.152344 11.066406 L 15.003906 3.914062 L 6.847656 11.070312 L 6.847656 21.296875 C 6.847656 21.5625 7.0625 21.773438 7.332031 21.773438 L 12.425781 21.773438 L 12.425781 17.289062 C 12.425781 17.023438 12.640625 16.8125 12.90625 16.8125 L 17.09375 16.8125 C 17.359375 16.8125 17.574219 17.023438 17.574219 17.289062 L 17.574219 21.773438 L 22.671875 21.773438 C 22.9375 21.773438 23.152344 21.5625 23.152344 21.296875 Z M 6.847656 11.070312 Z M 6.847656 11.070312 " fill-opacity="1" fill-rule="nonzero"/></g><g clip-path="url(#62df218846)"><path fill="#000000" d="M 14.953125 0 L 3.390625 10.148438 L 4.609375 11.511719 L 15.003906 2.390625 L 25.394531 11.511719 L 26.609375 10.148438 L 15.046875 0 L 15.003906 0.0507812 L 14.957031 0 Z M 14.953125 0 " fill-opacity="1" fill-rule="nonzero"/></g><path fill="#000000" d="M 6.847656 1.460938 L 9.78125 1.460938 L 9.753906 3.183594 L 6.847656 5.785156 Z M 6.847656 1.460938 " fill-opacity="1" fill-rule="nonzero"/><g clip-path="url(#056e6c48c3)"><g transform="matrix(1, 0, 0, 1, 5, 21)"><g clip-path="url(#c67ee75c8d)"><g clip-path="url(#ca91399829)"><g fill="#000000" fill-opacity="1"><g transform="translate(0.227218, 6.541012)"><g><path d="M 4.40625 -4.40625 L 4.40625 0 L 3.9375 0 L 3.9375 -2.03125 L 1.1875 -2.03125 L 1.1875 0 L 0.71875 0 L 0.71875 -4.40625 L 1.1875 -4.40625 L 1.1875 -2.4375 L 3.9375 -2.4375 L 3.9375 -4.40625 Z M 4.40625 -4.40625 "/></g></g></g></g><g fill="#000000" fill-opacity="1"><g transform="translate(5.341287, 6.541012)"><g><path d="M 1.984375 0.03125 C 1.660156 0.03125 1.367188 -0.0390625 1.109375 -0.1875 C 0.859375 -0.332031 0.660156 -0.53125 0.515625 -0.78125 C 0.367188 -1.039062 0.296875 -1.332031 0.296875 -1.65625 C 0.296875 -1.976562 0.367188 -2.265625 0.515625 -2.515625 C 0.660156 -2.773438 0.859375 -2.976562 1.109375 -3.125 C 1.367188 -3.269531 1.660156 -3.34375 1.984375 -3.34375 C 2.296875 -3.34375 2.578125 -3.269531 2.828125 -3.125 C 3.085938 -2.976562 3.289062 -2.773438 3.4375 -2.515625 C 3.582031 -2.265625 3.65625 -1.976562 3.65625 -1.65625 C 3.65625 -1.332031 3.582031 -1.039062 3.4375 -0.78125 C 3.289062 -0.53125 3.085938 -0.332031 2.828125 -0.1875 C 2.578125 -0.0390625 2.296875 0.03125 1.984375 0.03125 Z M 1.984375 -0.359375 C 2.210938 -0.359375 2.421875 -0.410156 2.609375 -0.515625 C 2.796875 -0.628906 2.941406 -0.785156 3.046875 -0.984375 C 3.148438 -1.179688 3.203125 -1.40625 3.203125 -1.65625 C 3.203125 -1.90625 3.148438 -2.128906 3.046875 -2.328125 C 2.941406 -2.523438 2.796875 -2.675781 2.609375 -2.78125 C 2.421875 -2.894531 2.210938 -2.953125 1.984375 -2.953125 C 1.742188 -2.953125 1.53125 -2.894531 1.34375 -2.78125 C 1.15625 -2.675781 1.007812 -2.523438 0.90625 -2.328125 C 0.800781 -2.128906 0.75 -1.90625 0.75 -1.65625 C 0.75 -1.40625 0.800781 -1.179688 0.90625 -0.984375 C 1.007812 -0.785156 1.15625 -0.628906 1.34375 -0.515625 C 1.53125 -0.410156 1.742188 -0.359375 1.984375 -0.359375 Z M 1.984375 -0.359375 "/></g></g></g><g fill="#000000" fill-opacity="1"><g transform="translate(9.285344, 6.541012)"><g><path d="M 4.75 -3.34375 C 5.164062 -3.34375 5.492188 -3.222656 5.734375 -2.984375 C 5.972656 -2.742188 6.09375 -2.390625 6.09375 -1.921875 L 6.09375 0 L 5.640625 0 L 5.640625 -1.875 C 5.640625 -2.21875 5.554688 -2.476562 5.390625 -2.65625 C 5.222656 -2.84375 4.988281 -2.9375 4.6875 -2.9375 C 4.34375 -2.9375 4.070312 -2.828125 3.875 -2.609375 C 3.675781 -2.398438 3.578125 -2.109375 3.578125 -1.734375 L 3.578125 0 L 3.140625 0 L 3.140625 -1.875 C 3.140625 -2.21875 3.054688 -2.476562 2.890625 -2.65625 C 2.722656 -2.84375 2.484375 -2.9375 2.171875 -2.9375 C 1.835938 -2.9375 1.570312 -2.828125 1.375 -2.609375 C 1.175781 -2.398438 1.078125 -2.109375 1.078125 -1.734375 L 1.078125 0 L 0.625 0 L 0.625 -3.3125 L 1.046875 -3.3125 L 1.046875 -2.703125 C 1.171875 -2.910156 1.335938 -3.066406 1.546875 -3.171875 C 1.753906 -3.285156 1.992188 -3.34375 2.265625 -3.34375 C 2.546875 -3.34375 2.785156 -3.28125 2.984375 -3.15625 C 3.191406 -3.039062 3.34375 -2.867188 3.4375 -2.640625 C 3.5625 -2.859375 3.738281 -3.03125 3.96875 -3.15625 C 4.195312 -3.28125 4.457031 -3.34375 4.75 -3.34375 Z M 4.75 -3.34375 "/></g></g></g><g fill="#000000" fill-opacity="1"><g transform="translate(15.972001, 6.541012)"><g><path d="M 3.5 -1.515625 L 0.734375 -1.515625 C 0.765625 -1.171875 0.898438 -0.890625 1.140625 -0.671875 C 1.378906 -0.460938 1.679688 -0.359375 2.046875 -0.359375 C 2.242188 -0.359375 2.425781 -0.394531 2.59375 -0.46875 C 2.769531 -0.539062 2.921875 -0.648438 3.046875 -0.796875 L 3.3125 -0.515625 C 3.15625 -0.335938 2.96875 -0.203125 2.75 -0.109375 C 2.53125 -0.015625 2.289062 0.03125 2.03125 0.03125 C 1.6875 0.03125 1.382812 -0.0390625 1.125 -0.1875 C 0.863281 -0.332031 0.660156 -0.53125 0.515625 -0.78125 C 0.367188 -1.039062 0.296875 -1.332031 0.296875 -1.65625 C 0.296875 -1.976562 0.363281 -2.265625 0.5 -2.515625 C 0.644531 -2.773438 0.835938 -2.976562 1.078125 -3.125 C 1.328125 -3.269531 1.601562 -3.34375 1.90625 -3.34375 C 2.21875 -3.34375 2.492188 -3.269531 2.734375 -3.125 C 2.972656 -2.976562 3.160156 -2.773438 3.296875 -2.515625 C 3.441406 -2.265625 3.515625 -1.976562 3.515625 -1.65625 Z M 1.90625 -2.953125 C 1.582031 -2.953125 1.3125 -2.847656 1.09375 -2.640625 C 0.882812 -2.441406 0.765625 -2.175781 0.734375 -1.84375 L 3.078125 -1.84375 C 3.054688 -2.175781 2.9375 -2.441406 2.71875 -2.640625 C 2.5 -2.847656 2.226562 -2.953125 1.90625 -2.953125 Z M 1.90625 -2.953125 "/></g></g></g></g></g></g></svg>