<svg xmlns="http://www.w3.org/2000/svg" xmlns:xlink="http://www.w3.org/1999/xlink" width="40" zoomAndPan="magnify" viewBox="0 0 30 30.000001" height="40" preserveAspectRatio="xMidYMid meet" version="1.0"><defs><g/><clipPath id="b99f8c1a38"><path d="M 7 3 L 24 3 L 24 21.773438 L 7 21.773438 Z M 7 3 " clip-rule="nonzero"/></clipPath><clipPath id="40b3dcfde7"><path d="M 3.804688 0 L 26.304688 0 L 26.304688 12 L 3.804688 12 Z M 3.804688 0 " clip-rule="nonzero"/></clipPath><clipPath id="69a0066dcd"><path d="M 6 22 L 24 22 L 24 29.03125 L 6 29.03125 Z M 6 22 " clip-rule="nonzero"/></clipPath><clipPath id="0356feaa2c"><path d="M 1 1 L 17.710938 1 L 17.710938 7 L 1 7 Z M 1 1 " clip-rule="nonzero"/></clipPath><clipPath id="9407893bd5"><rect x="0" width="18" y="0" height="8"/></clipPath></defs><g clip-path="url(#b99f8c1a38)"><path fill="#ff9b57" d="M 23.214844 10.96875 Z M 23.214844 10.96875 L 15.210938 3.882812 L 7.203125 10.972656 L 7.203125 21.105469 C 7.203125 21.367188 7.414062 21.578125 7.675781 21.578125 L 12.679688 21.578125 L 12.679688 17.136719 C 12.679688 16.875 12.890625 16.660156 13.152344 16.660156 L 17.265625 16.660156 C 17.527344 16.660156 17.734375 16.875 17.734375 17.136719 L 17.734375 21.578125 L 22.742188 21.578125 C 23.003906 21.578125 23.214844 21.367188 23.214844 21.105469 Z M 7.203125 10.972656 Z M 7.203125 10.972656 " fill-opacity="1" fill-rule="nonzero"/></g><g clip-path="url(#40b3dcfde7)"><path fill="#ff9b57" d="M 15.164062 0.00390625 L 3.804688 10.058594 L 5 11.410156 L 15.210938 2.371094 L 25.417969 11.410156 L 26.609375 10.058594 L 15.253906 0.00390625 L 15.210938 0.0546875 Z M 15.164062 0.00390625 " fill-opacity="1" fill-rule="nonzero"/></g><path fill="#ff9b57" d="M 7.203125 1.449219 L 10.082031 1.449219 L 10.054688 3.15625 L 7.203125 5.734375 Z M 7.203125 1.449219 " fill-opacity="1" fill-rule="nonzero"/><g clip-path="url(#69a0066dcd)"><g transform="matrix(1, 0, 0, 1, 6, 22)"><g clip-path="url(#9407893bd5)"><g clip-path="url(#0356feaa2c)"><g fill="#000000" fill-opacity="1"><g transform="translate(0.609583, 6.065206)"><g><path d="M 0.5 0 L 0.5 -4.5 L 1.09375 -4.5 L 1.09375 -2.65625 L 3.4375 -2.65625 L 3.4375 -4.5 L 4.046875 -4.5 L 4.046875 0 L 3.4375 0 L 3.4375 -2.125 L 1.09375 -2.125 L 1.09375 0 Z M 0.5 0 "/></g></g><g transform="translate(5.152251, 6.065206)"><g><path d="M 0.203125 -1.625 C 0.203125 -2.238281 0.375 -2.6875 0.71875 -2.96875 C 1 -3.21875 1.335938 -3.34375 1.734375 -3.34375 C 2.179688 -3.34375 2.546875 -3.191406 2.828125 -2.890625 C 3.117188 -2.597656 3.265625 -2.191406 3.265625 -1.671875 C 3.265625 -1.253906 3.203125 -0.925781 3.078125 -0.6875 C 2.953125 -0.445312 2.769531 -0.257812 2.53125 -0.125 C 2.289062 0.0078125 2.023438 0.078125 1.734375 0.078125 C 1.273438 0.078125 0.90625 -0.0664062 0.625 -0.359375 C 0.34375 -0.660156 0.203125 -1.082031 0.203125 -1.625 Z M 0.78125 -1.625 C 0.78125 -1.207031 0.867188 -0.894531 1.046875 -0.6875 C 1.234375 -0.476562 1.460938 -0.375 1.734375 -0.375 C 2.015625 -0.375 2.242188 -0.476562 2.421875 -0.6875 C 2.609375 -0.90625 2.703125 -1.226562 2.703125 -1.65625 C 2.703125 -2.050781 2.609375 -2.351562 2.421875 -2.5625 C 2.242188 -2.769531 2.015625 -2.875 1.734375 -2.875 C 1.460938 -2.875 1.234375 -2.769531 1.046875 -2.5625 C 0.867188 -2.363281 0.78125 -2.050781 0.78125 -1.625 Z M 0.78125 -1.625 "/></g></g><g transform="translate(8.650628, 6.065206)"><g><path d="M 0.421875 0 L 0.421875 -3.265625 L 0.90625 -3.265625 L 0.90625 -2.8125 C 1.007812 -2.96875 1.144531 -3.09375 1.3125 -3.1875 C 1.488281 -3.289062 1.6875 -3.34375 1.90625 -3.34375 C 2.144531 -3.34375 2.34375 -3.289062 2.5 -3.1875 C 2.65625 -3.082031 2.765625 -2.941406 2.828125 -2.765625 C 3.078125 -3.148438 3.410156 -3.34375 3.828125 -3.34375 C 4.148438 -3.34375 4.398438 -3.25 4.578125 -3.0625 C 4.753906 -2.882812 4.84375 -2.609375 4.84375 -2.234375 L 4.84375 0 L 4.296875 0 L 4.296875 -2.0625 C 4.296875 -2.28125 4.273438 -2.4375 4.234375 -2.53125 C 4.203125 -2.632812 4.140625 -2.710938 4.046875 -2.765625 C 3.953125 -2.828125 3.835938 -2.859375 3.703125 -2.859375 C 3.472656 -2.859375 3.28125 -2.78125 3.125 -2.625 C 2.976562 -2.476562 2.90625 -2.234375 2.90625 -1.890625 L 2.90625 0 L 2.359375 0 L 2.359375 -2.125 C 2.359375 -2.363281 2.3125 -2.546875 2.21875 -2.671875 C 2.125 -2.796875 1.976562 -2.859375 1.78125 -2.859375 C 1.625 -2.859375 1.476562 -2.816406 1.34375 -2.734375 C 1.207031 -2.648438 1.109375 -2.53125 1.046875 -2.375 C 0.992188 -2.21875 0.96875 -1.988281 0.96875 -1.6875 L 0.96875 0 Z M 0.421875 0 "/></g></g><g transform="translate(13.890514, 6.065206)"><g><path d="M 2.65625 -1.046875 L 3.21875 -0.984375 C 3.132812 -0.648438 2.96875 -0.390625 2.71875 -0.203125 C 2.476562 -0.015625 2.164062 0.078125 1.78125 0.078125 C 1.300781 0.078125 0.921875 -0.0664062 0.640625 -0.359375 C 0.367188 -0.660156 0.234375 -1.078125 0.234375 -1.609375 C 0.234375 -2.148438 0.375 -2.570312 0.65625 -2.875 C 0.9375 -3.1875 1.300781 -3.34375 1.75 -3.34375 C 2.1875 -3.34375 2.539062 -3.191406 2.8125 -2.890625 C 3.09375 -2.597656 3.234375 -2.179688 3.234375 -1.640625 C 3.234375 -1.609375 3.234375 -1.554688 3.234375 -1.484375 L 0.796875 -1.484375 C 0.816406 -1.128906 0.914062 -0.851562 1.09375 -0.65625 C 1.28125 -0.46875 1.515625 -0.375 1.796875 -0.375 C 1.992188 -0.375 2.164062 -0.425781 2.3125 -0.53125 C 2.457031 -0.644531 2.570312 -0.816406 2.65625 -1.046875 Z M 0.828125 -1.953125 L 2.65625 -1.953125 C 2.632812 -2.222656 2.566406 -2.425781 2.453125 -2.5625 C 2.273438 -2.78125 2.046875 -2.890625 1.765625 -2.890625 C 1.503906 -2.890625 1.285156 -2.800781 1.109375 -2.625 C 0.941406 -2.457031 0.847656 -2.234375 0.828125 -1.953125 Z M 0.828125 -1.953125 "/></g></g></g></g></g></g></g></svg>