<svg xmlns="http://www.w3.org/2000/svg" xmlns:xlink="http://www.w3.org/1999/xlink" width="40" zoomAndPan="magnify" viewBox="0 0 30 30.000001" height="40" preserveAspectRatio="xMidYMid meet" version="1.0"><defs><g/><clipPath id="b4c16c9860"><path d="M 20 0 L 27.570312 0 L 27.570312 6 L 20 6 Z M 20 0 " clip-rule="nonzero"/></clipPath><clipPath id="8647628c7d"><path d="M 14 9 L 27.570312 9 L 27.570312 23.226562 L 14 23.226562 Z M 14 9 " clip-rule="nonzero"/></clipPath><clipPath id="9dc67ae516"><path d="M 2.167969 1 L 17 1 L 17 23.226562 L 2.167969 23.226562 Z M 2.167969 1 " clip-rule="nonzero"/></clipPath><clipPath id="e7e941c5ed"><path d="M 7 23 L 24 23 L 24 29.03125 L 7 29.03125 Z M 7 23 " clip-rule="nonzero"/></clipPath><clipPath id="9eb5c0edff"><path d="M 0.683594 1 L 16 1 L 16 6 L 0.683594 6 Z M 0.683594 1 " clip-rule="nonzero"/></clipPath><clipPath id="230230e884"><rect x="0" width="17" y="0" height="7"/></clipPath></defs><g clip-path="url(#b4c16c9860)"><path fill="#5098d3" d="M 20.800781 2.53125 C 20.800781 2.308594 20.914062 2.105469 21.097656 1.988281 L 24.058594 0.101562 C 24.355469 -0.0859375 24.753906 0.00390625 24.945312 0.300781 C 25.035156 0.445312 25.066406 0.617188 25.03125 0.785156 C 24.992188 0.953125 24.894531 1.09375 24.746094 1.1875 L 23.609375 1.910156 L 27.050781 1.910156 C 27.394531 1.910156 27.671875 2.1875 27.671875 2.53125 C 27.671875 2.871094 27.394531 3.148438 27.050781 3.148438 L 23.609375 3.148438 C 23.609375 3.148438 24.746094 3.875 24.746094 3.875 C 24.894531 3.964844 24.992188 4.109375 25.03125 4.277344 C 25.066406 4.445312 25.039062 4.617188 24.945312 4.761719 C 24.824219 4.945312 24.625 5.054688 24.402344 5.054688 C 24.28125 5.054688 24.164062 5.023438 24.058594 4.957031 L 21.097656 3.070312 C 20.914062 2.953125 20.804688 2.75 20.804688 2.53125 Z M 20.800781 2.53125 " fill-opacity="1" fill-rule="nonzero"/></g><path fill="#5098d3" d="M 21.917969 7.363281 C 21.917969 7.652344 21.859375 7.933594 21.75 8.203125 C 21.636719 8.472656 21.480469 8.710938 21.273438 8.914062 C 21.066406 9.121094 20.828125 9.28125 20.5625 9.390625 C 20.292969 9.503906 20.011719 9.558594 19.71875 9.558594 C 19.429688 9.558594 19.148438 9.503906 18.878906 9.390625 C 18.609375 9.28125 18.375 9.121094 18.167969 8.914062 C 17.960938 8.710938 17.804688 8.472656 17.691406 8.203125 C 17.582031 7.933594 17.523438 7.652344 17.523438 7.363281 C 17.523438 7.070312 17.582031 6.792969 17.691406 6.523438 C 17.804688 6.253906 17.960938 6.015625 18.167969 5.808594 C 18.375 5.605469 18.609375 5.445312 18.878906 5.335938 C 19.148438 5.222656 19.429688 5.167969 19.71875 5.167969 C 20.011719 5.167969 20.292969 5.222656 20.5625 5.335938 C 20.828125 5.445312 21.066406 5.605469 21.273438 5.808594 C 21.480469 6.015625 21.636719 6.253906 21.75 6.523438 C 21.859375 6.792969 21.917969 7.070312 21.917969 7.363281 Z M 21.917969 7.363281 " fill-opacity="1" fill-rule="nonzero"/><g clip-path="url(#8647628c7d)"><path fill="#5098d3" d="M 26.757812 18.558594 L 24.683594 18.535156 L 24.433594 16.371094 C 24.550781 16.214844 24.605469 16.007812 24.550781 15.804688 L 23.621094 12.128906 L 24.664062 12.226562 L 25.300781 13.941406 C 25.441406 14.3125 25.789062 14.539062 26.160156 14.539062 C 26.265625 14.539062 26.375 14.519531 26.480469 14.480469 C 26.953125 14.304688 27.195312 13.777344 27.019531 13.304688 L 26.179688 11.050781 C 26.058594 10.71875 25.757812 10.488281 25.40625 10.457031 L 22.492188 10.1875 C 22.121094 10 21.683594 9.941406 21.253906 10.050781 L 19.429688 10.511719 C 19.289062 10.546875 19.171875 10.625 19.085938 10.730469 C 18.824219 10.789062 18.589844 10.957031 18.464844 11.214844 L 17.539062 13.089844 L 15.925781 12.527344 C 15.445312 12.363281 14.925781 12.613281 14.757812 13.09375 C 14.59375 13.570312 14.84375 14.09375 15.324219 14.257812 L 17.699219 15.085938 C 17.800781 15.117188 17.902344 15.136719 18 15.136719 C 18.339844 15.136719 18.664062 14.945312 18.824219 14.625 L 19.457031 13.335938 L 20.246094 16.445312 L 18.464844 18.347656 C 18.324219 18.5 18.226562 18.691406 18.191406 18.898438 L 17.585938 22.273438 C 17.480469 22.863281 17.871094 23.425781 18.460938 23.53125 C 18.523438 23.542969 18.589844 23.546875 18.652344 23.546875 C 19.164062 23.546875 19.621094 23.179688 19.714844 22.65625 L 20.265625 19.59375 L 22.367188 17.347656 L 22.644531 19.734375 C 22.707031 20.273438 23.164062 20.6875 23.707031 20.691406 L 26.734375 20.722656 C 26.738281 20.722656 26.742188 20.722656 26.746094 20.722656 C 27.339844 20.722656 27.820312 20.246094 27.828125 19.652344 C 27.835938 19.054688 27.355469 18.5625 26.757812 18.558594 Z M 26.757812 18.558594 " fill-opacity="1" fill-rule="nonzero"/></g><g clip-path="url(#9dc67ae516)"><path fill="#5098d3" d="M 14.917969 15.421875 C 14.714844 15.351562 14.535156 15.246094 14.371094 15.125 L 14.371094 21.722656 L 4.164062 21.722656 L 11.398438 20.417969 L 11.398438 5.007812 L 4.164062 3.703125 L 14.371094 3.703125 L 14.371094 11.648438 C 14.882812 11.28125 15.550781 11.148438 16.195312 11.328125 L 16.195312 2.789062 C 16.195312 2.285156 15.789062 1.878906 15.285156 1.878906 L 3.082031 1.878906 C 2.578125 1.878906 2.171875 2.285156 2.171875 2.789062 L 2.171875 22.632812 C 2.171875 23.140625 2.578125 23.546875 3.082031 23.546875 L 15.285156 23.546875 C 15.789062 23.546875 16.195312 23.140625 16.195312 22.632812 L 16.195312 15.867188 L 14.917969 15.425781 Z M 10.03125 11.988281 C 10.367188 12.03125 10.613281 12.351562 10.613281 12.710938 C 10.613281 13.074219 10.367188 13.394531 10.03125 13.433594 C 9.65625 13.480469 9.308594 13.160156 9.308594 12.710938 C 9.308594 12.265625 9.652344 11.941406 10.03125 11.988281 Z M 10.03125 11.988281 " fill-opacity="1" fill-rule="nonzero"/></g><g clip-path="url(#e7e941c5ed)"><g transform="matrix(1, 0, 0, 1, 7, 23)"><g clip-path="url(#230230e884)"><g clip-path="url(#9eb5c0edff)"><g fill="#000000" fill-opacity="1"><g transform="translate(0.738776, 4.902658)"><g><path d="M 3 -0.375 C 3.21875 -0.226562 3.414062 -0.117188 3.59375 -0.046875 L 3.453125 0.265625 C 3.203125 0.179688 2.953125 0.0390625 2.703125 -0.15625 C 2.453125 -0.0078125 2.171875 0.0625 1.859375 0.0625 C 1.546875 0.0625 1.257812 -0.0078125 1 -0.15625 C 0.75 -0.3125 0.550781 -0.523438 0.40625 -0.796875 C 0.269531 -1.078125 0.203125 -1.390625 0.203125 -1.734375 C 0.203125 -2.078125 0.269531 -2.390625 0.40625 -2.671875 C 0.550781 -2.953125 0.75 -3.164062 1 -3.3125 C 1.257812 -3.457031 1.550781 -3.53125 1.875 -3.53125 C 2.1875 -3.53125 2.472656 -3.453125 2.734375 -3.296875 C 2.992188 -3.148438 3.191406 -2.9375 3.328125 -2.65625 C 3.460938 -2.382812 3.53125 -2.078125 3.53125 -1.734375 C 3.53125 -1.453125 3.484375 -1.195312 3.390625 -0.96875 C 3.304688 -0.738281 3.175781 -0.539062 3 -0.375 Z M 1.984375 -0.953125 C 2.253906 -0.878906 2.472656 -0.769531 2.640625 -0.625 C 2.910156 -0.875 3.046875 -1.242188 3.046875 -1.734375 C 3.046875 -2.015625 3 -2.257812 2.90625 -2.46875 C 2.8125 -2.675781 2.671875 -2.835938 2.484375 -2.953125 C 2.304688 -3.078125 2.101562 -3.140625 1.875 -3.140625 C 1.53125 -3.140625 1.242188 -3.019531 1.015625 -2.78125 C 0.796875 -2.550781 0.6875 -2.203125 0.6875 -1.734375 C 0.6875 -1.285156 0.796875 -0.9375 1.015625 -0.6875 C 1.234375 -0.445312 1.519531 -0.328125 1.875 -0.328125 C 2.03125 -0.328125 2.179688 -0.359375 2.328125 -0.421875 C 2.191406 -0.515625 2.039062 -0.582031 1.875 -0.625 Z M 1.984375 -0.953125 "/></g></g><g transform="translate(4.502484, 4.902658)"><g><path d="M 1.96875 0 L 1.96875 -0.375 C 1.769531 -0.0820312 1.503906 0.0625 1.171875 0.0625 C 1.023438 0.0625 0.882812 0.0351562 0.75 -0.015625 C 0.625 -0.078125 0.53125 -0.148438 0.46875 -0.234375 C 0.40625 -0.328125 0.359375 -0.4375 0.328125 -0.5625 C 0.316406 -0.644531 0.3125 -0.773438 0.3125 -0.953125 L 0.3125 -2.515625 L 0.734375 -2.515625 L 0.734375 -1.125 C 0.734375 -0.894531 0.742188 -0.742188 0.765625 -0.671875 C 0.785156 -0.554688 0.835938 -0.46875 0.921875 -0.40625 C 1.015625 -0.34375 1.125 -0.3125 1.25 -0.3125 C 1.375 -0.3125 1.492188 -0.34375 1.609375 -0.40625 C 1.722656 -0.46875 1.800781 -0.554688 1.84375 -0.671875 C 1.894531 -0.785156 1.921875 -0.953125 1.921875 -1.171875 L 1.921875 -2.515625 L 2.34375 -2.515625 L 2.34375 0 Z M 1.96875 0 "/></g></g><g transform="translate(7.193547, 4.902658)"><g><path d="M 0.328125 -2.984375 L 0.328125 -3.46875 L 0.75 -3.46875 L 0.75 -2.984375 Z M 0.328125 0 L 0.328125 -2.515625 L 0.75 -2.515625 L 0.75 0 Z M 0.328125 0 "/></g></g><g transform="translate(8.268554, 4.902658)"><g><path d="M 1.25 -0.375 L 1.3125 0 C 1.1875 0.0195312 1.078125 0.03125 0.984375 0.03125 C 0.828125 0.03125 0.707031 0.0078125 0.625 -0.03125 C 0.539062 -0.0820312 0.476562 -0.148438 0.4375 -0.234375 C 0.40625 -0.316406 0.390625 -0.484375 0.390625 -0.734375 L 0.390625 -2.1875 L 0.078125 -2.1875 L 0.078125 -2.515625 L 0.390625 -2.515625 L 0.390625 -3.140625 L 0.828125 -3.390625 L 0.828125 -2.515625 L 1.25 -2.515625 L 1.25 -2.1875 L 0.828125 -2.1875 L 0.828125 -0.71875 C 0.828125 -0.59375 0.832031 -0.507812 0.84375 -0.46875 C 0.851562 -0.4375 0.875 -0.410156 0.90625 -0.390625 C 0.945312 -0.367188 1 -0.359375 1.0625 -0.359375 C 1.113281 -0.359375 1.175781 -0.363281 1.25 -0.375 Z M 1.25 -0.375 "/></g></g><g transform="translate(9.612904, 4.902658)"><g><path d="M 1.25 -0.375 L 1.3125 0 C 1.1875 0.0195312 1.078125 0.03125 0.984375 0.03125 C 0.828125 0.03125 0.707031 0.0078125 0.625 -0.03125 C 0.539062 -0.0820312 0.476562 -0.148438 0.4375 -0.234375 C 0.40625 -0.316406 0.390625 -0.484375 0.390625 -0.734375 L 0.390625 -2.1875 L 0.078125 -2.1875 L 0.078125 -2.515625 L 0.390625 -2.515625 L 0.390625 -3.140625 L 0.828125 -3.390625 L 0.828125 -2.515625 L 1.25 -2.515625 L 1.25 -2.1875 L 0.828125 -2.1875 L 0.828125 -0.71875 C 0.828125 -0.59375 0.832031 -0.507812 0.84375 -0.46875 C 0.851562 -0.4375 0.875 -0.410156 0.90625 -0.390625 C 0.945312 -0.367188 1 -0.359375 1.0625 -0.359375 C 1.113281 -0.359375 1.175781 -0.363281 1.25 -0.375 Z M 1.25 -0.375 "/></g></g><g transform="translate(10.957254, 4.902658)"><g><path d="M 2.03125 -0.8125 L 2.484375 -0.75 C 2.410156 -0.5 2.28125 -0.300781 2.09375 -0.15625 C 1.90625 -0.0078125 1.664062 0.0625 1.375 0.0625 C 1.007812 0.0625 0.71875 -0.0507812 0.5 -0.28125 C 0.28125 -0.507812 0.171875 -0.828125 0.171875 -1.234375 C 0.171875 -1.660156 0.28125 -1.988281 0.5 -2.21875 C 0.71875 -2.445312 1 -2.5625 1.34375 -2.5625 C 1.6875 -2.5625 1.960938 -2.445312 2.171875 -2.21875 C 2.390625 -1.988281 2.5 -1.671875 2.5 -1.265625 C 2.5 -1.234375 2.492188 -1.191406 2.484375 -1.140625 L 0.625 -1.140625 C 0.632812 -0.867188 0.707031 -0.660156 0.84375 -0.515625 C 0.988281 -0.367188 1.164062 -0.296875 1.375 -0.296875 C 1.53125 -0.296875 1.660156 -0.335938 1.765625 -0.421875 C 1.878906 -0.503906 1.96875 -0.632812 2.03125 -0.8125 Z M 0.640625 -1.5 L 2.046875 -1.5 C 2.023438 -1.707031 1.96875 -1.863281 1.875 -1.96875 C 1.738281 -2.132812 1.566406 -2.21875 1.359375 -2.21875 C 1.160156 -2.21875 0.992188 -2.148438 0.859375 -2.015625 C 0.722656 -1.890625 0.648438 -1.71875 0.640625 -1.5 Z M 0.640625 -1.5 "/></g></g><g transform="translate(13.648317, 4.902658)"><g><path d="M 0.3125 0 L 0.3125 -2.515625 L 0.703125 -2.515625 L 0.703125 -2.125 C 0.796875 -2.300781 0.882812 -2.414062 0.96875 -2.46875 C 1.050781 -2.53125 1.140625 -2.5625 1.234375 -2.5625 C 1.378906 -2.5625 1.523438 -2.519531 1.671875 -2.4375 L 1.53125 -2.03125 C 1.425781 -2.09375 1.320312 -2.125 1.21875 -2.125 C 1.125 -2.125 1.039062 -2.09375 0.96875 -2.03125 C 0.894531 -1.976562 0.84375 -1.90625 0.8125 -1.8125 C 0.757812 -1.65625 0.734375 -1.488281 0.734375 -1.3125 L 0.734375 0 Z M 0.3125 0 "/></g></g></g></g></g></g></g></svg>