<svg xmlns="http://www.w3.org/2000/svg" xmlns:xlink="http://www.w3.org/1999/xlink" width="40" zoomAndPan="magnify" viewBox="0 0 30 30.000001" height="40" preserveAspectRatio="xMidYMid meet" version="1.0"><defs><g/><clipPath id="244b6a15d2"><path d="M 19 0 L 25.886719 0 L 25.886719 5 L 19 5 Z M 19 0 " clip-rule="nonzero"/></clipPath><clipPath id="1cb175769a"><path d="M 14 8 L 25.886719 8 L 25.886719 20.324219 L 14 20.324219 Z M 14 8 " clip-rule="nonzero"/></clipPath><clipPath id="e77151d95e"><path d="M 3.386719 1 L 16 1 L 16 20.324219 L 3.386719 20.324219 Z M 3.386719 1 " clip-rule="nonzero"/></clipPath><clipPath id="02268b9f42"><path d="M 3 21 L 27 21 L 27 29.03125 L 3 29.03125 Z M 3 21 " clip-rule="nonzero"/></clipPath><clipPath id="dfe0c081ab"><rect x="0" width="24" y="0" height="9"/></clipPath></defs><g clip-path="url(#244b6a15d2)"><path fill="#000000" d="M 19.722656 2.183594 C 19.722656 1.992188 19.820312 1.820312 19.984375 1.71875 L 22.578125 0.0898438 C 22.839844 -0.0742188 23.1875 0 23.355469 0.257812 C 23.4375 0.382812 23.464844 0.53125 23.429688 0.675781 C 23.398438 0.820312 23.308594 0.945312 23.183594 1.023438 L 22.1875 1.648438 L 25.203125 1.648438 C 25.503906 1.648438 25.746094 1.890625 25.746094 2.183594 C 25.746094 2.480469 25.503906 2.71875 25.203125 2.71875 L 22.1875 2.71875 C 22.1875 2.71875 23.183594 3.34375 23.183594 3.34375 C 23.308594 3.421875 23.398438 3.546875 23.429688 3.691406 C 23.464844 3.835938 23.4375 3.984375 23.355469 4.109375 C 23.25 4.269531 23.074219 4.363281 22.882812 4.363281 C 22.777344 4.363281 22.671875 4.335938 22.578125 4.277344 L 19.984375 2.652344 C 19.820312 2.546875 19.726562 2.375 19.726562 2.183594 Z M 19.722656 2.183594 " fill-opacity="1" fill-rule="nonzero"/></g><path fill="#000000" d="M 20.699219 6.355469 C 20.699219 6.605469 20.652344 6.847656 20.554688 7.082031 C 20.457031 7.3125 20.316406 7.519531 20.136719 7.695312 C 19.957031 7.875 19.75 8.011719 19.511719 8.105469 C 19.277344 8.203125 19.03125 8.25 18.777344 8.25 C 18.519531 8.25 18.273438 8.203125 18.039062 8.105469 C 17.804688 8.011719 17.59375 7.875 17.414062 7.695312 C 17.234375 7.519531 17.09375 7.3125 16.996094 7.082031 C 16.898438 6.847656 16.851562 6.605469 16.851562 6.355469 C 16.851562 6.105469 16.898438 5.863281 16.996094 5.628906 C 17.09375 5.398438 17.234375 5.191406 17.414062 5.015625 C 17.59375 4.835938 17.804688 4.699219 18.039062 4.605469 C 18.273438 4.507812 18.519531 4.460938 18.777344 4.460938 C 19.03125 4.460938 19.277344 4.507812 19.511719 4.605469 C 19.75 4.699219 19.957031 4.835938 20.136719 5.015625 C 20.316406 5.191406 20.457031 5.398438 20.554688 5.628906 C 20.652344 5.863281 20.699219 6.105469 20.699219 6.355469 Z M 20.699219 6.355469 " fill-opacity="1" fill-rule="nonzero"/><g clip-path="url(#1cb175769a)"><path fill="#000000" d="M 24.945312 16.019531 L 23.128906 16 L 22.90625 14.132812 C 23.011719 13.996094 23.058594 13.820312 23.011719 13.640625 L 22.195312 10.46875 L 23.109375 10.554688 L 23.667969 12.035156 C 23.789062 12.351562 24.097656 12.550781 24.421875 12.550781 C 24.515625 12.550781 24.609375 12.535156 24.703125 12.5 C 25.117188 12.347656 25.328125 11.894531 25.175781 11.484375 L 24.441406 9.539062 C 24.332031 9.253906 24.070312 9.054688 23.761719 9.027344 L 21.203125 8.792969 C 20.878906 8.632812 20.5 8.582031 20.117188 8.675781 L 18.523438 9.074219 C 18.398438 9.105469 18.296875 9.171875 18.21875 9.261719 C 17.992188 9.3125 17.785156 9.457031 17.675781 9.679688 L 16.863281 11.296875 L 15.449219 10.8125 C 15.027344 10.671875 14.570312 10.890625 14.425781 11.300781 C 14.28125 11.714844 14.503906 12.164062 14.921875 12.308594 L 17.003906 13.019531 C 17.09375 13.050781 17.179688 13.066406 17.269531 13.066406 C 17.566406 13.066406 17.851562 12.898438 17.988281 12.625 L 18.546875 11.511719 L 19.234375 14.195312 L 17.675781 15.839844 C 17.550781 15.96875 17.464844 16.132812 17.433594 16.3125 L 16.902344 19.226562 C 16.8125 19.734375 17.15625 20.222656 17.671875 20.3125 C 17.726562 20.320312 17.78125 20.328125 17.839844 20.328125 C 18.289062 20.328125 18.6875 20.007812 18.773438 19.558594 L 19.253906 16.914062 L 21.09375 14.976562 L 21.339844 17.035156 C 21.394531 17.5 21.792969 17.855469 22.273438 17.859375 L 24.925781 17.886719 C 24.929688 17.886719 24.933594 17.886719 24.9375 17.886719 C 25.457031 17.886719 25.878906 17.476562 25.882812 16.960938 C 25.890625 16.445312 25.46875 16.023438 24.945312 16.019531 Z M 24.945312 16.019531 " fill-opacity="1" fill-rule="nonzero"/></g><g clip-path="url(#e77151d95e)"><path fill="#000000" d="M 14.566406 13.3125 C 14.386719 13.253906 14.230469 13.160156 14.085938 13.058594 L 14.085938 18.75 L 5.136719 18.75 L 11.480469 17.625 L 11.480469 4.320312 L 5.136719 3.195312 L 14.085938 3.195312 L 14.085938 10.054688 C 14.535156 9.738281 15.121094 9.625 15.6875 9.78125 L 15.6875 2.410156 C 15.6875 1.972656 15.328125 1.621094 14.886719 1.621094 L 4.191406 1.621094 C 3.75 1.621094 3.390625 1.972656 3.390625 2.410156 L 3.390625 19.539062 C 3.390625 19.972656 3.75 20.328125 4.191406 20.328125 L 14.886719 20.328125 C 15.328125 20.328125 15.6875 19.972656 15.6875 19.539062 L 15.6875 13.695312 Z M 10.28125 10.347656 C 10.578125 10.382812 10.792969 10.664062 10.792969 10.972656 C 10.792969 11.285156 10.578125 11.5625 10.28125 11.597656 C 9.953125 11.636719 9.648438 11.359375 9.648438 10.972656 C 9.648438 10.585938 9.949219 10.308594 10.28125 10.347656 Z M 10.28125 10.347656 " fill-opacity="1" fill-rule="nonzero"/></g><g clip-path="url(#02268b9f42)"><g transform="matrix(1, 0, 0, 1, 3, 21)"><g clip-path="url(#dfe0c081ab)"><g fill="#000000" fill-opacity="1"><g transform="translate(0.786416, 6.54102)"><g><path d="M 5.15625 0.375 C 5.019531 0.53125 4.859375 0.648438 4.671875 0.734375 C 4.492188 0.828125 4.300781 0.875 4.09375 0.875 C 3.832031 0.875 3.582031 0.804688 3.34375 0.671875 C 3.113281 0.546875 2.851562 0.332031 2.5625 0.03125 C 2.132812 0.0195312 1.75 -0.0820312 1.40625 -0.28125 C 1.070312 -0.476562 0.804688 -0.742188 0.609375 -1.078125 C 0.421875 -1.410156 0.328125 -1.785156 0.328125 -2.203125 C 0.328125 -2.628906 0.425781 -3.007812 0.625 -3.34375 C 0.820312 -3.6875 1.097656 -3.957031 1.453125 -4.15625 C 1.804688 -4.351562 2.203125 -4.453125 2.640625 -4.453125 C 3.078125 -4.453125 3.46875 -4.351562 3.8125 -4.15625 C 4.164062 -3.957031 4.441406 -3.6875 4.640625 -3.34375 C 4.847656 -3.007812 4.953125 -2.628906 4.953125 -2.203125 C 4.953125 -1.835938 4.875 -1.5 4.71875 -1.1875 C 4.570312 -0.875 4.359375 -0.613281 4.078125 -0.40625 C 3.804688 -0.207031 3.492188 -0.0703125 3.140625 0 C 3.460938 0.332031 3.78125 0.5 4.09375 0.5 C 4.414062 0.5 4.695312 0.363281 4.9375 0.09375 Z M 0.78125 -2.203125 C 0.78125 -1.859375 0.859375 -1.546875 1.015625 -1.265625 C 1.179688 -0.992188 1.40625 -0.773438 1.6875 -0.609375 C 1.976562 -0.453125 2.296875 -0.375 2.640625 -0.375 C 2.992188 -0.375 3.3125 -0.453125 3.59375 -0.609375 C 3.875 -0.773438 4.09375 -0.992188 4.25 -1.265625 C 4.40625 -1.546875 4.484375 -1.859375 4.484375 -2.203125 C 4.484375 -2.546875 4.40625 -2.851562 4.25 -3.125 C 4.09375 -3.40625 3.875 -3.625 3.59375 -3.78125 C 3.3125 -3.945312 2.992188 -4.03125 2.640625 -4.03125 C 2.296875 -4.03125 1.976562 -3.945312 1.6875 -3.78125 C 1.40625 -3.625 1.179688 -3.40625 1.015625 -3.125 C 0.859375 -2.851562 0.78125 -2.546875 0.78125 -2.203125 Z M 0.78125 -2.203125 "/></g></g></g><g fill="#000000" fill-opacity="1"><g transform="translate(6.064039, 6.54102)"><g><path d="M 3.609375 -3.3125 L 3.609375 0 L 3.1875 0 L 3.1875 -0.609375 C 3.0625 -0.398438 2.894531 -0.238281 2.6875 -0.125 C 2.488281 -0.0195312 2.253906 0.03125 1.984375 0.03125 C 1.554688 0.03125 1.21875 -0.0859375 0.96875 -0.328125 C 0.71875 -0.566406 0.59375 -0.921875 0.59375 -1.390625 L 0.59375 -3.3125 L 1.03125 -3.3125 L 1.03125 -1.4375 C 1.03125 -1.082031 1.117188 -0.816406 1.296875 -0.640625 C 1.472656 -0.460938 1.71875 -0.375 2.03125 -0.375 C 2.382812 -0.375 2.660156 -0.476562 2.859375 -0.6875 C 3.054688 -0.894531 3.15625 -1.191406 3.15625 -1.578125 L 3.15625 -3.3125 Z M 3.609375 -3.3125 "/></g></g></g><g fill="#000000" fill-opacity="1"><g transform="translate(10.297457, 6.54102)"><g><path d="M 0.625 -3.3125 L 1.078125 -3.3125 L 1.078125 0 L 0.625 0 Z M 0.84375 -4.03125 C 0.75 -4.03125 0.671875 -4.0625 0.609375 -4.125 C 0.546875 -4.1875 0.515625 -4.265625 0.515625 -4.359375 C 0.515625 -4.441406 0.546875 -4.515625 0.609375 -4.578125 C 0.671875 -4.640625 0.75 -4.671875 0.84375 -4.671875 C 0.9375 -4.671875 1.015625 -4.640625 1.078125 -4.578125 C 1.140625 -4.515625 1.171875 -4.441406 1.171875 -4.359375 C 1.171875 -4.265625 1.140625 -4.1875 1.078125 -4.125 C 1.015625 -4.0625 0.9375 -4.03125 0.84375 -4.03125 Z M 0.84375 -4.03125 "/></g></g></g><g fill="#000000" fill-opacity="1"><g transform="translate(11.98957, 6.54102)"><g><path d="M 2.375 -0.203125 C 2.28125 -0.128906 2.171875 -0.0703125 2.046875 -0.03125 C 1.929688 0.0078125 1.804688 0.03125 1.671875 0.03125 C 1.359375 0.03125 1.117188 -0.0507812 0.953125 -0.21875 C 0.785156 -0.382812 0.703125 -0.625 0.703125 -0.9375 L 0.703125 -2.9375 L 0.109375 -2.9375 L 0.109375 -3.3125 L 0.703125 -3.3125 L 0.703125 -4.03125 L 1.140625 -4.03125 L 1.140625 -3.3125 L 2.15625 -3.3125 L 2.15625 -2.9375 L 1.140625 -2.9375 L 1.140625 -0.953125 C 1.140625 -0.753906 1.1875 -0.601562 1.28125 -0.5 C 1.382812 -0.40625 1.53125 -0.359375 1.71875 -0.359375 C 1.8125 -0.359375 1.898438 -0.367188 1.984375 -0.390625 C 2.066406 -0.421875 2.140625 -0.460938 2.203125 -0.515625 Z M 2.375 -0.203125 "/></g></g></g><g fill="#000000" fill-opacity="1"><g transform="translate(14.4554, 6.54102)"><g><path d="M 2.375 -0.203125 C 2.28125 -0.128906 2.171875 -0.0703125 2.046875 -0.03125 C 1.929688 0.0078125 1.804688 0.03125 1.671875 0.03125 C 1.359375 0.03125 1.117188 -0.0507812 0.953125 -0.21875 C 0.785156 -0.382812 0.703125 -0.625 0.703125 -0.9375 L 0.703125 -2.9375 L 0.109375 -2.9375 L 0.109375 -3.3125 L 0.703125 -3.3125 L 0.703125 -4.03125 L 1.140625 -4.03125 L 1.140625 -3.3125 L 2.15625 -3.3125 L 2.15625 -2.9375 L 1.140625 -2.9375 L 1.140625 -0.953125 C 1.140625 -0.753906 1.1875 -0.601562 1.28125 -0.5 C 1.382812 -0.40625 1.53125 -0.359375 1.71875 -0.359375 C 1.8125 -0.359375 1.898438 -0.367188 1.984375 -0.390625 C 2.066406 -0.421875 2.140625 -0.460938 2.203125 -0.515625 Z M 2.375 -0.203125 "/></g></g></g><g fill="#000000" fill-opacity="1"><g transform="translate(16.88978, 6.54102)"><g><path d="M 3.5 -1.515625 L 0.734375 -1.515625 C 0.765625 -1.171875 0.898438 -0.890625 1.140625 -0.671875 C 1.378906 -0.460938 1.679688 -0.359375 2.046875 -0.359375 C 2.242188 -0.359375 2.425781 -0.394531 2.59375 -0.46875 C 2.769531 -0.539062 2.921875 -0.648438 3.046875 -0.796875 L 3.3125 -0.515625 C 3.15625 -0.335938 2.96875 -0.203125 2.75 -0.109375 C 2.53125 -0.015625 2.289062 0.03125 2.03125 0.03125 C 1.6875 0.03125 1.382812 -0.0390625 1.125 -0.1875 C 0.863281 -0.332031 0.660156 -0.53125 0.515625 -0.78125 C 0.367188 -1.039062 0.296875 -1.332031 0.296875 -1.65625 C 0.296875 -1.976562 0.363281 -2.265625 0.5 -2.515625 C 0.644531 -2.773438 0.835938 -2.976562 1.078125 -3.125 C 1.328125 -3.269531 1.601562 -3.34375 1.90625 -3.34375 C 2.21875 -3.34375 2.492188 -3.269531 2.734375 -3.125 C 2.972656 -2.976562 3.160156 -2.773438 3.296875 -2.515625 C 3.441406 -2.265625 3.515625 -1.976562 3.515625 -1.65625 Z M 1.90625 -2.953125 C 1.582031 -2.953125 1.3125 -2.847656 1.09375 -2.640625 C 0.882812 -2.441406 0.765625 -2.175781 0.734375 -1.84375 L 3.078125 -1.84375 C 3.054688 -2.175781 2.9375 -2.441406 2.71875 -2.640625 C 2.5 -2.847656 2.226562 -2.953125 1.90625 -2.953125 Z M 1.90625 -2.953125 "/></g></g></g><g fill="#000000" fill-opacity="1"><g transform="translate(20.689164, 6.54102)"><g><path d="M 1.046875 -2.65625 C 1.148438 -2.882812 1.304688 -3.054688 1.515625 -3.171875 C 1.722656 -3.285156 1.984375 -3.34375 2.296875 -3.34375 L 2.296875 -2.90625 L 2.1875 -2.90625 C 1.832031 -2.90625 1.554688 -2.796875 1.359375 -2.578125 C 1.171875 -2.367188 1.078125 -2.070312 1.078125 -1.6875 L 1.078125 0 L 0.625 0 L 0.625 -3.3125 L 1.046875 -3.3125 Z M 1.046875 -2.65625 "/></g></g></g></g></g></g></svg>