<svg xmlns="http://www.w3.org/2000/svg" xmlns:xlink="http://www.w3.org/1999/xlink" width="40" zoomAndPan="magnify" viewBox="0 0 30 30.000001" height="40" preserveAspectRatio="xMidYMid meet" version="1.0"><defs><g/><clipPath id="ed8bcd3d00"><path d="M 3.386719 0 L 26.613281 0 L 26.613281 20.324219 L 3.386719 20.324219 Z M 3.386719 0 " clip-rule="nonzero"/></clipPath><clipPath id="dfa6482923"><path d="M 5 21 L 25 21 L 25 29.03125 L 5 29.03125 Z M 5 21 " clip-rule="nonzero"/></clipPath><clipPath id="03bacd5e54"><rect x="0" width="20" y="0" height="9"/></clipPath></defs><g clip-path="url(#ed8bcd3d00)"><path fill="#000000" d="M 22.914062 14.855469 C 20.183594 13.703125 17.820312 12.734375 17.820312 12.734375 C 17.820312 12.734375 17.820312 11.523438 17.820312 10.671875 C 17.820312 9.824219 19.214844 8.914062 19.214844 5.394531 C 19.214844 2.015625 17.640625 0.152344 15.152344 0.0117188 C 15.152344 0.0078125 15.152344 0.00390625 15.152344 0 C 15.097656 0 15.050781 0.00390625 15 0.0078125 C 14.949219 0.00390625 14.898438 0 14.847656 0 C 14.847656 0.00390625 14.847656 0.0117188 14.847656 0.0117188 C 12.355469 0.152344 10.785156 2.015625 10.785156 5.394531 C 10.785156 8.914062 12.179688 9.824219 12.179688 10.671875 C 12.179688 11.523438 12.179688 12.734375 12.179688 12.734375 C 12.179688 12.734375 9.8125 13.703125 7.085938 14.855469 C 4.355469 16.007812 3.386719 17.644531 3.386719 18.558594 C 3.386719 19.464844 3.386719 20.4375 3.386719 20.4375 L 26.613281 20.4375 C 26.613281 20.4375 26.613281 19.464844 26.613281 18.558594 C 26.613281 17.644531 25.640625 16.007812 22.914062 14.855469 Z M 22.914062 14.855469 " fill-opacity="1" fill-rule="nonzero"/></g><g clip-path="url(#dfa6482923)"><g transform="matrix(1, 0, 0, 1, 5, 21)"><g clip-path="url(#03bacd5e54)"><g fill="#000000" fill-opacity="1"><g transform="translate(0.785677, 6.660997)"><g><path d="M 2.375 -4.40625 C 2.9375 -4.40625 3.375 -4.269531 3.6875 -4 C 4.007812 -3.738281 4.171875 -3.367188 4.171875 -2.890625 C 4.171875 -2.421875 4.007812 -2.050781 3.6875 -1.78125 C 3.375 -1.519531 2.9375 -1.390625 2.375 -1.390625 L 1.1875 -1.390625 L 1.1875 0 L 0.71875 0 L 0.71875 -4.40625 Z M 2.359375 -1.796875 C 2.796875 -1.796875 3.128906 -1.890625 3.359375 -2.078125 C 3.585938 -2.273438 3.703125 -2.546875 3.703125 -2.890625 C 3.703125 -3.253906 3.585938 -3.53125 3.359375 -3.71875 C 3.128906 -3.90625 2.796875 -4 2.359375 -4 L 1.1875 -4 L 1.1875 -1.796875 Z M 2.359375 -1.796875 "/></g></g></g><g fill="#000000" fill-opacity="1"><g transform="translate(5.157473, 6.660997)"><g><path d="M 1.046875 -2.65625 C 1.148438 -2.882812 1.304688 -3.054688 1.515625 -3.171875 C 1.722656 -3.285156 1.984375 -3.34375 2.296875 -3.34375 L 2.296875 -2.90625 L 2.1875 -2.90625 C 1.832031 -2.90625 1.554688 -2.796875 1.359375 -2.578125 C 1.171875 -2.367188 1.078125 -2.070312 1.078125 -1.6875 L 1.078125 0 L 0.625 0 L 0.625 -3.3125 L 1.046875 -3.3125 Z M 1.046875 -2.65625 "/></g></g></g><g fill="#000000" fill-opacity="1"><g transform="translate(7.598125, 6.660997)"><g><path d="M 1.984375 0.03125 C 1.660156 0.03125 1.367188 -0.0390625 1.109375 -0.1875 C 0.859375 -0.332031 0.660156 -0.53125 0.515625 -0.78125 C 0.367188 -1.039062 0.296875 -1.332031 0.296875 -1.65625 C 0.296875 -1.976562 0.367188 -2.265625 0.515625 -2.515625 C 0.660156 -2.773438 0.859375 -2.976562 1.109375 -3.125 C 1.367188 -3.269531 1.660156 -3.34375 1.984375 -3.34375 C 2.296875 -3.34375 2.578125 -3.269531 2.828125 -3.125 C 3.085938 -2.976562 3.289062 -2.773438 3.4375 -2.515625 C 3.582031 -2.265625 3.65625 -1.976562 3.65625 -1.65625 C 3.65625 -1.332031 3.582031 -1.039062 3.4375 -0.78125 C 3.289062 -0.53125 3.085938 -0.332031 2.828125 -0.1875 C 2.578125 -0.0390625 2.296875 0.03125 1.984375 0.03125 Z M 1.984375 -0.359375 C 2.210938 -0.359375 2.421875 -0.410156 2.609375 -0.515625 C 2.796875 -0.628906 2.941406 -0.785156 3.046875 -0.984375 C 3.148438 -1.179688 3.203125 -1.40625 3.203125 -1.65625 C 3.203125 -1.90625 3.148438 -2.128906 3.046875 -2.328125 C 2.941406 -2.523438 2.796875 -2.675781 2.609375 -2.78125 C 2.421875 -2.894531 2.210938 -2.953125 1.984375 -2.953125 C 1.742188 -2.953125 1.53125 -2.894531 1.34375 -2.78125 C 1.15625 -2.675781 1.007812 -2.523438 0.90625 -2.328125 C 0.800781 -2.128906 0.75 -1.90625 0.75 -1.65625 C 0.75 -1.40625 0.800781 -1.179688 0.90625 -0.984375 C 1.007812 -0.785156 1.15625 -0.628906 1.34375 -0.515625 C 1.53125 -0.410156 1.742188 -0.359375 1.984375 -0.359375 Z M 1.984375 -0.359375 "/></g></g></g><g fill="#000000" fill-opacity="1"><g transform="translate(11.542175, 6.660997)"><g><path d="M 1.71875 -4.328125 C 1.519531 -4.328125 1.375 -4.273438 1.28125 -4.171875 C 1.1875 -4.066406 1.140625 -3.910156 1.140625 -3.703125 L 1.140625 -3.3125 L 2.15625 -3.3125 L 2.15625 -2.9375 L 1.140625 -2.9375 L 1.140625 0 L 0.703125 0 L 0.703125 -2.9375 L 0.109375 -2.9375 L 0.109375 -3.3125 L 0.703125 -3.3125 L 0.703125 -3.71875 C 0.703125 -4.019531 0.785156 -4.257812 0.953125 -4.4375 C 1.128906 -4.613281 1.378906 -4.703125 1.703125 -4.703125 C 1.828125 -4.703125 1.945312 -4.679688 2.0625 -4.640625 C 2.175781 -4.609375 2.273438 -4.5625 2.359375 -4.5 L 2.203125 -4.15625 C 2.078125 -4.269531 1.914062 -4.328125 1.71875 -4.328125 Z M 1.71875 -4.328125 "/></g></g></g><g fill="#000000" fill-opacity="1"><g transform="translate(14.177831, 6.660997)"><g><path d="M 0.625 -3.3125 L 1.078125 -3.3125 L 1.078125 0 L 0.625 0 Z M 0.84375 -4.03125 C 0.75 -4.03125 0.671875 -4.0625 0.609375 -4.125 C 0.546875 -4.1875 0.515625 -4.265625 0.515625 -4.359375 C 0.515625 -4.441406 0.546875 -4.515625 0.609375 -4.578125 C 0.671875 -4.640625 0.75 -4.671875 0.84375 -4.671875 C 0.9375 -4.671875 1.015625 -4.640625 1.078125 -4.578125 C 1.140625 -4.515625 1.171875 -4.441406 1.171875 -4.359375 C 1.171875 -4.265625 1.140625 -4.1875 1.078125 -4.125 C 1.015625 -4.0625 0.9375 -4.03125 0.84375 -4.03125 Z M 0.84375 -4.03125 "/></g></g></g><g fill="#000000" fill-opacity="1"><g transform="translate(15.869939, 6.660997)"><g><path d="M 0.625 -4.671875 L 1.078125 -4.671875 L 1.078125 0 L 0.625 0 Z M 0.625 -4.671875 "/></g></g></g><g fill="#000000" fill-opacity="1"><g transform="translate(17.56803, 6.660997)"><g/></g></g></g></g></g></svg>