<svg xmlns="http://www.w3.org/2000/svg" xmlns:xlink="http://www.w3.org/1999/xlink" width="40" zoomAndPan="magnify" viewBox="0 0 30 30.000001" height="40" preserveAspectRatio="xMidYMid meet" version="1.0"><defs><g/><clipPath id="0e1432b0d1"><path d="M 2.601562 0 L 27.277344 0 L 27.277344 21.773438 L 2.601562 21.773438 Z M 2.601562 0 " clip-rule="nonzero"/></clipPath><clipPath id="5377ab6386"><path d="M 6 22 L 24 22 L 24 29.03125 L 6 29.03125 Z M 6 22 " clip-rule="nonzero"/></clipPath><clipPath id="979b02085d"><rect x="0" width="18" y="0" height="8"/></clipPath></defs><g clip-path="url(#0e1432b0d1)"><path fill="#5098d3" d="M 23.441406 15.859375 C 20.53125 14.632812 18.003906 13.597656 18.003906 13.597656 C 18.003906 13.597656 18.003906 12.300781 18.003906 11.394531 C 18.003906 10.488281 19.496094 9.515625 19.496094 5.761719 C 19.496094 2.152344 17.816406 0.167969 15.15625 0.015625 C 15.15625 0.0117188 15.15625 0.0078125 15.15625 0.00390625 C 15.101562 0.00390625 15.050781 0.0078125 14.996094 0.0117188 C 14.941406 0.0078125 14.890625 0.00390625 14.832031 0.00390625 C 14.832031 0.0078125 14.832031 0.015625 14.832031 0.015625 C 12.175781 0.167969 10.496094 2.152344 10.496094 5.761719 C 10.496094 9.515625 11.984375 10.488281 11.984375 11.394531 C 11.984375 12.300781 11.984375 13.597656 11.984375 13.597656 C 11.984375 13.597656 9.460938 14.632812 6.546875 15.859375 C 3.636719 17.089844 2.601562 18.839844 2.601562 19.808594 C 2.601562 20.78125 2.601562 21.816406 2.601562 21.816406 L 27.390625 21.816406 C 27.390625 21.816406 27.390625 20.78125 27.390625 19.808594 C 27.390625 18.839844 26.355469 17.089844 23.441406 15.859375 Z M 23.441406 15.859375 " fill-opacity="1" fill-rule="nonzero"/></g><g clip-path="url(#5377ab6386)"><g transform="matrix(1, 0, 0, 1, 6, 22)"><g clip-path="url(#979b02085d)"><g fill="#000000" fill-opacity="1"><g transform="translate(0.958408, 5.943255)"><g><path d="M 0.484375 0 L 0.484375 -4.5 L 2.1875 -4.5 C 2.488281 -4.5 2.71875 -4.488281 2.875 -4.46875 C 3.09375 -4.425781 3.273438 -4.351562 3.421875 -4.25 C 3.578125 -4.144531 3.695312 -4 3.78125 -3.8125 C 3.875 -3.625 3.921875 -3.421875 3.921875 -3.203125 C 3.921875 -2.816406 3.796875 -2.488281 3.546875 -2.21875 C 3.304688 -1.957031 2.867188 -1.828125 2.234375 -1.828125 L 1.078125 -1.828125 L 1.078125 0 Z M 1.078125 -2.359375 L 2.25 -2.359375 C 2.632812 -2.359375 2.90625 -2.429688 3.0625 -2.578125 C 3.226562 -2.722656 3.3125 -2.925781 3.3125 -3.1875 C 3.3125 -3.375 3.265625 -3.535156 3.171875 -3.671875 C 3.078125 -3.804688 2.953125 -3.894531 2.796875 -3.9375 C 2.691406 -3.957031 2.503906 -3.96875 2.234375 -3.96875 L 1.078125 -3.96875 Z M 1.078125 -2.359375 "/></g></g></g><g fill="#000000" fill-opacity="1"><g transform="translate(5.152316, 5.943255)"><g><path d="M 0.40625 0 L 0.40625 -3.265625 L 0.90625 -3.265625 L 0.90625 -2.765625 C 1.03125 -3.003906 1.144531 -3.160156 1.25 -3.234375 C 1.363281 -3.304688 1.484375 -3.34375 1.609375 -3.34375 C 1.796875 -3.34375 1.988281 -3.28125 2.1875 -3.15625 L 2 -2.640625 C 1.863281 -2.722656 1.726562 -2.765625 1.59375 -2.765625 C 1.46875 -2.765625 1.351562 -2.726562 1.25 -2.65625 C 1.15625 -2.582031 1.085938 -2.484375 1.046875 -2.359375 C 0.992188 -2.160156 0.96875 -1.941406 0.96875 -1.703125 L 0.96875 0 Z M 0.40625 0 "/></g></g></g><g fill="#000000" fill-opacity="1"><g transform="translate(7.2462, 5.943255)"><g><path d="M 0.203125 -1.625 C 0.203125 -2.238281 0.375 -2.6875 0.71875 -2.96875 C 1 -3.21875 1.335938 -3.34375 1.734375 -3.34375 C 2.179688 -3.34375 2.546875 -3.191406 2.828125 -2.890625 C 3.117188 -2.597656 3.265625 -2.191406 3.265625 -1.671875 C 3.265625 -1.253906 3.203125 -0.925781 3.078125 -0.6875 C 2.953125 -0.445312 2.769531 -0.257812 2.53125 -0.125 C 2.289062 0.0078125 2.023438 0.078125 1.734375 0.078125 C 1.273438 0.078125 0.90625 -0.0664062 0.625 -0.359375 C 0.34375 -0.660156 0.203125 -1.082031 0.203125 -1.625 Z M 0.78125 -1.625 C 0.78125 -1.207031 0.867188 -0.894531 1.046875 -0.6875 C 1.234375 -0.476562 1.460938 -0.375 1.734375 -0.375 C 2.015625 -0.375 2.242188 -0.476562 2.421875 -0.6875 C 2.609375 -0.90625 2.703125 -1.226562 2.703125 -1.65625 C 2.703125 -2.050781 2.609375 -2.351562 2.421875 -2.5625 C 2.242188 -2.769531 2.015625 -2.875 1.734375 -2.875 C 1.460938 -2.875 1.234375 -2.769531 1.046875 -2.5625 C 0.867188 -2.363281 0.78125 -2.050781 0.78125 -1.625 Z M 0.78125 -1.625 "/></g></g></g><g fill="#000000" fill-opacity="1"><g transform="translate(10.74317, 5.943255)"><g><path d="M 0.546875 0 L 0.546875 -2.828125 L 0.0625 -2.828125 L 0.0625 -3.265625 L 0.546875 -3.265625 L 0.546875 -3.609375 C 0.546875 -3.828125 0.566406 -3.992188 0.609375 -4.109375 C 0.660156 -4.242188 0.753906 -4.351562 0.890625 -4.4375 C 1.023438 -4.53125 1.210938 -4.578125 1.453125 -4.578125 C 1.609375 -4.578125 1.78125 -4.5625 1.96875 -4.53125 L 1.890625 -4.046875 C 1.773438 -4.066406 1.664062 -4.078125 1.5625 -4.078125 C 1.394531 -4.078125 1.273438 -4.039062 1.203125 -3.96875 C 1.128906 -3.894531 1.09375 -3.757812 1.09375 -3.5625 L 1.09375 -3.265625 L 1.734375 -3.265625 L 1.734375 -2.828125 L 1.09375 -2.828125 L 1.09375 0 Z M 0.546875 0 "/></g></g></g><g fill="#000000" fill-opacity="1"><g transform="translate(12.490119, 5.943255)"><g><path d="M 0.421875 -3.875 L 0.421875 -4.5 L 0.96875 -4.5 L 0.96875 -3.875 Z M 0.421875 0 L 0.421875 -3.265625 L 0.96875 -3.265625 L 0.96875 0 Z M 0.421875 0 "/></g></g></g><g fill="#000000" fill-opacity="1"><g transform="translate(13.887065, 5.943255)"><g><path d="M 0.40625 0 L 0.40625 -4.5 L 0.953125 -4.5 L 0.953125 0 Z M 0.40625 0 "/></g></g></g><g fill="#000000" fill-opacity="1"><g transform="translate(15.2855, 5.943255)"><g/></g></g></g></g></g></svg>