<svg xmlns="http://www.w3.org/2000/svg" xmlns:xlink="http://www.w3.org/1999/xlink" width="40" zoomAndPan="magnify" viewBox="0 0 30 30.000001" height="40" preserveAspectRatio="xMidYMid meet" version="1.0"><defs><g/><clipPath id="d4cfc0258b"><path d="M 3.808594 0 L 26.308594 0 L 26.308594 20.324219 L 3.808594 20.324219 Z M 3.808594 0 " clip-rule="nonzero"/></clipPath><clipPath id="12c76ea65b"><path d="M 4 19 L 27 19 L 27 29.03125 L 4 29.03125 Z M 4 19 " clip-rule="nonzero"/></clipPath><clipPath id="76fc8377ae"><path d="M 0.433594 5 L 22 5 L 22 9 L 0.433594 9 Z M 0.433594 5 " clip-rule="nonzero"/></clipPath><clipPath id="4c36be6002"><rect x="0" width="23" y="0" height="11"/></clipPath></defs><g clip-path="url(#d4cfc0258b)"><path fill="#5098d3" d="M 22.972656 14.582031 C 20.296875 13.453125 17.972656 12.5 17.972656 12.5 C 17.972656 12.5 17.972656 11.3125 17.972656 10.476562 C 17.972656 9.644531 19.34375 8.75 19.34375 5.296875 C 19.34375 1.980469 17.800781 0.152344 15.355469 0.015625 C 15.355469 0.0117188 15.355469 0.00390625 15.355469 0.00390625 C 15.304688 0.00390625 15.257812 0.0078125 15.207031 0.0078125 C 15.15625 0.0078125 15.109375 0.00390625 15.058594 0.00390625 C 15.058594 0.0078125 15.058594 0.0117188 15.058594 0.015625 C 12.613281 0.152344 11.070312 1.980469 11.070312 5.296875 C 11.070312 8.75 12.4375 9.644531 12.4375 10.476562 C 12.4375 11.3125 12.4375 12.5 12.4375 12.5 C 12.4375 12.5 10.117188 13.453125 7.441406 14.582031 C 4.761719 15.714844 3.808594 17.320312 3.808594 18.214844 C 3.808594 19.105469 3.808594 20.058594 3.808594 20.058594 L 26.605469 20.058594 C 26.605469 20.058594 26.605469 19.105469 26.605469 18.214844 C 26.605469 17.320312 25.652344 15.714844 22.972656 14.582031 Z M 22.972656 14.582031 " fill-opacity="1" fill-rule="nonzero"/></g><g clip-path="url(#12c76ea65b)"><g transform="matrix(1, 0, 0, 1, 4, 19)"><g clip-path="url(#4c36be6002)"><g fill="#000000" fill-opacity="1"><g transform="translate(5.487131, 4.846786)"><g><path d="M 0.375 0 L 0.375 -3.46875 L 1.6875 -3.46875 C 1.914062 -3.46875 2.085938 -3.457031 2.203125 -3.4375 C 2.378906 -3.40625 2.523438 -3.347656 2.640625 -3.265625 C 2.753906 -3.191406 2.84375 -3.082031 2.90625 -2.9375 C 2.976562 -2.789062 3.015625 -2.632812 3.015625 -2.46875 C 3.015625 -2.164062 2.921875 -1.910156 2.734375 -1.703125 C 2.546875 -1.503906 2.207031 -1.40625 1.71875 -1.40625 L 0.828125 -1.40625 L 0.828125 0 Z M 0.828125 -1.8125 L 1.734375 -1.8125 C 2.023438 -1.8125 2.234375 -1.867188 2.359375 -1.984375 C 2.484375 -2.097656 2.546875 -2.253906 2.546875 -2.453125 C 2.546875 -2.597656 2.507812 -2.722656 2.4375 -2.828125 C 2.363281 -2.929688 2.265625 -3 2.140625 -3.03125 C 2.066406 -3.050781 1.925781 -3.0625 1.71875 -3.0625 L 0.828125 -3.0625 Z M 0.828125 -1.8125 "/></g></g><g transform="translate(8.714507, 4.846786)"><g><path d="M 0.3125 0 L 0.3125 -2.515625 L 0.703125 -2.515625 L 0.703125 -2.125 C 0.796875 -2.300781 0.882812 -2.414062 0.96875 -2.46875 C 1.050781 -2.53125 1.140625 -2.5625 1.234375 -2.5625 C 1.378906 -2.5625 1.523438 -2.519531 1.671875 -2.4375 L 1.53125 -2.03125 C 1.425781 -2.09375 1.320312 -2.125 1.21875 -2.125 C 1.125 -2.125 1.039062 -2.09375 0.96875 -2.03125 C 0.894531 -1.976562 0.84375 -1.90625 0.8125 -1.8125 C 0.757812 -1.65625 0.734375 -1.488281 0.734375 -1.3125 L 0.734375 0 Z M 0.3125 0 "/></g></g><g transform="translate(10.325832, 4.846786)"><g><path d="M 0.15625 -1.25 C 0.15625 -1.71875 0.285156 -2.066406 0.546875 -2.296875 C 0.765625 -2.472656 1.03125 -2.5625 1.34375 -2.5625 C 1.6875 -2.5625 1.96875 -2.445312 2.1875 -2.21875 C 2.40625 -2 2.515625 -1.691406 2.515625 -1.296875 C 2.515625 -0.972656 2.460938 -0.71875 2.359375 -0.53125 C 2.265625 -0.34375 2.125 -0.195312 1.9375 -0.09375 C 1.757812 0.0078125 1.5625 0.0625 1.34375 0.0625 C 0.988281 0.0625 0.703125 -0.0507812 0.484375 -0.28125 C 0.265625 -0.507812 0.15625 -0.832031 0.15625 -1.25 Z M 0.59375 -1.25 C 0.59375 -0.925781 0.660156 -0.6875 0.796875 -0.53125 C 0.941406 -0.375 1.125 -0.296875 1.34375 -0.296875 C 1.550781 -0.296875 1.722656 -0.375 1.859375 -0.53125 C 2.003906 -0.695312 2.078125 -0.941406 2.078125 -1.265625 C 2.078125 -1.578125 2.003906 -1.8125 1.859375 -1.96875 C 1.722656 -2.132812 1.550781 -2.21875 1.34375 -2.21875 C 1.125 -2.21875 0.941406 -2.132812 0.796875 -1.96875 C 0.660156 -1.8125 0.59375 -1.570312 0.59375 -1.25 Z M 0.59375 -1.25 "/></g></g><g transform="translate(13.016887, 4.846786)"><g><path d="M 0.421875 0 L 0.421875 -2.1875 L 0.046875 -2.1875 L 0.046875 -2.515625 L 0.421875 -2.515625 L 0.421875 -2.78125 C 0.421875 -2.945312 0.4375 -3.070312 0.46875 -3.15625 C 0.507812 -3.269531 0.582031 -3.359375 0.6875 -3.421875 C 0.789062 -3.492188 0.929688 -3.53125 1.109375 -3.53125 C 1.234375 -3.53125 1.367188 -3.515625 1.515625 -3.484375 L 1.453125 -3.109375 C 1.359375 -3.128906 1.273438 -3.140625 1.203125 -3.140625 C 1.066406 -3.140625 0.972656 -3.109375 0.921875 -3.046875 C 0.867188 -2.992188 0.84375 -2.894531 0.84375 -2.75 L 0.84375 -2.515625 L 1.328125 -2.515625 L 1.328125 -2.1875 L 0.84375 -2.1875 L 0.84375 0 Z M 0.421875 0 "/></g></g><g transform="translate(14.361233, 4.846786)"><g><path d="M 0.328125 -2.984375 L 0.328125 -3.46875 L 0.75 -3.46875 L 0.75 -2.984375 Z M 0.328125 0 L 0.328125 -2.515625 L 0.75 -2.515625 L 0.75 0 Z M 0.328125 0 "/></g></g><g transform="translate(15.436238, 4.846786)"><g><path d="M 0.3125 0 L 0.3125 -3.46875 L 0.734375 -3.46875 L 0.734375 0 Z M 0.3125 0 "/></g></g></g><g clip-path="url(#76fc8377ae)"><g fill="#000000" fill-opacity="1"><g transform="translate(0.642129, 8.879037)"><g><path d="M 1.96875 0 L 1.96875 -0.375 C 1.769531 -0.0820312 1.503906 0.0625 1.171875 0.0625 C 1.023438 0.0625 0.882812 0.0351562 0.75 -0.015625 C 0.625 -0.078125 0.53125 -0.148438 0.46875 -0.234375 C 0.40625 -0.328125 0.359375 -0.4375 0.328125 -0.5625 C 0.316406 -0.644531 0.3125 -0.773438 0.3125 -0.953125 L 0.3125 -2.515625 L 0.734375 -2.515625 L 0.734375 -1.125 C 0.734375 -0.894531 0.742188 -0.742188 0.765625 -0.671875 C 0.785156 -0.554688 0.835938 -0.46875 0.921875 -0.40625 C 1.015625 -0.34375 1.125 -0.3125 1.25 -0.3125 C 1.375 -0.3125 1.492188 -0.34375 1.609375 -0.40625 C 1.722656 -0.46875 1.800781 -0.554688 1.84375 -0.671875 C 1.894531 -0.785156 1.921875 -0.953125 1.921875 -1.171875 L 1.921875 -2.515625 L 2.34375 -2.515625 L 2.34375 0 Z M 1.96875 0 "/></g></g><g transform="translate(3.333184, 8.879037)"><g><path d="M 1.25 -0.375 L 1.3125 0 C 1.1875 0.0195312 1.078125 0.03125 0.984375 0.03125 C 0.828125 0.03125 0.707031 0.0078125 0.625 -0.03125 C 0.539062 -0.0820312 0.476562 -0.148438 0.4375 -0.234375 C 0.40625 -0.316406 0.390625 -0.484375 0.390625 -0.734375 L 0.390625 -2.1875 L 0.078125 -2.1875 L 0.078125 -2.515625 L 0.390625 -2.515625 L 0.390625 -3.140625 L 0.828125 -3.390625 L 0.828125 -2.515625 L 1.25 -2.515625 L 1.25 -2.1875 L 0.828125 -2.1875 L 0.828125 -0.71875 C 0.828125 -0.59375 0.832031 -0.507812 0.84375 -0.46875 C 0.851562 -0.4375 0.875 -0.410156 0.90625 -0.390625 C 0.945312 -0.367188 1 -0.359375 1.0625 -0.359375 C 1.113281 -0.359375 1.175781 -0.363281 1.25 -0.375 Z M 1.25 -0.375 "/></g></g><g transform="translate(4.677531, 8.879037)"><g><path d="M 0.328125 -2.984375 L 0.328125 -3.46875 L 0.75 -3.46875 L 0.75 -2.984375 Z M 0.328125 0 L 0.328125 -2.515625 L 0.75 -2.515625 L 0.75 0 Z M 0.328125 0 "/></g></g><g transform="translate(5.752535, 8.879037)"><g><path d="M 0.3125 0 L 0.3125 -3.46875 L 0.734375 -3.46875 L 0.734375 0 Z M 0.3125 0 "/></g></g><g transform="translate(6.827539, 8.879037)"><g><path d="M 0.328125 -2.984375 L 0.328125 -3.46875 L 0.75 -3.46875 L 0.75 -2.984375 Z M 0.328125 0 L 0.328125 -2.515625 L 0.75 -2.515625 L 0.75 0 Z M 0.328125 0 "/></g></g><g transform="translate(7.902544, 8.879037)"><g><path d="M 0.15625 -0.75 L 0.5625 -0.8125 C 0.59375 -0.644531 0.660156 -0.515625 0.765625 -0.421875 C 0.867188 -0.335938 1.019531 -0.296875 1.21875 -0.296875 C 1.414062 -0.296875 1.5625 -0.332031 1.65625 -0.40625 C 1.75 -0.488281 1.796875 -0.582031 1.796875 -0.6875 C 1.796875 -0.789062 1.753906 -0.867188 1.671875 -0.921875 C 1.609375 -0.960938 1.460938 -1.007812 1.234375 -1.0625 C 0.921875 -1.144531 0.703125 -1.210938 0.578125 -1.265625 C 0.460938 -1.328125 0.375 -1.40625 0.3125 -1.5 C 0.25 -1.601562 0.21875 -1.71875 0.21875 -1.84375 C 0.21875 -1.957031 0.242188 -2.0625 0.296875 -2.15625 C 0.347656 -2.25 0.414062 -2.328125 0.5 -2.390625 C 0.570312 -2.441406 0.664062 -2.484375 0.78125 -2.515625 C 0.894531 -2.546875 1.015625 -2.5625 1.140625 -2.5625 C 1.335938 -2.5625 1.507812 -2.53125 1.65625 -2.46875 C 1.8125 -2.414062 1.921875 -2.34375 1.984375 -2.25 C 2.054688 -2.15625 2.109375 -2.023438 2.140625 -1.859375 L 1.71875 -1.8125 C 1.707031 -1.9375 1.65625 -2.035156 1.5625 -2.109375 C 1.46875 -2.179688 1.335938 -2.21875 1.171875 -2.21875 C 0.972656 -2.21875 0.832031 -2.1875 0.75 -2.125 C 0.664062 -2.0625 0.625 -1.984375 0.625 -1.890625 C 0.625 -1.835938 0.644531 -1.789062 0.6875 -1.75 C 0.71875 -1.695312 0.769531 -1.65625 0.84375 -1.625 C 0.882812 -1.613281 1.007812 -1.578125 1.21875 -1.515625 C 1.519531 -1.441406 1.726562 -1.378906 1.84375 -1.328125 C 1.96875 -1.273438 2.0625 -1.195312 2.125 -1.09375 C 2.195312 -1 2.234375 -0.878906 2.234375 -0.734375 C 2.234375 -0.597656 2.191406 -0.46875 2.109375 -0.34375 C 2.023438 -0.21875 1.90625 -0.117188 1.75 -0.046875 C 1.59375 0.0234375 1.414062 0.0625 1.21875 0.0625 C 0.894531 0.0625 0.644531 -0.00390625 0.46875 -0.140625 C 0.300781 -0.273438 0.195312 -0.476562 0.15625 -0.75 Z M 0.15625 -0.75 "/></g></g><g transform="translate(10.321894, 8.879037)"><g><path d="M 1.953125 -0.3125 C 1.796875 -0.175781 1.644531 -0.078125 1.5 -0.015625 C 1.351562 0.0351562 1.195312 0.0625 1.03125 0.0625 C 0.757812 0.0625 0.546875 -0.00390625 0.390625 -0.140625 C 0.242188 -0.273438 0.171875 -0.445312 0.171875 -0.65625 C 0.171875 -0.78125 0.195312 -0.894531 0.25 -1 C 0.3125 -1.101562 0.382812 -1.1875 0.46875 -1.25 C 0.5625 -1.3125 0.664062 -1.359375 0.78125 -1.390625 C 0.863281 -1.410156 0.988281 -1.429688 1.15625 -1.453125 C 1.5 -1.492188 1.753906 -1.539062 1.921875 -1.59375 C 1.921875 -1.65625 1.921875 -1.691406 1.921875 -1.703125 C 1.921875 -1.878906 1.878906 -2.003906 1.796875 -2.078125 C 1.691406 -2.171875 1.53125 -2.21875 1.3125 -2.21875 C 1.113281 -2.21875 0.96875 -2.179688 0.875 -2.109375 C 0.78125 -2.035156 0.710938 -1.910156 0.671875 -1.734375 L 0.25 -1.796875 C 0.289062 -1.972656 0.351562 -2.113281 0.4375 -2.21875 C 0.519531 -2.332031 0.644531 -2.414062 0.8125 -2.46875 C 0.976562 -2.53125 1.164062 -2.5625 1.375 -2.5625 C 1.59375 -2.5625 1.769531 -2.535156 1.90625 -2.484375 C 2.039062 -2.441406 2.140625 -2.378906 2.203125 -2.296875 C 2.265625 -2.222656 2.304688 -2.128906 2.328125 -2.015625 C 2.347656 -1.941406 2.359375 -1.8125 2.359375 -1.625 L 2.359375 -1.046875 C 2.359375 -0.648438 2.363281 -0.398438 2.375 -0.296875 C 2.394531 -0.191406 2.429688 -0.09375 2.484375 0 L 2.046875 0 C 2.003906 -0.0820312 1.972656 -0.1875 1.953125 -0.3125 Z M 1.921875 -1.265625 C 1.765625 -1.203125 1.535156 -1.144531 1.234375 -1.09375 C 1.054688 -1.070312 0.929688 -1.046875 0.859375 -1.015625 C 0.785156 -0.984375 0.726562 -0.9375 0.6875 -0.875 C 0.644531 -0.8125 0.625 -0.742188 0.625 -0.671875 C 0.625 -0.554688 0.664062 -0.460938 0.75 -0.390625 C 0.84375 -0.316406 0.972656 -0.28125 1.140625 -0.28125 C 1.296875 -0.28125 1.4375 -0.3125 1.5625 -0.375 C 1.695312 -0.445312 1.796875 -0.546875 1.859375 -0.671875 C 1.898438 -0.773438 1.921875 -0.921875 1.921875 -1.109375 Z M 1.921875 -1.265625 "/></g></g><g transform="translate(13.01295, 8.879037)"><g><path d="M 1.25 -0.375 L 1.3125 0 C 1.1875 0.0195312 1.078125 0.03125 0.984375 0.03125 C 0.828125 0.03125 0.707031 0.0078125 0.625 -0.03125 C 0.539062 -0.0820312 0.476562 -0.148438 0.4375 -0.234375 C 0.40625 -0.316406 0.390625 -0.484375 0.390625 -0.734375 L 0.390625 -2.1875 L 0.078125 -2.1875 L 0.078125 -2.515625 L 0.390625 -2.515625 L 0.390625 -3.140625 L 0.828125 -3.390625 L 0.828125 -2.515625 L 1.25 -2.515625 L 1.25 -2.1875 L 0.828125 -2.1875 L 0.828125 -0.71875 C 0.828125 -0.59375 0.832031 -0.507812 0.84375 -0.46875 C 0.851562 -0.4375 0.875 -0.410156 0.90625 -0.390625 C 0.945312 -0.367188 1 -0.359375 1.0625 -0.359375 C 1.113281 -0.359375 1.175781 -0.363281 1.25 -0.375 Z M 1.25 -0.375 "/></g></g><g transform="translate(14.357296, 8.879037)"><g><path d="M 2.03125 -0.8125 L 2.484375 -0.75 C 2.410156 -0.5 2.28125 -0.300781 2.09375 -0.15625 C 1.90625 -0.0078125 1.664062 0.0625 1.375 0.0625 C 1.007812 0.0625 0.71875 -0.0507812 0.5 -0.28125 C 0.28125 -0.507812 0.171875 -0.828125 0.171875 -1.234375 C 0.171875 -1.660156 0.28125 -1.988281 0.5 -2.21875 C 0.71875 -2.445312 1 -2.5625 1.34375 -2.5625 C 1.6875 -2.5625 1.960938 -2.445312 2.171875 -2.21875 C 2.390625 -1.988281 2.5 -1.671875 2.5 -1.265625 C 2.5 -1.234375 2.492188 -1.191406 2.484375 -1.140625 L 0.625 -1.140625 C 0.632812 -0.867188 0.707031 -0.660156 0.84375 -0.515625 C 0.988281 -0.367188 1.164062 -0.296875 1.375 -0.296875 C 1.53125 -0.296875 1.660156 -0.335938 1.765625 -0.421875 C 1.878906 -0.503906 1.96875 -0.632812 2.03125 -0.8125 Z M 0.640625 -1.5 L 2.046875 -1.5 C 2.023438 -1.707031 1.96875 -1.863281 1.875 -1.96875 C 1.738281 -2.132812 1.566406 -2.21875 1.359375 -2.21875 C 1.160156 -2.21875 0.992188 -2.148438 0.859375 -2.015625 C 0.722656 -1.890625 0.648438 -1.71875 0.640625 -1.5 Z M 0.640625 -1.5 "/></g></g><g transform="translate(17.048351, 8.879037)"><g><path d="M 1.96875 0 L 1.96875 -0.375 C 1.769531 -0.0820312 1.503906 0.0625 1.171875 0.0625 C 1.023438 0.0625 0.882812 0.0351562 0.75 -0.015625 C 0.625 -0.078125 0.53125 -0.148438 0.46875 -0.234375 C 0.40625 -0.328125 0.359375 -0.4375 0.328125 -0.5625 C 0.316406 -0.644531 0.3125 -0.773438 0.3125 -0.953125 L 0.3125 -2.515625 L 0.734375 -2.515625 L 0.734375 -1.125 C 0.734375 -0.894531 0.742188 -0.742188 0.765625 -0.671875 C 0.785156 -0.554688 0.835938 -0.46875 0.921875 -0.40625 C 1.015625 -0.34375 1.125 -0.3125 1.25 -0.3125 C 1.375 -0.3125 1.492188 -0.34375 1.609375 -0.40625 C 1.722656 -0.46875 1.800781 -0.554688 1.84375 -0.671875 C 1.894531 -0.785156 1.921875 -0.953125 1.921875 -1.171875 L 1.921875 -2.515625 L 2.34375 -2.515625 L 2.34375 0 Z M 1.96875 0 "/></g></g><g transform="translate(19.739406, 8.879037)"><g><path d="M 0.3125 0 L 0.3125 -2.515625 L 0.703125 -2.515625 L 0.703125 -2.125 C 0.796875 -2.300781 0.882812 -2.414062 0.96875 -2.46875 C 1.050781 -2.53125 1.140625 -2.5625 1.234375 -2.5625 C 1.378906 -2.5625 1.523438 -2.519531 1.671875 -2.4375 L 1.53125 -2.03125 C 1.425781 -2.09375 1.320312 -2.125 1.21875 -2.125 C 1.125 -2.125 1.039062 -2.09375 0.96875 -2.03125 C 0.894531 -1.976562 0.84375 -1.90625 0.8125 -1.8125 C 0.757812 -1.65625 0.734375 -1.488281 0.734375 -1.3125 L 0.734375 0 Z M 0.3125 0 "/></g></g></g></g></g></g></g></svg>