<svg xmlns="http://www.w3.org/2000/svg" xmlns:xlink="http://www.w3.org/1999/xlink" width="40" zoomAndPan="magnify" viewBox="0 0 30 30.000001" height="40" preserveAspectRatio="xMidYMid meet" version="1.0"><defs><g/><clipPath id="d9cd5ed102"><path d="M 0.484375 21 L 29.515625 21 L 29.515625 29.03125 L 0.484375 29.03125 Z M 0.484375 21 " clip-rule="nonzero"/></clipPath><clipPath id="60cf559040"><path d="M 0.484375 2 L 5 2 L 5 7 L 0.484375 7 Z M 0.484375 2 " clip-rule="nonzero"/></clipPath><clipPath id="2a0bb83bbf"><path d="M 26 3 L 29.515625 3 L 29.515625 7 L 26 7 Z M 26 3 " clip-rule="nonzero"/></clipPath><clipPath id="38dce5e127"><rect x="0" width="30" y="0" height="9"/></clipPath><clipPath id="c427a25c61"><path d="M 3.667969 0 L 19 0 L 19 19 L 3.667969 19 Z M 3.667969 0 " clip-rule="nonzero"/></clipPath><clipPath id="11839c7560"><path d="M 6 0 L 26.167969 0 L 26.167969 21 L 6 21 Z M 6 0 " clip-rule="nonzero"/></clipPath></defs><g clip-path="url(#d9cd5ed102)"><g transform="matrix(1, 0, 0, 1, 0, 21)"><g clip-path="url(#38dce5e127)"><g clip-path="url(#60cf559040)"><g fill="#000000" fill-opacity="1"><g transform="translate(0.607009, 6.701246)"><g><path d="M 1.578125 -4 L 0.03125 -4 L 0.03125 -4.40625 L 3.59375 -4.40625 L 3.59375 -4 L 2.046875 -4 L 2.046875 0 L 1.578125 0 Z M 1.578125 -4 "/></g></g></g></g><g fill="#000000" fill-opacity="1"><g transform="translate(3.87171, 6.701246)"><g><path d="M 3.5 -1.515625 L 0.734375 -1.515625 C 0.765625 -1.171875 0.898438 -0.890625 1.140625 -0.671875 C 1.378906 -0.460938 1.679688 -0.359375 2.046875 -0.359375 C 2.242188 -0.359375 2.425781 -0.394531 2.59375 -0.46875 C 2.769531 -0.539062 2.921875 -0.648438 3.046875 -0.796875 L 3.3125 -0.515625 C 3.15625 -0.335938 2.96875 -0.203125 2.75 -0.109375 C 2.53125 -0.015625 2.289062 0.03125 2.03125 0.03125 C 1.6875 0.03125 1.382812 -0.0390625 1.125 -0.1875 C 0.863281 -0.332031 0.660156 -0.53125 0.515625 -0.78125 C 0.367188 -1.039062 0.296875 -1.332031 0.296875 -1.65625 C 0.296875 -1.976562 0.363281 -2.265625 0.5 -2.515625 C 0.644531 -2.773438 0.835938 -2.976562 1.078125 -3.125 C 1.328125 -3.269531 1.601562 -3.34375 1.90625 -3.34375 C 2.21875 -3.34375 2.492188 -3.269531 2.734375 -3.125 C 2.972656 -2.976562 3.160156 -2.773438 3.296875 -2.515625 C 3.441406 -2.265625 3.515625 -1.976562 3.515625 -1.65625 Z M 1.90625 -2.953125 C 1.582031 -2.953125 1.3125 -2.847656 1.09375 -2.640625 C 0.882812 -2.441406 0.765625 -2.175781 0.734375 -1.84375 L 3.078125 -1.84375 C 3.054688 -2.175781 2.9375 -2.441406 2.71875 -2.640625 C 2.5 -2.847656 2.226562 -2.953125 1.90625 -2.953125 Z M 1.90625 -2.953125 "/></g></g></g><g fill="#000000" fill-opacity="1"><g transform="translate(7.671091, 6.701246)"><g><path d="M 1.515625 0.03125 C 1.242188 0.03125 0.984375 -0.00390625 0.734375 -0.078125 C 0.492188 -0.160156 0.300781 -0.257812 0.15625 -0.375 L 0.359375 -0.734375 C 0.503906 -0.617188 0.679688 -0.523438 0.890625 -0.453125 C 1.097656 -0.390625 1.316406 -0.359375 1.546875 -0.359375 C 1.847656 -0.359375 2.070312 -0.40625 2.21875 -0.5 C 2.363281 -0.59375 2.4375 -0.726562 2.4375 -0.90625 C 2.4375 -1.019531 2.394531 -1.113281 2.3125 -1.1875 C 2.226562 -1.257812 2.125 -1.3125 2 -1.34375 C 1.882812 -1.375 1.726562 -1.410156 1.53125 -1.453125 C 1.257812 -1.503906 1.039062 -1.554688 0.875 -1.609375 C 0.707031 -1.660156 0.566406 -1.75 0.453125 -1.875 C 0.335938 -2 0.28125 -2.171875 0.28125 -2.390625 C 0.28125 -2.671875 0.394531 -2.898438 0.625 -3.078125 C 0.851562 -3.253906 1.175781 -3.34375 1.59375 -3.34375 C 1.8125 -3.34375 2.023438 -3.3125 2.234375 -3.25 C 2.453125 -3.195312 2.628906 -3.125 2.765625 -3.03125 L 2.5625 -2.671875 C 2.289062 -2.859375 1.96875 -2.953125 1.59375 -2.953125 C 1.3125 -2.953125 1.097656 -2.898438 0.953125 -2.796875 C 0.804688 -2.703125 0.734375 -2.570312 0.734375 -2.40625 C 0.734375 -2.28125 0.769531 -2.175781 0.84375 -2.09375 C 0.925781 -2.019531 1.03125 -1.960938 1.15625 -1.921875 C 1.28125 -1.890625 1.445312 -1.859375 1.65625 -1.828125 C 1.925781 -1.773438 2.140625 -1.722656 2.296875 -1.671875 C 2.453125 -1.617188 2.585938 -1.53125 2.703125 -1.40625 C 2.816406 -1.289062 2.875 -1.125 2.875 -0.90625 C 2.875 -0.625 2.753906 -0.394531 2.515625 -0.21875 C 2.273438 -0.0507812 1.941406 0.03125 1.515625 0.03125 Z M 1.515625 0.03125 "/></g></g></g><g fill="#000000" fill-opacity="1"><g transform="translate(10.747083, 6.701246)"><g/></g></g><g fill="#000000" fill-opacity="1"><g transform="translate(12.395162, 6.701246)"><g><path d="M 1.9375 0.03125 C 1.601562 0.03125 1.285156 -0.0195312 0.984375 -0.125 C 0.691406 -0.226562 0.460938 -0.363281 0.296875 -0.53125 L 0.484375 -0.890625 C 0.640625 -0.734375 0.847656 -0.601562 1.109375 -0.5 C 1.378906 -0.40625 1.65625 -0.359375 1.9375 -0.359375 C 2.332031 -0.359375 2.625 -0.429688 2.8125 -0.578125 C 3.007812 -0.722656 3.109375 -0.910156 3.109375 -1.140625 C 3.109375 -1.316406 3.054688 -1.457031 2.953125 -1.5625 C 2.847656 -1.664062 2.71875 -1.742188 2.5625 -1.796875 C 2.40625 -1.859375 2.191406 -1.921875 1.921875 -1.984375 C 1.585938 -2.066406 1.320312 -2.144531 1.125 -2.21875 C 0.925781 -2.300781 0.753906 -2.421875 0.609375 -2.578125 C 0.472656 -2.742188 0.40625 -2.960938 0.40625 -3.234375 C 0.40625 -3.460938 0.460938 -3.664062 0.578125 -3.84375 C 0.691406 -4.03125 0.867188 -4.175781 1.109375 -4.28125 C 1.359375 -4.394531 1.664062 -4.453125 2.03125 -4.453125 C 2.28125 -4.453125 2.523438 -4.414062 2.765625 -4.34375 C 3.003906 -4.269531 3.210938 -4.175781 3.390625 -4.0625 L 3.234375 -3.6875 C 3.046875 -3.800781 2.847656 -3.890625 2.640625 -3.953125 C 2.429688 -4.015625 2.226562 -4.046875 2.03125 -4.046875 C 1.644531 -4.046875 1.351562 -3.972656 1.15625 -3.828125 C 0.957031 -3.679688 0.859375 -3.488281 0.859375 -3.25 C 0.859375 -3.070312 0.910156 -2.925781 1.015625 -2.8125 C 1.128906 -2.707031 1.265625 -2.628906 1.421875 -2.578125 C 1.585938 -2.523438 1.804688 -2.460938 2.078125 -2.390625 C 2.398438 -2.304688 2.660156 -2.226562 2.859375 -2.15625 C 3.054688 -2.082031 3.222656 -1.960938 3.359375 -1.796875 C 3.503906 -1.640625 3.578125 -1.429688 3.578125 -1.171875 C 3.578125 -0.941406 3.515625 -0.734375 3.390625 -0.546875 C 3.273438 -0.367188 3.09375 -0.226562 2.84375 -0.125 C 2.59375 -0.0195312 2.289062 0.03125 1.9375 0.03125 Z M 1.9375 0.03125 "/></g></g></g><g fill="#000000" fill-opacity="1"><g transform="translate(16.263739, 6.701246)"><g><path d="M 2.375 -0.203125 C 2.28125 -0.128906 2.171875 -0.0703125 2.046875 -0.03125 C 1.929688 0.0078125 1.804688 0.03125 1.671875 0.03125 C 1.359375 0.03125 1.117188 -0.0507812 0.953125 -0.21875 C 0.785156 -0.382812 0.703125 -0.625 0.703125 -0.9375 L 0.703125 -2.9375 L 0.109375 -2.9375 L 0.109375 -3.3125 L 0.703125 -3.3125 L 0.703125 -4.03125 L 1.140625 -4.03125 L 1.140625 -3.3125 L 2.15625 -3.3125 L 2.15625 -2.9375 L 1.140625 -2.9375 L 1.140625 -0.953125 C 1.140625 -0.753906 1.1875 -0.601562 1.28125 -0.5 C 1.382812 -0.40625 1.53125 -0.359375 1.71875 -0.359375 C 1.8125 -0.359375 1.898438 -0.367188 1.984375 -0.390625 C 2.066406 -0.421875 2.140625 -0.460938 2.203125 -0.515625 Z M 2.375 -0.203125 "/></g></g></g><g fill="#000000" fill-opacity="1"><g transform="translate(18.817632, 6.701246)"><g><path d="M 1.78125 -3.34375 C 2.21875 -3.34375 2.550781 -3.234375 2.78125 -3.015625 C 3.007812 -2.796875 3.125 -2.472656 3.125 -2.046875 L 3.125 0 L 2.6875 0 L 2.6875 -0.515625 C 2.59375 -0.347656 2.445312 -0.210938 2.25 -0.109375 C 2.050781 -0.015625 1.820312 0.03125 1.5625 0.03125 C 1.1875 0.03125 0.890625 -0.0546875 0.671875 -0.234375 C 0.453125 -0.410156 0.34375 -0.644531 0.34375 -0.9375 C 0.34375 -1.21875 0.441406 -1.441406 0.640625 -1.609375 C 0.847656 -1.785156 1.175781 -1.875 1.625 -1.875 L 2.671875 -1.875 L 2.671875 -2.078125 C 2.671875 -2.359375 2.59375 -2.570312 2.4375 -2.71875 C 2.28125 -2.875 2.046875 -2.953125 1.734375 -2.953125 C 1.523438 -2.953125 1.320312 -2.914062 1.125 -2.84375 C 0.9375 -2.769531 0.773438 -2.675781 0.640625 -2.5625 L 0.4375 -2.890625 C 0.601562 -3.035156 0.800781 -3.144531 1.03125 -3.21875 C 1.269531 -3.300781 1.519531 -3.34375 1.78125 -3.34375 Z M 1.625 -0.328125 C 1.875 -0.328125 2.085938 -0.382812 2.265625 -0.5 C 2.453125 -0.613281 2.585938 -0.78125 2.671875 -1 L 2.671875 -1.53125 L 1.640625 -1.53125 C 1.066406 -1.53125 0.78125 -1.332031 0.78125 -0.9375 C 0.78125 -0.75 0.851562 -0.597656 1 -0.484375 C 1.15625 -0.378906 1.363281 -0.328125 1.625 -0.328125 Z M 1.625 -0.328125 "/></g></g></g><g fill="#000000" fill-opacity="1"><g transform="translate(22.528948, 6.701246)"><g><path d="M 2.375 -0.203125 C 2.28125 -0.128906 2.171875 -0.0703125 2.046875 -0.03125 C 1.929688 0.0078125 1.804688 0.03125 1.671875 0.03125 C 1.359375 0.03125 1.117188 -0.0507812 0.953125 -0.21875 C 0.785156 -0.382812 0.703125 -0.625 0.703125 -0.9375 L 0.703125 -2.9375 L 0.109375 -2.9375 L 0.109375 -3.3125 L 0.703125 -3.3125 L 0.703125 -4.03125 L 1.140625 -4.03125 L 1.140625 -3.3125 L 2.15625 -3.3125 L 2.15625 -2.9375 L 1.140625 -2.9375 L 1.140625 -0.953125 C 1.140625 -0.753906 1.1875 -0.601562 1.28125 -0.5 C 1.382812 -0.40625 1.53125 -0.359375 1.71875 -0.359375 C 1.8125 -0.359375 1.898438 -0.367188 1.984375 -0.390625 C 2.066406 -0.421875 2.140625 -0.460938 2.203125 -0.515625 Z M 2.375 -0.203125 "/></g></g></g><g fill="#000000" fill-opacity="1"><g transform="translate(25.082841, 6.701246)"><g><path d="M 0.671875 -4.703125 C 0.765625 -4.703125 0.84375 -4.671875 0.90625 -4.609375 C 0.96875 -4.546875 1 -4.460938 1 -4.359375 C 1 -4.304688 0.992188 -4.253906 0.984375 -4.203125 C 0.972656 -4.148438 0.953125 -4.082031 0.921875 -4 L 0.65625 -3.140625 L 0.359375 -3.140625 L 0.578125 -4.046875 C 0.503906 -4.066406 0.445312 -4.101562 0.40625 -4.15625 C 0.363281 -4.21875 0.34375 -4.285156 0.34375 -4.359375 C 0.34375 -4.460938 0.375 -4.546875 0.4375 -4.609375 C 0.5 -4.671875 0.578125 -4.703125 0.671875 -4.703125 Z M 0.671875 -4.703125 "/></g></g></g><g clip-path="url(#2a0bb83bbf)"><g fill="#000000" fill-opacity="1"><g transform="translate(26.315756, 6.701246)"><g><path d="M 1.515625 0.03125 C 1.242188 0.03125 0.984375 -0.00390625 0.734375 -0.078125 C 0.492188 -0.160156 0.300781 -0.257812 0.15625 -0.375 L 0.359375 -0.734375 C 0.503906 -0.617188 0.679688 -0.523438 0.890625 -0.453125 C 1.097656 -0.390625 1.316406 -0.359375 1.546875 -0.359375 C 1.847656 -0.359375 2.070312 -0.40625 2.21875 -0.5 C 2.363281 -0.59375 2.4375 -0.726562 2.4375 -0.90625 C 2.4375 -1.019531 2.394531 -1.113281 2.3125 -1.1875 C 2.226562 -1.257812 2.125 -1.3125 2 -1.34375 C 1.882812 -1.375 1.726562 -1.410156 1.53125 -1.453125 C 1.257812 -1.503906 1.039062 -1.554688 0.875 -1.609375 C 0.707031 -1.660156 0.566406 -1.75 0.453125 -1.875 C 0.335938 -2 0.28125 -2.171875 0.28125 -2.390625 C 0.28125 -2.671875 0.394531 -2.898438 0.625 -3.078125 C 0.851562 -3.253906 1.175781 -3.34375 1.59375 -3.34375 C 1.8125 -3.34375 2.023438 -3.3125 2.234375 -3.25 C 2.453125 -3.195312 2.628906 -3.125 2.765625 -3.03125 L 2.5625 -2.671875 C 2.289062 -2.859375 1.96875 -2.953125 1.59375 -2.953125 C 1.3125 -2.953125 1.097656 -2.898438 0.953125 -2.796875 C 0.804688 -2.703125 0.734375 -2.570312 0.734375 -2.40625 C 0.734375 -2.28125 0.769531 -2.175781 0.84375 -2.09375 C 0.925781 -2.019531 1.03125 -1.960938 1.15625 -1.921875 C 1.28125 -1.890625 1.445312 -1.859375 1.65625 -1.828125 C 1.925781 -1.773438 2.140625 -1.722656 2.296875 -1.671875 C 2.453125 -1.617188 2.585938 -1.53125 2.703125 -1.40625 C 2.816406 -1.289062 2.875 -1.125 2.875 -0.90625 C 2.875 -0.625 2.753906 -0.394531 2.515625 -0.21875 C 2.273438 -0.0507812 1.941406 0.03125 1.515625 0.03125 Z M 1.515625 0.03125 "/></g></g></g></g></g></g></g><path fill="#000000" d="M 9.765625 8.839844 L 12.207031 8.839844 L 12.207031 16.203125 L 9.765625 16.203125 Z M 9.765625 8.839844 " fill-opacity="1" fill-rule="nonzero"/><path fill="#000000" d="M 19.734375 8.082031 L 17.296875 8.082031 L 17.296875 16.203125 L 18.410156 16.203125 C 18.601562 15.308594 19.078125 14.519531 19.734375 13.933594 Z M 19.734375 8.082031 " fill-opacity="1" fill-rule="evenodd"/><path fill="#000000" d="M 7.414062 8.953125 C 7.3125 9.058594 7.140625 9.0625 7.035156 8.957031 C 6.925781 8.855469 6.925781 8.683594 7.027344 8.578125 L 8.296875 7.273438 C 8.472656 7.359375 8.65625 7.429688 8.84375 7.484375 Z M 7.414062 8.953125 " fill-opacity="1" fill-rule="evenodd"/><path fill="#000000" d="M 20.695312 1.050781 C 20.546875 1.050781 20.425781 0.929688 20.425781 0.78125 C 20.425781 0.632812 20.546875 0.511719 20.695312 0.511719 L 22.277344 0.511719 C 22.429688 0.511719 22.550781 0.632812 22.550781 0.78125 L 22.550781 2.363281 C 22.550781 2.511719 22.429688 2.632812 22.277344 2.632812 C 22.128906 2.632812 22.007812 2.511719 22.007812 2.363281 L 22.007812 1.386719 L 15.582031 7.152344 C 15.101562 7.582031 14.40625 7.625 13.875 7.253906 L 12.78125 6.488281 C 12.910156 6.359375 13.03125 6.222656 13.140625 6.078125 L 14.1875 6.8125 C 14.511719 7.039062 14.929688 7.015625 15.222656 6.75 L 21.574219 1.050781 Z M 20.695312 1.050781 " fill-opacity="1" fill-rule="evenodd"/><g clip-path="url(#c427a25c61)"><path fill="#000000" d="M 18.582031 18.609375 L 3.957031 18.609375 C 3.804688 18.609375 3.683594 18.488281 3.683594 18.339844 L 3.683594 0.269531 C 3.683594 0.121094 3.804688 0 3.957031 0 C 4.105469 0 4.226562 0.121094 4.226562 0.269531 L 4.226562 18.070312 L 18.417969 18.070312 C 18.460938 18.253906 18.515625 18.4375 18.582031 18.609375 Z M 18.582031 18.609375 " fill-opacity="1" fill-rule="evenodd"/></g><g clip-path="url(#11839c7560)"><path fill="#000000" d="M 13.386719 3.960938 C 13.25 5.722656 11.777344 7.109375 9.980469 7.109375 C 8.089844 7.109375 6.558594 5.578125 6.558594 3.6875 C 6.558594 1.890625 7.945312 0.417969 9.707031 0.28125 L 9.707031 3.6875 C 9.707031 3.839844 9.828125 3.960938 9.980469 3.960938 Z M 22.582031 13.382812 C 24.640625 13.382812 26.308594 15.054688 26.308594 17.113281 C 26.308594 19.171875 24.640625 20.839844 22.582031 20.839844 C 20.523438 20.839844 18.851562 19.171875 18.851562 17.113281 C 18.851562 15.054688 20.523438 13.382812 22.582031 13.382812 Z M 20.691406 17.023438 L 21.941406 18.351562 C 22.046875 18.464844 22.222656 18.46875 22.332031 18.355469 L 24.464844 16.25 C 24.570312 16.144531 24.570312 15.976562 24.46875 15.867188 C 24.363281 15.761719 24.191406 15.761719 24.085938 15.867188 L 22.144531 17.78125 L 21.085938 16.65625 C 20.980469 16.546875 20.8125 16.539062 20.703125 16.644531 C 20.59375 16.746094 20.589844 16.914062 20.691406 17.023438 Z M 21.058594 4.300781 L 23.496094 4.300781 L 23.496094 12.941406 C 22.679688 12.761719 21.832031 12.828125 21.058594 13.121094 Z M 13.53125 11.046875 L 15.96875 11.046875 L 15.96875 16.203125 L 13.53125 16.203125 Z M 6.003906 12.90625 L 8.441406 12.90625 L 8.441406 16.203125 L 6.003906 16.203125 Z M 6.003906 12.90625 " fill-opacity="1" fill-rule="evenodd"/></g><path fill="#000000" d="M 10.25 0.28125 C 11.921875 0.410156 13.257812 1.746094 13.386719 3.417969 L 10.25 3.417969 Z M 10.25 0.28125 " fill-opacity="1" fill-rule="evenodd"/></svg>