<svg xmlns="http://www.w3.org/2000/svg" xmlns:xlink="http://www.w3.org/1999/xlink" width="40" zoomAndPan="magnify" viewBox="0 0 30 30.000001" height="40" preserveAspectRatio="xMidYMid meet" version="1.0"><defs><g/><clipPath id="40e697065a"><path d="M 1 22 L 29 22 L 29 29.03125 L 1 29.03125 Z M 1 22 " clip-rule="nonzero"/></clipPath><clipPath id="fd3390a8f9"><path d="M 0.179688 1 L 5 1 L 5 7 L 0.179688 7 Z M 0.179688 1 " clip-rule="nonzero"/></clipPath><clipPath id="c4ecfb17b3"><path d="M 24 2 L 27.820312 2 L 27.820312 7 L 24 7 Z M 24 2 " clip-rule="nonzero"/></clipPath><clipPath id="3688453ad6"><rect x="0" width="28" y="0" height="8"/></clipPath><clipPath id="3466de5673"><path d="M 1.933594 0 L 20 0 L 20 22 L 1.933594 22 Z M 1.933594 0 " clip-rule="nonzero"/></clipPath><clipPath id="c35c984825"><path d="M 4 0 L 28.066406 0 L 28.066406 23.953125 L 4 23.953125 Z M 4 0 " clip-rule="nonzero"/></clipPath></defs><g clip-path="url(#40e697065a)"><g transform="matrix(1, 0, 0, 1, 1, 22)"><g clip-path="url(#3688453ad6)"><g clip-path="url(#fd3390a8f9)"><g fill="#000000" fill-opacity="1"><g transform="translate(0.413776, 6.22544)"><g><path d="M 1.625 0 L 1.625 -3.96875 L 0.140625 -3.96875 L 0.140625 -4.5 L 3.71875 -4.5 L 3.71875 -3.96875 L 2.234375 -3.96875 L 2.234375 0 Z M 1.625 0 "/></g></g></g></g><g fill="#000000" fill-opacity="1"><g transform="translate(3.558939, 6.22544)"><g><path d="M 2.65625 -1.046875 L 3.21875 -0.984375 C 3.132812 -0.648438 2.96875 -0.390625 2.71875 -0.203125 C 2.476562 -0.015625 2.164062 0.078125 1.78125 0.078125 C 1.300781 0.078125 0.921875 -0.0664062 0.640625 -0.359375 C 0.367188 -0.660156 0.234375 -1.078125 0.234375 -1.609375 C 0.234375 -2.148438 0.375 -2.570312 0.65625 -2.875 C 0.9375 -3.1875 1.300781 -3.34375 1.75 -3.34375 C 2.1875 -3.34375 2.539062 -3.191406 2.8125 -2.890625 C 3.09375 -2.597656 3.234375 -2.179688 3.234375 -1.640625 C 3.234375 -1.609375 3.234375 -1.554688 3.234375 -1.484375 L 0.796875 -1.484375 C 0.816406 -1.128906 0.914062 -0.851562 1.09375 -0.65625 C 1.28125 -0.46875 1.515625 -0.375 1.796875 -0.375 C 1.992188 -0.375 2.164062 -0.425781 2.3125 -0.53125 C 2.457031 -0.644531 2.570312 -0.816406 2.65625 -1.046875 Z M 0.828125 -1.953125 L 2.65625 -1.953125 C 2.632812 -2.222656 2.566406 -2.425781 2.453125 -2.5625 C 2.273438 -2.78125 2.046875 -2.890625 1.765625 -2.890625 C 1.503906 -2.890625 1.285156 -2.800781 1.109375 -2.625 C 0.941406 -2.457031 0.847656 -2.234375 0.828125 -1.953125 Z M 0.828125 -1.953125 "/></g></g><g transform="translate(7.057318, 6.22544)"><g><path d="M 0.1875 -0.96875 L 0.734375 -1.0625 C 0.765625 -0.84375 0.847656 -0.671875 0.984375 -0.546875 C 1.128906 -0.429688 1.332031 -0.375 1.59375 -0.375 C 1.84375 -0.375 2.03125 -0.425781 2.15625 -0.53125 C 2.28125 -0.632812 2.34375 -0.757812 2.34375 -0.90625 C 2.34375 -1.03125 2.285156 -1.128906 2.171875 -1.203125 C 2.097656 -1.242188 1.910156 -1.304688 1.609375 -1.390625 C 1.203125 -1.484375 0.921875 -1.566406 0.765625 -1.640625 C 0.609375 -1.722656 0.488281 -1.828125 0.40625 -1.953125 C 0.320312 -2.085938 0.28125 -2.234375 0.28125 -2.390625 C 0.28125 -2.535156 0.3125 -2.671875 0.375 -2.796875 C 0.445312 -2.921875 0.539062 -3.023438 0.65625 -3.109375 C 0.738281 -3.171875 0.851562 -3.222656 1 -3.265625 C 1.15625 -3.316406 1.316406 -3.34375 1.484375 -3.34375 C 1.742188 -3.34375 1.96875 -3.304688 2.15625 -3.234375 C 2.351562 -3.160156 2.5 -3.054688 2.59375 -2.921875 C 2.6875 -2.796875 2.75 -2.628906 2.78125 -2.421875 L 2.234375 -2.34375 C 2.210938 -2.507812 2.140625 -2.640625 2.015625 -2.734375 C 1.898438 -2.835938 1.738281 -2.890625 1.53125 -2.890625 C 1.269531 -2.890625 1.085938 -2.84375 0.984375 -2.75 C 0.878906 -2.664062 0.828125 -2.570312 0.828125 -2.46875 C 0.828125 -2.394531 0.847656 -2.328125 0.890625 -2.265625 C 0.929688 -2.210938 1 -2.164062 1.09375 -2.125 C 1.15625 -2.101562 1.320312 -2.054688 1.59375 -1.984375 C 1.976562 -1.878906 2.25 -1.789062 2.40625 -1.71875 C 2.5625 -1.65625 2.679688 -1.554688 2.765625 -1.421875 C 2.859375 -1.296875 2.90625 -1.140625 2.90625 -0.953125 C 2.90625 -0.773438 2.847656 -0.601562 2.734375 -0.4375 C 2.628906 -0.269531 2.472656 -0.140625 2.265625 -0.046875 C 2.066406 0.0351562 1.84375 0.078125 1.59375 0.078125 C 1.164062 0.078125 0.835938 -0.0078125 0.609375 -0.1875 C 0.390625 -0.363281 0.25 -0.625 0.1875 -0.96875 Z M 0.1875 -0.96875 "/></g></g><g transform="translate(10.202481, 6.22544)"><g/></g><g transform="translate(11.950134, 6.22544)"><g><path d="M 0.28125 -1.453125 L 0.84375 -1.5 C 0.875 -1.269531 0.9375 -1.082031 1.03125 -0.9375 C 1.125 -0.789062 1.273438 -0.671875 1.484375 -0.578125 C 1.691406 -0.492188 1.921875 -0.453125 2.171875 -0.453125 C 2.398438 -0.453125 2.601562 -0.484375 2.78125 -0.546875 C 2.957031 -0.617188 3.085938 -0.710938 3.171875 -0.828125 C 3.253906 -0.953125 3.296875 -1.082031 3.296875 -1.21875 C 3.296875 -1.363281 3.253906 -1.488281 3.171875 -1.59375 C 3.085938 -1.695312 2.953125 -1.785156 2.765625 -1.859375 C 2.640625 -1.910156 2.367188 -1.984375 1.953125 -2.078125 C 1.546875 -2.179688 1.257812 -2.273438 1.09375 -2.359375 C 0.875 -2.472656 0.710938 -2.613281 0.609375 -2.78125 C 0.503906 -2.945312 0.453125 -3.132812 0.453125 -3.34375 C 0.453125 -3.570312 0.515625 -3.785156 0.640625 -3.984375 C 0.773438 -4.179688 0.96875 -4.328125 1.21875 -4.421875 C 1.46875 -4.523438 1.742188 -4.578125 2.046875 -4.578125 C 2.378906 -4.578125 2.671875 -4.523438 2.921875 -4.421875 C 3.179688 -4.316406 3.378906 -4.160156 3.515625 -3.953125 C 3.648438 -3.742188 3.722656 -3.503906 3.734375 -3.234375 L 3.15625 -3.1875 C 3.132812 -3.476562 3.03125 -3.695312 2.84375 -3.84375 C 2.664062 -3.988281 2.40625 -4.0625 2.0625 -4.0625 C 1.707031 -4.0625 1.445312 -3.992188 1.28125 -3.859375 C 1.113281 -3.722656 1.03125 -3.5625 1.03125 -3.375 C 1.03125 -3.21875 1.085938 -3.085938 1.203125 -2.984375 C 1.316406 -2.878906 1.613281 -2.769531 2.09375 -2.65625 C 2.582031 -2.550781 2.921875 -2.457031 3.109375 -2.375 C 3.367188 -2.25 3.5625 -2.09375 3.6875 -1.90625 C 3.8125 -1.726562 3.875 -1.515625 3.875 -1.265625 C 3.875 -1.023438 3.800781 -0.800781 3.65625 -0.59375 C 3.519531 -0.382812 3.320312 -0.21875 3.0625 -0.09375 C 2.8125 0.0195312 2.523438 0.078125 2.203125 0.078125 C 1.796875 0.078125 1.453125 0.0195312 1.171875 -0.09375 C 0.898438 -0.21875 0.6875 -0.398438 0.53125 -0.640625 C 0.375 -0.878906 0.289062 -1.148438 0.28125 -1.453125 Z M 0.28125 -1.453125 "/></g></g><g transform="translate(16.145732, 6.22544)"><g><path d="M 1.625 -0.5 L 1.703125 0 C 1.546875 0.03125 1.40625 0.046875 1.28125 0.046875 C 1.082031 0.046875 0.925781 0.015625 0.8125 -0.046875 C 0.707031 -0.109375 0.628906 -0.191406 0.578125 -0.296875 C 0.535156 -0.398438 0.515625 -0.617188 0.515625 -0.953125 L 0.515625 -2.828125 L 0.109375 -2.828125 L 0.109375 -3.265625 L 0.515625 -3.265625 L 0.515625 -4.078125 L 1.0625 -4.40625 L 1.0625 -3.265625 L 1.625 -3.265625 L 1.625 -2.828125 L 1.0625 -2.828125 L 1.0625 -0.921875 C 1.0625 -0.765625 1.070312 -0.660156 1.09375 -0.609375 C 1.113281 -0.566406 1.144531 -0.53125 1.1875 -0.5 C 1.226562 -0.476562 1.289062 -0.46875 1.375 -0.46875 C 1.4375 -0.46875 1.519531 -0.476562 1.625 -0.5 Z M 1.625 -0.5 "/></g></g><g transform="translate(17.893386, 6.22544)"><g><path d="M 2.546875 -0.40625 C 2.335938 -0.226562 2.140625 -0.101562 1.953125 -0.03125 C 1.765625 0.0390625 1.5625 0.078125 1.34375 0.078125 C 0.988281 0.078125 0.710938 -0.0078125 0.515625 -0.1875 C 0.328125 -0.363281 0.234375 -0.585938 0.234375 -0.859375 C 0.234375 -1.015625 0.269531 -1.160156 0.34375 -1.296875 C 0.414062 -1.429688 0.507812 -1.535156 0.625 -1.609375 C 0.738281 -1.691406 0.867188 -1.753906 1.015625 -1.796875 C 1.128906 -1.828125 1.296875 -1.851562 1.515625 -1.875 C 1.960938 -1.9375 2.289062 -2.003906 2.5 -2.078125 C 2.5 -2.148438 2.5 -2.195312 2.5 -2.21875 C 2.5 -2.445312 2.445312 -2.601562 2.34375 -2.6875 C 2.207031 -2.8125 2 -2.875 1.71875 -2.875 C 1.457031 -2.875 1.265625 -2.828125 1.140625 -2.734375 C 1.015625 -2.648438 0.921875 -2.492188 0.859375 -2.265625 L 0.328125 -2.328125 C 0.367188 -2.566406 0.445312 -2.753906 0.5625 -2.890625 C 0.675781 -3.035156 0.835938 -3.144531 1.046875 -3.21875 C 1.265625 -3.300781 1.515625 -3.34375 1.796875 -3.34375 C 2.078125 -3.34375 2.300781 -3.304688 2.46875 -3.234375 C 2.644531 -3.171875 2.773438 -3.085938 2.859375 -2.984375 C 2.941406 -2.890625 3 -2.765625 3.03125 -2.609375 C 3.050781 -2.515625 3.0625 -2.347656 3.0625 -2.109375 L 3.0625 -1.375 C 3.0625 -0.851562 3.070312 -0.523438 3.09375 -0.390625 C 3.113281 -0.253906 3.160156 -0.125 3.234375 0 L 2.65625 0 C 2.601562 -0.113281 2.566406 -0.25 2.546875 -0.40625 Z M 2.5 -1.640625 C 2.300781 -1.554688 2 -1.488281 1.59375 -1.4375 C 1.363281 -1.394531 1.203125 -1.351562 1.109375 -1.3125 C 1.015625 -1.269531 0.941406 -1.207031 0.890625 -1.125 C 0.835938 -1.050781 0.8125 -0.96875 0.8125 -0.875 C 0.8125 -0.726562 0.867188 -0.601562 0.984375 -0.5 C 1.097656 -0.40625 1.257812 -0.359375 1.46875 -0.359375 C 1.6875 -0.359375 1.878906 -0.40625 2.046875 -0.5 C 2.210938 -0.59375 2.332031 -0.71875 2.40625 -0.875 C 2.46875 -1 2.5 -1.1875 2.5 -1.4375 Z M 2.5 -1.640625 "/></g></g><g transform="translate(21.391765, 6.22544)"><g><path d="M 1.625 -0.5 L 1.703125 0 C 1.546875 0.03125 1.40625 0.046875 1.28125 0.046875 C 1.082031 0.046875 0.925781 0.015625 0.8125 -0.046875 C 0.707031 -0.109375 0.628906 -0.191406 0.578125 -0.296875 C 0.535156 -0.398438 0.515625 -0.617188 0.515625 -0.953125 L 0.515625 -2.828125 L 0.109375 -2.828125 L 0.109375 -3.265625 L 0.515625 -3.265625 L 0.515625 -4.078125 L 1.0625 -4.40625 L 1.0625 -3.265625 L 1.625 -3.265625 L 1.625 -2.828125 L 1.0625 -2.828125 L 1.0625 -0.921875 C 1.0625 -0.765625 1.070312 -0.660156 1.09375 -0.609375 C 1.113281 -0.566406 1.144531 -0.53125 1.1875 -0.5 C 1.226562 -0.476562 1.289062 -0.46875 1.375 -0.46875 C 1.4375 -0.46875 1.519531 -0.476562 1.625 -0.5 Z M 1.625 -0.5 "/></g></g><g transform="translate(23.139419, 6.22544)"><g><path d="M 0.375 -3.90625 L 0.375 -4.546875 L 0.96875 -4.546875 L 0.96875 -4.046875 C 0.96875 -3.773438 0.9375 -3.578125 0.875 -3.453125 C 0.789062 -3.285156 0.65625 -3.160156 0.46875 -3.078125 L 0.328125 -3.296875 C 0.441406 -3.335938 0.523438 -3.40625 0.578125 -3.5 C 0.628906 -3.601562 0.660156 -3.738281 0.671875 -3.90625 Z M 0.375 -3.90625 "/></g></g></g><g clip-path="url(#c4ecfb17b3)"><g fill="#000000" fill-opacity="1"><g transform="translate(24.423284, 6.22544)"><g><path d="M 0.1875 -0.96875 L 0.734375 -1.0625 C 0.765625 -0.84375 0.847656 -0.671875 0.984375 -0.546875 C 1.128906 -0.429688 1.332031 -0.375 1.59375 -0.375 C 1.84375 -0.375 2.03125 -0.425781 2.15625 -0.53125 C 2.28125 -0.632812 2.34375 -0.757812 2.34375 -0.90625 C 2.34375 -1.03125 2.285156 -1.128906 2.171875 -1.203125 C 2.097656 -1.242188 1.910156 -1.304688 1.609375 -1.390625 C 1.203125 -1.484375 0.921875 -1.566406 0.765625 -1.640625 C 0.609375 -1.722656 0.488281 -1.828125 0.40625 -1.953125 C 0.320312 -2.085938 0.28125 -2.234375 0.28125 -2.390625 C 0.28125 -2.535156 0.3125 -2.671875 0.375 -2.796875 C 0.445312 -2.921875 0.539062 -3.023438 0.65625 -3.109375 C 0.738281 -3.171875 0.851562 -3.222656 1 -3.265625 C 1.15625 -3.316406 1.316406 -3.34375 1.484375 -3.34375 C 1.742188 -3.34375 1.96875 -3.304688 2.15625 -3.234375 C 2.351562 -3.160156 2.5 -3.054688 2.59375 -2.921875 C 2.6875 -2.796875 2.75 -2.628906 2.78125 -2.421875 L 2.234375 -2.34375 C 2.210938 -2.507812 2.140625 -2.640625 2.015625 -2.734375 C 1.898438 -2.835938 1.738281 -2.890625 1.53125 -2.890625 C 1.269531 -2.890625 1.085938 -2.84375 0.984375 -2.75 C 0.878906 -2.664062 0.828125 -2.570312 0.828125 -2.46875 C 0.828125 -2.394531 0.847656 -2.328125 0.890625 -2.265625 C 0.929688 -2.210938 1 -2.164062 1.09375 -2.125 C 1.15625 -2.101562 1.320312 -2.054688 1.59375 -1.984375 C 1.976562 -1.878906 2.25 -1.789062 2.40625 -1.71875 C 2.5625 -1.65625 2.679688 -1.554688 2.765625 -1.421875 C 2.859375 -1.296875 2.90625 -1.140625 2.90625 -0.953125 C 2.90625 -0.773438 2.847656 -0.601562 2.734375 -0.4375 C 2.628906 -0.269531 2.472656 -0.140625 2.265625 -0.046875 C 2.066406 0.0351562 1.84375 0.078125 1.59375 0.078125 C 1.164062 0.078125 0.835938 -0.0078125 0.609375 -0.1875 C 0.390625 -0.363281 0.25 -0.625 0.1875 -0.96875 Z M 0.1875 -0.96875 "/></g></g></g></g></g></g></g><path fill="#f24e89" d="M 8.96875 10.191406 L 11.78125 10.191406 L 11.78125 18.679688 L 8.96875 18.679688 Z M 8.96875 10.191406 " fill-opacity="1" fill-rule="nonzero"/><path fill="#f24e89" d="M 20.460938 9.320312 L 17.648438 9.320312 L 17.648438 18.679688 L 18.933594 18.679688 C 19.15625 17.652344 19.703125 16.742188 20.460938 16.0625 Z M 20.460938 9.320312 " fill-opacity="1" fill-rule="evenodd"/><path fill="#f24e89" d="M 6.257812 10.320312 C 6.140625 10.445312 5.941406 10.449219 5.820312 10.328125 C 5.695312 10.207031 5.695312 10.011719 5.8125 9.886719 L 7.273438 8.386719 C 7.476562 8.484375 7.6875 8.5625 7.90625 8.628906 Z M 6.257812 10.320312 " fill-opacity="1" fill-rule="evenodd"/><path fill="#f24e89" d="M 21.570312 1.210938 C 21.398438 1.210938 21.257812 1.074219 21.257812 0.902344 C 21.257812 0.726562 21.398438 0.589844 21.570312 0.589844 L 23.394531 0.589844 C 23.566406 0.589844 23.707031 0.726562 23.707031 0.902344 L 23.707031 2.722656 C 23.707031 2.894531 23.566406 3.035156 23.394531 3.035156 C 23.222656 3.035156 23.082031 2.894531 23.082031 2.722656 L 23.082031 1.597656 L 15.675781 8.246094 C 15.121094 8.742188 14.316406 8.792969 13.707031 8.363281 L 12.445312 7.476562 C 12.59375 7.332031 12.730469 7.171875 12.859375 7.007812 L 14.066406 7.855469 C 14.4375 8.117188 14.921875 8.085938 15.261719 7.78125 L 22.582031 1.210938 Z M 21.570312 1.210938 " fill-opacity="1" fill-rule="evenodd"/><g clip-path="url(#3466de5673)"><path fill="#f24e89" d="M 19.132812 21.457031 L 2.269531 21.457031 C 2.097656 21.457031 1.957031 21.316406 1.957031 21.144531 L 1.957031 0.308594 C 1.957031 0.136719 2.097656 0 2.269531 0 C 2.441406 0 2.582031 0.136719 2.582031 0.308594 L 2.582031 20.832031 L 18.945312 20.832031 C 18.996094 21.046875 19.058594 21.253906 19.132812 21.457031 Z M 19.132812 21.457031 " fill-opacity="1" fill-rule="evenodd"/></g><g clip-path="url(#c35c984825)"><path fill="#ff9b57" d="M 13.144531 4.566406 C 12.984375 6.597656 11.285156 8.195312 9.214844 8.195312 C 7.035156 8.195312 5.269531 6.429688 5.269531 4.253906 C 5.269531 2.179688 6.871094 0.480469 8.902344 0.320312 L 8.902344 4.253906 C 8.902344 4.425781 9.042969 4.566406 9.214844 4.566406 Z M 23.742188 15.429688 C 26.117188 15.429688 28.042969 17.355469 28.042969 19.730469 C 28.042969 22.101562 26.117188 24.027344 23.742188 24.027344 C 21.367188 24.027344 19.445312 22.101562 19.445312 19.730469 C 19.445312 17.355469 21.367188 15.429688 23.742188 15.429688 Z M 21.5625 19.625 L 23.007812 21.160156 C 23.128906 21.289062 23.328125 21.289062 23.457031 21.160156 L 25.914062 18.734375 C 26.035156 18.613281 26.039062 18.417969 25.917969 18.292969 C 25.796875 18.171875 25.601562 18.171875 25.476562 18.289062 L 23.242188 20.5 L 22.015625 19.199219 C 21.898438 19.074219 21.703125 19.070312 21.578125 19.1875 C 21.453125 19.304688 21.445312 19.5 21.5625 19.625 Z M 21.988281 4.960938 L 24.800781 4.960938 L 24.800781 14.921875 C 23.859375 14.714844 22.878906 14.789062 21.988281 15.128906 Z M 13.308594 12.738281 L 16.121094 12.738281 L 16.121094 18.679688 L 13.308594 18.679688 Z M 4.628906 14.878906 L 7.441406 14.878906 L 7.441406 18.679688 L 4.628906 18.679688 Z M 4.628906 14.878906 " fill-opacity="1" fill-rule="evenodd"/></g><path fill="#f24e89" d="M 9.527344 0.320312 C 11.457031 0.472656 12.992188 2.011719 13.144531 3.941406 L 9.527344 3.941406 Z M 9.527344 0.320312 " fill-opacity="1" fill-rule="evenodd"/></svg>