<svg xmlns="http://www.w3.org/2000/svg" xmlns:xlink="http://www.w3.org/1999/xlink" width="40" zoomAndPan="magnify" viewBox="0 0 30 30.000001" height="40" preserveAspectRatio="xMidYMid meet" version="1.0"><defs><g/><clipPath id="33bdc457ae"><path d="M 4 23 L 26 23 L 26 29.03125 L 4 29.03125 Z M 4 23 " clip-rule="nonzero"/></clipPath><clipPath id="9d68219582"><path d="M 0.433594 1 L 4 1 L 4 5 L 0.433594 5 Z M 0.433594 1 " clip-rule="nonzero"/></clipPath><clipPath id="9b5ad5fd01"><path d="M 19 2 L 21.566406 2 L 21.566406 5 L 19 5 Z M 19 2 " clip-rule="nonzero"/></clipPath><clipPath id="d1cb334542"><rect x="0" width="22" y="0" height="7"/></clipPath><clipPath id="49d002f8b9"><path d="M 1.933594 0 L 20 0 L 20 22 L 1.933594 22 Z M 1.933594 0 " clip-rule="nonzero"/></clipPath><clipPath id="cc6a0ded65"><path d="M 4 0 L 28.066406 0 L 28.066406 23.953125 L 4 23.953125 Z M 4 0 " clip-rule="nonzero"/></clipPath></defs><g clip-path="url(#33bdc457ae)"><g transform="matrix(1, 0, 0, 1, 4, 23)"><g clip-path="url(#d1cb334542)"><g clip-path="url(#9d68219582)"><g fill="#000000" fill-opacity="1"><g transform="translate(0.549065, 4.902665)"><g><path d="M 1.25 0 L 1.25 -3.0625 L 0.109375 -3.0625 L 0.109375 -3.46875 L 2.859375 -3.46875 L 2.859375 -3.0625 L 1.71875 -3.0625 L 1.71875 0 Z M 1.25 0 "/></g></g></g></g><g fill="#000000" fill-opacity="1"><g transform="translate(2.968419, 4.902665)"><g><path d="M 2.03125 -0.8125 L 2.484375 -0.75 C 2.410156 -0.5 2.28125 -0.300781 2.09375 -0.15625 C 1.90625 -0.0078125 1.664062 0.0625 1.375 0.0625 C 1.007812 0.0625 0.71875 -0.0507812 0.5 -0.28125 C 0.28125 -0.507812 0.171875 -0.828125 0.171875 -1.234375 C 0.171875 -1.660156 0.28125 -1.988281 0.5 -2.21875 C 0.71875 -2.445312 1 -2.5625 1.34375 -2.5625 C 1.6875 -2.5625 1.960938 -2.445312 2.171875 -2.21875 C 2.390625 -1.988281 2.5 -1.671875 2.5 -1.265625 C 2.5 -1.234375 2.492188 -1.191406 2.484375 -1.140625 L 0.625 -1.140625 C 0.632812 -0.867188 0.707031 -0.660156 0.84375 -0.515625 C 0.988281 -0.367188 1.164062 -0.296875 1.375 -0.296875 C 1.53125 -0.296875 1.660156 -0.335938 1.765625 -0.421875 C 1.878906 -0.503906 1.96875 -0.632812 2.03125 -0.8125 Z M 0.640625 -1.5 L 2.046875 -1.5 C 2.023438 -1.707031 1.96875 -1.863281 1.875 -1.96875 C 1.738281 -2.132812 1.566406 -2.21875 1.359375 -2.21875 C 1.160156 -2.21875 0.992188 -2.148438 0.859375 -2.015625 C 0.722656 -1.890625 0.648438 -1.71875 0.640625 -1.5 Z M 0.640625 -1.5 "/></g></g><g transform="translate(5.659478, 4.902665)"><g><path d="M 0.15625 -0.75 L 0.5625 -0.8125 C 0.59375 -0.644531 0.660156 -0.515625 0.765625 -0.421875 C 0.867188 -0.335938 1.019531 -0.296875 1.21875 -0.296875 C 1.414062 -0.296875 1.5625 -0.332031 1.65625 -0.40625 C 1.75 -0.488281 1.796875 -0.582031 1.796875 -0.6875 C 1.796875 -0.789062 1.753906 -0.867188 1.671875 -0.921875 C 1.609375 -0.960938 1.460938 -1.007812 1.234375 -1.0625 C 0.921875 -1.144531 0.703125 -1.210938 0.578125 -1.265625 C 0.460938 -1.328125 0.375 -1.40625 0.3125 -1.5 C 0.25 -1.601562 0.21875 -1.71875 0.21875 -1.84375 C 0.21875 -1.957031 0.242188 -2.0625 0.296875 -2.15625 C 0.347656 -2.25 0.414062 -2.328125 0.5 -2.390625 C 0.570312 -2.441406 0.664062 -2.484375 0.78125 -2.515625 C 0.894531 -2.546875 1.015625 -2.5625 1.140625 -2.5625 C 1.335938 -2.5625 1.507812 -2.53125 1.65625 -2.46875 C 1.8125 -2.414062 1.921875 -2.34375 1.984375 -2.25 C 2.054688 -2.15625 2.109375 -2.023438 2.140625 -1.859375 L 1.71875 -1.8125 C 1.707031 -1.9375 1.65625 -2.035156 1.5625 -2.109375 C 1.46875 -2.179688 1.335938 -2.21875 1.171875 -2.21875 C 0.972656 -2.21875 0.832031 -2.1875 0.75 -2.125 C 0.664062 -2.0625 0.625 -1.984375 0.625 -1.890625 C 0.625 -1.835938 0.644531 -1.789062 0.6875 -1.75 C 0.71875 -1.695312 0.769531 -1.65625 0.84375 -1.625 C 0.882812 -1.613281 1.007812 -1.578125 1.21875 -1.515625 C 1.519531 -1.441406 1.726562 -1.378906 1.84375 -1.328125 C 1.96875 -1.273438 2.0625 -1.195312 2.125 -1.09375 C 2.195312 -1 2.234375 -0.878906 2.234375 -0.734375 C 2.234375 -0.597656 2.191406 -0.46875 2.109375 -0.34375 C 2.023438 -0.21875 1.90625 -0.117188 1.75 -0.046875 C 1.59375 0.0234375 1.414062 0.0625 1.21875 0.0625 C 0.894531 0.0625 0.644531 -0.00390625 0.46875 -0.140625 C 0.300781 -0.273438 0.195312 -0.476562 0.15625 -0.75 Z M 0.15625 -0.75 "/></g></g><g transform="translate(8.078832, 4.902665)"><g/></g><g transform="translate(9.423181, 4.902665)"><g><path d="M 0.21875 -1.109375 L 0.65625 -1.15625 C 0.675781 -0.976562 0.722656 -0.832031 0.796875 -0.71875 C 0.867188 -0.613281 0.984375 -0.523438 1.140625 -0.453125 C 1.296875 -0.390625 1.472656 -0.359375 1.671875 -0.359375 C 1.847656 -0.359375 2.003906 -0.382812 2.140625 -0.4375 C 2.273438 -0.488281 2.375 -0.554688 2.4375 -0.640625 C 2.5 -0.734375 2.53125 -0.832031 2.53125 -0.9375 C 2.53125 -1.050781 2.5 -1.144531 2.4375 -1.21875 C 2.375 -1.300781 2.269531 -1.375 2.125 -1.4375 C 2.03125 -1.46875 1.820312 -1.519531 1.5 -1.59375 C 1.1875 -1.675781 0.96875 -1.75 0.84375 -1.8125 C 0.675781 -1.90625 0.550781 -2.015625 0.46875 -2.140625 C 0.382812 -2.265625 0.34375 -2.410156 0.34375 -2.578125 C 0.34375 -2.742188 0.390625 -2.90625 0.484375 -3.0625 C 0.585938 -3.21875 0.734375 -3.332031 0.921875 -3.40625 C 1.117188 -3.488281 1.335938 -3.53125 1.578125 -3.53125 C 1.828125 -3.53125 2.050781 -3.488281 2.25 -3.40625 C 2.445312 -3.320312 2.597656 -3.195312 2.703125 -3.03125 C 2.804688 -2.875 2.863281 -2.691406 2.875 -2.484375 L 2.4375 -2.453125 C 2.40625 -2.671875 2.320312 -2.835938 2.1875 -2.953125 C 2.050781 -3.066406 1.851562 -3.125 1.59375 -3.125 C 1.3125 -3.125 1.109375 -3.070312 0.984375 -2.96875 C 0.859375 -2.863281 0.796875 -2.742188 0.796875 -2.609375 C 0.796875 -2.484375 0.835938 -2.378906 0.921875 -2.296875 C 1.015625 -2.210938 1.242188 -2.128906 1.609375 -2.046875 C 1.984375 -1.960938 2.242188 -1.890625 2.390625 -1.828125 C 2.585938 -1.734375 2.734375 -1.613281 2.828125 -1.46875 C 2.929688 -1.332031 2.984375 -1.171875 2.984375 -0.984375 C 2.984375 -0.796875 2.925781 -0.617188 2.8125 -0.453125 C 2.707031 -0.296875 2.554688 -0.171875 2.359375 -0.078125 C 2.160156 0.015625 1.941406 0.0625 1.703125 0.0625 C 1.378906 0.0625 1.113281 0.015625 0.90625 -0.078125 C 0.695312 -0.171875 0.53125 -0.304688 0.40625 -0.484375 C 0.289062 -0.671875 0.226562 -0.878906 0.21875 -1.109375 Z M 0.21875 -1.109375 "/></g></g><g transform="translate(12.650561, 4.902665)"><g><path d="M 1.25 -0.375 L 1.3125 0 C 1.1875 0.0195312 1.078125 0.03125 0.984375 0.03125 C 0.828125 0.03125 0.707031 0.0078125 0.625 -0.03125 C 0.539062 -0.0820312 0.476562 -0.148438 0.4375 -0.234375 C 0.40625 -0.316406 0.390625 -0.484375 0.390625 -0.734375 L 0.390625 -2.1875 L 0.078125 -2.1875 L 0.078125 -2.515625 L 0.390625 -2.515625 L 0.390625 -3.140625 L 0.828125 -3.390625 L 0.828125 -2.515625 L 1.25 -2.515625 L 1.25 -2.1875 L 0.828125 -2.1875 L 0.828125 -0.71875 C 0.828125 -0.59375 0.832031 -0.507812 0.84375 -0.46875 C 0.851562 -0.4375 0.875 -0.410156 0.90625 -0.390625 C 0.945312 -0.367188 1 -0.359375 1.0625 -0.359375 C 1.113281 -0.359375 1.175781 -0.363281 1.25 -0.375 Z M 1.25 -0.375 "/></g></g><g transform="translate(13.99491, 4.902665)"><g><path d="M 1.953125 -0.3125 C 1.796875 -0.175781 1.644531 -0.078125 1.5 -0.015625 C 1.351562 0.0351562 1.195312 0.0625 1.03125 0.0625 C 0.757812 0.0625 0.546875 -0.00390625 0.390625 -0.140625 C 0.242188 -0.273438 0.171875 -0.445312 0.171875 -0.65625 C 0.171875 -0.78125 0.195312 -0.894531 0.25 -1 C 0.3125 -1.101562 0.382812 -1.1875 0.46875 -1.25 C 0.5625 -1.3125 0.664062 -1.359375 0.78125 -1.390625 C 0.863281 -1.410156 0.988281 -1.429688 1.15625 -1.453125 C 1.5 -1.492188 1.753906 -1.539062 1.921875 -1.59375 C 1.921875 -1.65625 1.921875 -1.691406 1.921875 -1.703125 C 1.921875 -1.878906 1.878906 -2.003906 1.796875 -2.078125 C 1.691406 -2.171875 1.53125 -2.21875 1.3125 -2.21875 C 1.113281 -2.21875 0.96875 -2.179688 0.875 -2.109375 C 0.78125 -2.035156 0.710938 -1.910156 0.671875 -1.734375 L 0.25 -1.796875 C 0.289062 -1.972656 0.351562 -2.113281 0.4375 -2.21875 C 0.519531 -2.332031 0.644531 -2.414062 0.8125 -2.46875 C 0.976562 -2.53125 1.164062 -2.5625 1.375 -2.5625 C 1.59375 -2.5625 1.769531 -2.535156 1.90625 -2.484375 C 2.039062 -2.441406 2.140625 -2.378906 2.203125 -2.296875 C 2.265625 -2.222656 2.304688 -2.128906 2.328125 -2.015625 C 2.347656 -1.941406 2.359375 -1.8125 2.359375 -1.625 L 2.359375 -1.046875 C 2.359375 -0.648438 2.363281 -0.398438 2.375 -0.296875 C 2.394531 -0.191406 2.429688 -0.09375 2.484375 0 L 2.046875 0 C 2.003906 -0.0820312 1.972656 -0.1875 1.953125 -0.3125 Z M 1.921875 -1.265625 C 1.765625 -1.203125 1.535156 -1.144531 1.234375 -1.09375 C 1.054688 -1.070312 0.929688 -1.046875 0.859375 -1.015625 C 0.785156 -0.984375 0.726562 -0.9375 0.6875 -0.875 C 0.644531 -0.8125 0.625 -0.742188 0.625 -0.671875 C 0.625 -0.554688 0.664062 -0.460938 0.75 -0.390625 C 0.84375 -0.316406 0.972656 -0.28125 1.140625 -0.28125 C 1.296875 -0.28125 1.4375 -0.3125 1.5625 -0.375 C 1.695312 -0.445312 1.796875 -0.546875 1.859375 -0.671875 C 1.898438 -0.773438 1.921875 -0.921875 1.921875 -1.109375 Z M 1.921875 -1.265625 "/></g></g><g transform="translate(16.685969, 4.902665)"><g><path d="M 1.25 -0.375 L 1.3125 0 C 1.1875 0.0195312 1.078125 0.03125 0.984375 0.03125 C 0.828125 0.03125 0.707031 0.0078125 0.625 -0.03125 C 0.539062 -0.0820312 0.476562 -0.148438 0.4375 -0.234375 C 0.40625 -0.316406 0.390625 -0.484375 0.390625 -0.734375 L 0.390625 -2.1875 L 0.078125 -2.1875 L 0.078125 -2.515625 L 0.390625 -2.515625 L 0.390625 -3.140625 L 0.828125 -3.390625 L 0.828125 -2.515625 L 1.25 -2.515625 L 1.25 -2.1875 L 0.828125 -2.1875 L 0.828125 -0.71875 C 0.828125 -0.59375 0.832031 -0.507812 0.84375 -0.46875 C 0.851562 -0.4375 0.875 -0.410156 0.90625 -0.390625 C 0.945312 -0.367188 1 -0.359375 1.0625 -0.359375 C 1.113281 -0.359375 1.175781 -0.363281 1.25 -0.375 Z M 1.25 -0.375 "/></g></g><g transform="translate(18.030317, 4.902665)"><g><path d="M 0.296875 -3.015625 L 0.296875 -3.5 L 0.75 -3.5 L 0.75 -3.109375 C 0.75 -2.898438 0.722656 -2.75 0.671875 -2.65625 C 0.609375 -2.53125 0.503906 -2.4375 0.359375 -2.375 L 0.25 -2.53125 C 0.34375 -2.570312 0.410156 -2.628906 0.453125 -2.703125 C 0.492188 -2.773438 0.515625 -2.878906 0.515625 -3.015625 Z M 0.296875 -3.015625 "/></g></g></g><g clip-path="url(#9b5ad5fd01)"><g fill="#000000" fill-opacity="1"><g transform="translate(19.017905, 4.902665)"><g><path d="M 0.15625 -0.75 L 0.5625 -0.8125 C 0.59375 -0.644531 0.660156 -0.515625 0.765625 -0.421875 C 0.867188 -0.335938 1.019531 -0.296875 1.21875 -0.296875 C 1.414062 -0.296875 1.5625 -0.332031 1.65625 -0.40625 C 1.75 -0.488281 1.796875 -0.582031 1.796875 -0.6875 C 1.796875 -0.789062 1.753906 -0.867188 1.671875 -0.921875 C 1.609375 -0.960938 1.460938 -1.007812 1.234375 -1.0625 C 0.921875 -1.144531 0.703125 -1.210938 0.578125 -1.265625 C 0.460938 -1.328125 0.375 -1.40625 0.3125 -1.5 C 0.25 -1.601562 0.21875 -1.71875 0.21875 -1.84375 C 0.21875 -1.957031 0.242188 -2.0625 0.296875 -2.15625 C 0.347656 -2.25 0.414062 -2.328125 0.5 -2.390625 C 0.570312 -2.441406 0.664062 -2.484375 0.78125 -2.515625 C 0.894531 -2.546875 1.015625 -2.5625 1.140625 -2.5625 C 1.335938 -2.5625 1.507812 -2.53125 1.65625 -2.46875 C 1.8125 -2.414062 1.921875 -2.34375 1.984375 -2.25 C 2.054688 -2.15625 2.109375 -2.023438 2.140625 -1.859375 L 1.71875 -1.8125 C 1.707031 -1.9375 1.65625 -2.035156 1.5625 -2.109375 C 1.46875 -2.179688 1.335938 -2.21875 1.171875 -2.21875 C 0.972656 -2.21875 0.832031 -2.1875 0.75 -2.125 C 0.664062 -2.0625 0.625 -1.984375 0.625 -1.890625 C 0.625 -1.835938 0.644531 -1.789062 0.6875 -1.75 C 0.71875 -1.695312 0.769531 -1.65625 0.84375 -1.625 C 0.882812 -1.613281 1.007812 -1.578125 1.21875 -1.515625 C 1.519531 -1.441406 1.726562 -1.378906 1.84375 -1.328125 C 1.96875 -1.273438 2.0625 -1.195312 2.125 -1.09375 C 2.195312 -1 2.234375 -0.878906 2.234375 -0.734375 C 2.234375 -0.597656 2.191406 -0.46875 2.109375 -0.34375 C 2.023438 -0.21875 1.90625 -0.117188 1.75 -0.046875 C 1.59375 0.0234375 1.414062 0.0625 1.21875 0.0625 C 0.894531 0.0625 0.644531 -0.00390625 0.46875 -0.140625 C 0.300781 -0.273438 0.195312 -0.476562 0.15625 -0.75 Z M 0.15625 -0.75 "/></g></g></g></g></g></g></g><path fill="#f24e89" d="M 8.96875 10.191406 L 11.78125 10.191406 L 11.78125 18.679688 L 8.96875 18.679688 Z M 8.96875 10.191406 " fill-opacity="1" fill-rule="nonzero"/><path fill="#f24e89" d="M 20.460938 9.320312 L 17.648438 9.320312 L 17.648438 18.679688 L 18.933594 18.679688 C 19.15625 17.652344 19.703125 16.742188 20.460938 16.0625 Z M 20.460938 9.320312 " fill-opacity="1" fill-rule="evenodd"/><path fill="#f24e89" d="M 6.257812 10.320312 C 6.140625 10.445312 5.941406 10.449219 5.820312 10.328125 C 5.695312 10.207031 5.695312 10.011719 5.8125 9.886719 L 7.273438 8.386719 C 7.476562 8.484375 7.6875 8.5625 7.90625 8.628906 Z M 6.257812 10.320312 " fill-opacity="1" fill-rule="evenodd"/><path fill="#f24e89" d="M 21.570312 1.210938 C 21.398438 1.210938 21.257812 1.074219 21.257812 0.902344 C 21.257812 0.726562 21.398438 0.589844 21.570312 0.589844 L 23.394531 0.589844 C 23.566406 0.589844 23.707031 0.726562 23.707031 0.902344 L 23.707031 2.722656 C 23.707031 2.894531 23.566406 3.035156 23.394531 3.035156 C 23.222656 3.035156 23.082031 2.894531 23.082031 2.722656 L 23.082031 1.597656 L 15.675781 8.246094 C 15.121094 8.742188 14.316406 8.792969 13.707031 8.363281 L 12.445312 7.476562 C 12.59375 7.332031 12.730469 7.171875 12.859375 7.007812 L 14.066406 7.855469 C 14.4375 8.117188 14.921875 8.085938 15.261719 7.78125 L 22.582031 1.210938 Z M 21.570312 1.210938 " fill-opacity="1" fill-rule="evenodd"/><g clip-path="url(#49d002f8b9)"><path fill="#f24e89" d="M 19.132812 21.457031 L 2.269531 21.457031 C 2.097656 21.457031 1.957031 21.316406 1.957031 21.144531 L 1.957031 0.308594 C 1.957031 0.136719 2.097656 0 2.269531 0 C 2.441406 0 2.582031 0.136719 2.582031 0.308594 L 2.582031 20.832031 L 18.945312 20.832031 C 18.996094 21.046875 19.058594 21.253906 19.132812 21.457031 Z M 19.132812 21.457031 " fill-opacity="1" fill-rule="evenodd"/></g><g clip-path="url(#cc6a0ded65)"><path fill="#ff9b57" d="M 13.144531 4.566406 C 12.984375 6.597656 11.285156 8.195312 9.214844 8.195312 C 7.035156 8.195312 5.269531 6.429688 5.269531 4.253906 C 5.269531 2.179688 6.871094 0.480469 8.902344 0.320312 L 8.902344 4.253906 C 8.902344 4.425781 9.042969 4.566406 9.214844 4.566406 Z M 23.742188 15.429688 C 26.117188 15.429688 28.042969 17.355469 28.042969 19.730469 C 28.042969 22.101562 26.117188 24.027344 23.742188 24.027344 C 21.367188 24.027344 19.445312 22.101562 19.445312 19.730469 C 19.445312 17.355469 21.367188 15.429688 23.742188 15.429688 Z M 21.5625 19.625 L 23.007812 21.160156 C 23.128906 21.289062 23.328125 21.289062 23.457031 21.160156 L 25.914062 18.734375 C 26.035156 18.613281 26.039062 18.417969 25.917969 18.292969 C 25.796875 18.171875 25.601562 18.171875 25.476562 18.289062 L 23.242188 20.5 L 22.015625 19.199219 C 21.898438 19.074219 21.703125 19.070312 21.578125 19.1875 C 21.453125 19.304688 21.445312 19.5 21.5625 19.625 Z M 21.988281 4.960938 L 24.800781 4.960938 L 24.800781 14.921875 C 23.859375 14.714844 22.878906 14.789062 21.988281 15.128906 Z M 13.308594 12.738281 L 16.121094 12.738281 L 16.121094 18.679688 L 13.308594 18.679688 Z M 4.628906 14.878906 L 7.441406 14.878906 L 7.441406 18.679688 L 4.628906 18.679688 Z M 4.628906 14.878906 " fill-opacity="1" fill-rule="evenodd"/></g><path fill="#f24e89" d="M 9.527344 0.320312 C 11.457031 0.472656 12.992188 2.011719 13.144531 3.941406 L 9.527344 3.941406 Z M 9.527344 0.320312 " fill-opacity="1" fill-rule="evenodd"/></svg>